<?xml version="1.0" encoding="utf-8"?>
<!-- Generator: Adobe Illustrator 21.0.0, SVG Export Plug-In . SVG Version: 6.00 Build 0)  -->
<svg version="1.1" id="图层_1" xmlns="http://www.w3.org/2000/svg" xmlns:xlink="http://www.w3.org/1999/xlink" x="0px" y="0px"
	 viewBox="0 0 24 24" style="enable-background:new 0 0 24 24;" xml:space="preserve">
<style type="text/css">
	.st0{fill:#979797;}
	.st1{filter:url(#Adobe_OpacityMaskFilter);}
	.st2{fill:#FFFFFF;}
	.st3{mask:url(#mask-2);}
	.st4{fill:#514353;}
	.st5{filter:url(#Adobe_OpacityMaskFilter_1_);}
	.st6{mask:url(#mask-4);}
	.st7{fill:#999999;}
</style>
<title>dd_aw</title>
<desc>Created with Sketch.</desc>
<g id="Page-1">
	<g id="图标编码" transform="translate(-312.000000, -3209.000000)">
		<g id="Repeat-Group" transform="translate(-1.000000, 537.000000)">
		</g>
		
			<g id="Repeat-Group-Copy" transform="translate(1750.000000, 2288.000000) rotate(90.000000) translate(-1750.000000, -2288.000000) translate(-1.000000, 537.000000)">
		</g>
		<g id="icon_x2F_24_x2A_24_x2F_职业" transform="translate(312.000000, 3209.000000)">
			<g id="外围组件_x2F_颜色_x2F_图标辅助色" transform="translate(6.000000, 2.000000)">
				<g id="Mask">
					<path id="path-1_1_" class="st0" d="M1.3,1l1.2,3.2c0.1,0.1,0.1,0.3,0.1,0.5L1.1,16.4L6,19c0,0,0.1,0,0,0l4.9-2.6L9.5,4.7
						c0-0.2,0-0.3,0.1-0.5L10.7,1L1.3,1z M10.5,4.6L12,16.8c0,0.1-0.1,0.3-0.3,0.4l-5.2,2.7c-0.3,0.1-0.7,0.1-1,0l-5.2-2.7
						C0.1,17.1,0,16.9,0,16.8L1.5,4.6L0,0.6C0,0.4,0,0.3,0.2,0.2C0.3,0.1,0.5,0,0.8,0h10.5c0.2,0,0.4,0.1,0.6,0.2
						C12,0.3,12,0.4,12,0.6L10.5,4.6z M2,5V4h8v1H2z"/>
				</g>
				<defs>
					<filter id="Adobe_OpacityMaskFilter" filterUnits="userSpaceOnUse" x="-169" y="-337" width="375" height="667">
						<feColorMatrix  type="matrix" values="1 0 0 0 0  0 1 0 0 0  0 0 1 0 0  0 0 0 1 0"/>
					</filter>
				</defs>
				<mask maskUnits="userSpaceOnUse" x="-169" y="-337" width="375" height="667" id="mask-2">
					<g class="st1">
						<path id="path-1" class="st2" d="M1.3,1l1.2,3.2c0.1,0.1,0.1,0.3,0.1,0.5L1.1,16.4L6,19c0,0,0.1,0,0,0l4.9-2.6L9.5,4.7
							c0-0.2,0-0.3,0.1-0.5L10.7,1L1.3,1z M10.5,4.6L12,16.8c0,0.1-0.1,0.3-0.3,0.4l-5.2,2.7c-0.3,0.1-0.7,0.1-1,0l-5.2-2.7
							C0.1,17.1,0,16.9,0,16.8L1.5,4.6L0,0.6C0,0.4,0,0.3,0.2,0.2C0.3,0.1,0.5,0,0.8,0h10.5c0.2,0,0.4,0.1,0.6,0.2
							C12,0.3,12,0.4,12,0.6L10.5,4.6z M2,5V4h8v1H2z"/>
					</g>
				</mask>
				<g id="Rectangle-15" class="st3">
					<g transform="translate(-169.000000, -337.000000)">
						<rect y="0" class="st4" width="375" height="667"/>
					</g>
				</g>
			</g>
			<g id="外围组件_x2F_颜色_x2F_60灰" transform="translate(10.000000, 10.000000)">
				<g id="Mask_1_">
					<path id="path-3_1_" class="st0" d="M0.5,1C0.2,1,0,0.8,0,0.5S0.2,0,0.5,0h3C3.8,0,4,0.2,4,0.5S3.8,1,3.5,1H0.5z"/>
				</g>
				<defs>
					<filter id="Adobe_OpacityMaskFilter_1_" filterUnits="userSpaceOnUse" x="-198" y="-322" width="375" height="667">
						<feColorMatrix  type="matrix" values="1 0 0 0 0  0 1 0 0 0  0 0 1 0 0  0 0 0 1 0"/>
					</filter>
				</defs>
				<mask maskUnits="userSpaceOnUse" x="-198" y="-322" width="375" height="667" id="mask-4">
					<g class="st5">
						<path id="path-3" class="st2" d="M0.5,1C0.2,1,0,0.8,0,0.5S0.2,0,0.5,0h3C3.8,0,4,0.2,4,0.5S3.8,1,3.5,1H0.5z"/>
					</g>
				</mask>
				<g id="Rectangle-15_1_" class="st6">
					<g transform="translate(-198.000000, -322.000000)">
						<rect y="0" class="st7" width="375" height="667"/>
					</g>
				</g>
			</g>
		</g>
	</g>
</g>
</svg>
