<?xml version="1.0" encoding="UTF-8"?>
<svg width="24px" height="24px" viewBox="0 0 24 24" version="1.1" xmlns="http://www.w3.org/2000/svg" xmlns:xlink="http://www.w3.org/1999/xlink">
    <!-- Generator: Sketch 49.3 (51167) - http://www.bohemiancoding.com/sketch -->
    <title>aq_aq</title>
    <desc>Created with Sketch.</desc>
    <defs>
        <path d="M8.59544025,4.22439912 L9.49430031,4.22439912 C9.49430031,6.70653265 7.48213352,8.71869943 5,8.71869943 C2.51786648,8.71869943 0.505699688,6.70653265 0.505699688,4.22439912 L1.40455975,4.22439912 C1.40455975,6.21010594 3.01429318,7.81983937 5,7.81983937 C6.98570682,7.81983937 8.59544025,6.21010594 8.59544025,4.22439912 Z M9.49430031,4.22439912 C9.49430031,6.70653265 7.48213352,8.71869943 5,8.71869943 C2.51786648,8.71869943 0.505699688,6.70653265 0.505699688,4.22439912 C0.517634888,3.887266 0.667444899,3.71869943 0.955129719,3.71869943 C1.24281454,3.71869943 1.39262455,3.887266 1.40455975,4.22439912 C1.40455975,6.21010594 3.01429318,7.81983937 5,7.81983937 C6.98570682,7.81983937 8.59544025,6.21010594 8.59544025,4.22439912 C8.65183165,3.9247791 8.80164166,3.77496909 9.04487028,3.77496909 C9.2880989,3.77496909 9.43790891,3.9247791 9.49430031,4.22439912 Z M1,2 C0.44771525,2 0,1.55228475 0,1 C0,0.44771525 0.44771525,0 1,0 C1.55228475,0 2,0.44771525 2,1 C2,1.55228475 1.55228475,2 1,2 Z M9,2 C8.44771525,2 8,1.55228475 8,1 C8,0.44771525 8.44771525,0 9,0 C9.55228475,0 10,0.44771525 10,1 C10,1.55228475 9.55228475,2 9,2 Z" id="path-1"></path>
        <path d="M10,19 C14.9705627,19 19,14.9705627 19,10 C19,5.02943725 14.9705627,1 10,1 C5.02943725,1 1,5.02943725 1,10 C1,14.9705627 5.02943725,19 10,19 Z M10,20 C4.4771525,20 0,15.5228475 0,10 C0,4.4771525 4.4771525,0 10,0 C15.5228475,0 20,4.4771525 20,10 C20,15.5228475 15.5228475,20 10,20 Z" id="path-3"></path>
    </defs>
    <g id="Page-1" stroke="none" stroke-width="1" fill="none" fill-rule="evenodd">
        <g id="图标编码" transform="translate(-1231.000000, -620.000000)">
            <g id="Repeat-Group" transform="translate(-1.000000, 537.000000)"></g>
            <g id="Repeat-Group-Copy" transform="translate(1750.000000, 2288.000000) rotate(90.000000) translate(-1750.000000, -2288.000000) translate(-1.000000, 537.000000)"></g>
            <g id="icon/24*24/好评" transform="translate(1231.000000, 620.000000)">
                <g id="外围组件/主色" transform="translate(7.000000, 8.000000)">
                    <mask id="mask-2" fill="white">
                        <use xlink:href="#path-1"></use>
                    </mask>
                    <use id="Mask" fill="#E72427" fill-rule="nonzero" xlink:href="#path-1"></use>
                    <g id="外围组件/颜色/主色" mask="url(#mask-2)" fill="#E72427">
                        <g transform="translate(-172.000000, -312.000000)" id="Rectangle-15">
                            <rect x="0" y="0" width="375" height="667"></rect>
                        </g>
                    </g>
                </g>
                <g id="外围组件/图标辅助色" transform="translate(2.000000, 2.000000)">
                    <mask id="mask-4" fill="white">
                        <use xlink:href="#path-3"></use>
                    </mask>
                    <use id="Mask" fill="#514353" fill-rule="nonzero" xlink:href="#path-3"></use>
                    <g id="外围组件/颜色/图标辅助色" mask="url(#mask-4)" fill="#514353">
                        <g transform="translate(-164.000000, -301.000000)" id="Rectangle-15">
                            <rect x="0" y="0" width="375" height="667"></rect>
                        </g>
                    </g>
                </g>
            </g>
        </g>
    </g>
</svg>