<?xml version="1.0" encoding="UTF-8"?>
<svg width="24px" height="24px" viewBox="0 0 24 24" version="1.1" xmlns="http://www.w3.org/2000/svg" xmlns:xlink="http://www.w3.org/1999/xlink">
    <!-- Generator: Sketch 49.3 (51167) - http://www.bohemiancoding.com/sketch -->
    <title>ar_aq</title>
    <desc>Created with Sketch.</desc>
    <defs>
        <path d="M18,1 L2.00219425,1 C1.4499095,1 1.00219425,1.44771525 1.00219425,2 L1.00219425,17.0664212 L4.99082077,14.9912128 L18,14.9912128 C18.5522847,14.9912128 19,14.5434975 19,13.9912128 L19,2 C19,1.44771525 18.5522847,1 18,1 Z M4.99082077,15.9739159 L-2.92884797e-05,19 L1.13686807e-13,2 C1.13686807e-13,1.04801627 0.481870905,0 1.97695066,0 L18,0 C19.1176123,0 20,0.942240699 20,2 L20,14.0412655 C20,14.511362 19.773171,15.0685184 19.399909,15.4263344 C19.0070065,15.8029781 18.5147664,15.9739159 18,15.9739159 L4.99082077,15.9739159 Z" id="path-1"></path>
    </defs>
    <g id="Page-1" stroke="none" stroke-width="1" fill="none" fill-rule="evenodd">
        <g id="图标编码" transform="translate(-1304.000000, -627.000000)">
            <g id="Repeat-Group" transform="translate(-1.000000, 537.000000)"></g>
            <g id="Repeat-Group-Copy" transform="translate(1750.000000, 2288.000000) rotate(90.000000) translate(-1750.000000, -2288.000000) translate(-1.000000, 537.000000)"></g>
            <g id="icon/24*24/意见" transform="translate(1304.000000, 627.000000)">
                <g id="外围组件/图标辅助色" stroke-width="1" transform="translate(2.000000, 4.000000)">
                    <mask id="mask-2" fill="white">
                        <use xlink:href="#path-1"></use>
                    </mask>
                    <use id="Mask" fill="#514353" xlink:href="#path-1"></use>
                    <g id="外围组件/颜色/图标辅助色" mask="url(#mask-2)" fill="#514353">
                        <g transform="translate(-164.000000, -305.000000)" id="Rectangle-15">
                            <rect x="0" y="0" width="375" height="667"></rect>
                        </g>
                    </g>
                </g>
                <path d="M6.52941176,9 L14.4705882,9 C14.762848,9 15,9.22397692 15,9.5 C15,9.77602308 14.762848,10 14.4705882,10 L6.52941176,10 C6.23715204,10 6,9.77602308 6,9.5 C6,9.22397692 6.23715204,9 6.52941176,9 Z M6.50000519,13 L9.49999481,13 C9.77602075,13 10,13.2240413 10,13.5000415 C10,13.7759587 9.77602075,14 9.49999481,14 L6.50000519,14 C6.22397925,14 6,13.7759587 6,13.5000415 C6,13.2240413 6.22397925,13 6.50000519,13 Z" id="Combined-Shape" fill="#E72427"></path>
            </g>
        </g>
    </g>
</svg>