<?xml version="1.0" encoding="UTF-8"?>
<svg width="24px" height="24px" viewBox="0 0 24 24" version="1.1" xmlns="http://www.w3.org/2000/svg" xmlns:xlink="http://www.w3.org/1999/xlink">
    <!-- Generator: Sketch 49.3 (51167) - http://www.bohemiancoding.com/sketch -->
    <title>au_aq</title>
    <desc>Created with Sketch.</desc>
    <defs>
        <path d="M18.5161609,6.00215017 L18.0654846,6.00127502 C16.5625285,2.97277121 13.4622495,1 10,1 C6.37975136,1 3.15566954,3.1569603 1.73933131,6.42129243 C1.25378841,7.54035655 1,8.75147491 1,10 C1,9.75986774 0.760133732,9.53274923 0.502002334,9.53223236 C0.242045574,9.53171184 0,9.76057074 0,10 C0,8.62107493 0.279316918,7.27392676 0.82195975,6.0232605 C1.61370729,4.19846548 2.90889829,2.69265036 4.50581194,1.64303399 C4.50125467,1.64593608 4.55635615,1.60985319 4.61183186,1.57430319 C6.18646169,0.567549363 8.04540957,0 10,0 C11.9278448,0 13.7658713,0.552499294 15.329862,1.53722268 C16.7025006,2.4035286 17.8497043,3.59456163 18.6635859,5.00243457 L18.0674265,5.0012769 L18.852638,5.48924333 L18.5161609,6.00215017 Z M18.0648518,6 L13.5,6 C13.2238576,6 13,5.77614237 13,5.5 C13,5.22385763 13.2238576,5 13.5,5 L17.4856555,5 C15.8448871,2.54524035 13.0642065,1 10,1 C6.37975136,1 3.15566954,3.1569603 1.73933131,6.42129243 C1.25378841,7.54035655 1,8.75147491 1,10 C1,10.7116428 0,10.7076381 0,10 C0,8.58678691 0.293150805,7.24204285 0.82195975,6.0232605 C2.35974018,2.47903217 5.8903656,0 10,0 C14.101961,0 17.6270733,2.46978329 19.1694056,6.00341869 L18.0654846,6.00127502 C18.0652737,6.00084999 18.0650627,6.00042498 18.0648518,6 Z" id="path-1"></path>
        <path d="M1.94271851,6 L6.5,6 C6.77614237,6 7,6.22385763 7,6.5 C7,6.77614237 6.77614237,7 6.5,7 L2.52325834,7 C4.16478894,9.45179458 6.94031218,11 10,11 C13.6209599,11 16.845556,8.84218945 18.2614545,5.57689582 C18.7464874,4.4583307 19,3.24784734 19,2 C19,1.75237396 18.9976029,1.51739975 18.9777679,1.27280884 C18.9842892,0.957956047 19.1489461,0.800529653 19.4717389,0.800529653 C19.7945316,0.800529653 19.9619399,0.957956047 19.9739637,1.27280884 C19.9912219,1.51295706 20,1.75545342 20,2 C20,3.41243456 19.7071721,4.7564755 19.178914,5.97472512 C17.6415975,9.52002848 14.1104129,12 10,12 C5.91603841,12 2.38242143,9.50880738 0.829559326,6 L1.94271851,6 Z" id="path-3"></path>
    </defs>
    <g id="Page-1" stroke="none" stroke-width="1" fill="none" fill-rule="evenodd">
        <g id="图标编码" transform="translate(-1522.000000, -627.000000)">
            <g id="Repeat-Group" transform="translate(-1.000000, 537.000000)"></g>
            <g id="Repeat-Group-Copy" transform="translate(1750.000000, 2288.000000) rotate(90.000000) translate(-1750.000000, -2288.000000) translate(-1.000000, 537.000000)"></g>
            <g id="icon/24*24/检查更新" transform="translate(1522.000000, 627.000000)">
                <g id="外围组件/图标辅助色" transform="translate(2.000000, 2.000000)">
                    <mask id="mask-2" fill="white">
                        <use xlink:href="#path-1"></use>
                    </mask>
                    <use id="Mask" fill="#514353" fill-rule="nonzero" xlink:href="#path-1"></use>
                    <g id="外围组件/颜色/图标辅助色" mask="url(#mask-2)" fill="#514353">
                        <g transform="translate(-162.000000, -308.000000)" id="Rectangle-15">
                            <rect x="0" y="0" width="375" height="667"></rect>
                        </g>
                    </g>
                </g>
                <g id="外围组件/主色" transform="translate(2.000000, 10.000000)">
                    <mask id="mask-4" fill="white">
                        <use xlink:href="#path-3"></use>
                    </mask>
                    <use id="Mask" fill="#E72427" xlink:href="#path-3"></use>
                    <g id="外围组件/颜色/主色" mask="url(#mask-4)" fill="#E72427">
                        <g transform="translate(-163.000000, -311.000000)" id="Rectangle-15">
                            <rect x="0" y="0" width="375" height="667"></rect>
                        </g>
                    </g>
                </g>
            </g>
        </g>
    </g>
</svg>