<?xml version="1.0" encoding="UTF-8"?>
<svg width="24px" height="24px" viewBox="0 0 24 24" version="1.1" xmlns="http://www.w3.org/2000/svg" xmlns:xlink="http://www.w3.org/1999/xlink">
    <!-- Generator: Sketch 50 (54983) - http://www.bohemiancoding.com/sketch -->
    <title>ba_ah</title>
    <desc>Created with Sketch.</desc>
    <defs>
        <path d="M19.0328757,5.70420855 C20.3561338,7.73871121 21.3478399,8.83804587 22.0079938,9.00221252 C22.0079938,9.53916931 22.0079938,9.87281177 22.0079938,10.0031399 C21.3619146,10.2825566 20.3597027,11.7365834 19.001358,14.3652205 L19.001358,14.3613287 C17.3811908,17.6990124 13.9593076,20 10,20 C4.4771525,20 0,15.5228475 0,10 C0,4.4771525 4.4771525,0 10,0 C13.9851697,0 17.4258711,2.33114571 19.0328757,5.70420855 Z" id="path-1"></path>
    </defs>
    <g id="Page-1" stroke="none" stroke-width="1" fill="none" fill-rule="evenodd">
        <g id="图标编码" transform="translate(-95.000000, -2186.000000)">
            <g id="Repeat-Group" transform="translate(-1.000000, 537.000000)"></g>
            <g id="Repeat-Group-Copy" transform="translate(1750.000000, 2288.000000) rotate(90.000000) translate(-1750.000000, -2288.000000) translate(-1.000000, 537.000000)"></g>
            <g id="外围组件/顶部步骤/第一步" transform="translate(95.000000, 2186.000000)">
                <g id="外围组件/颜色/90灰" stroke-width="1" fill-rule="evenodd" transform="translate(2.000000, 2.000000)">
                    <mask id="mask-2" fill="white">
                        <use xlink:href="#path-1"></use>
                    </mask>
                    <use id="Mask" fill="#659FFC" xlink:href="#path-1"></use>
                    <g id="外围组件/颜色/蓝色提示类" mask="url(#mask-2)" fill="#659FFC">
                        <g transform="translate(-195.000000, -290.000000)" id="Rectangle-15">
                            <rect x="0" y="0" width="375" height="667"></rect>
                        </g>
                    </g>
                </g>
                <text id="1" font-family="PingFangSC-Regular, PingFang SC" font-size="12" font-weight="normal" letter-spacing="-0.3075" fill="#FFFFFF">
                    <tspan x="9.5" y="17">1</tspan>
                </text>
            </g>
        </g>
    </g>
</svg>