<?xml version="1.0" encoding="UTF-8"?>
<svg width="16px" height="16px" viewBox="0 0 16 16" version="1.1" xmlns="http://www.w3.org/2000/svg" xmlns:xlink="http://www.w3.org/1999/xlink">
    <!-- Generator: Sketch 49.3 (51167) - http://www.bohemiancoding.com/sketch -->
    <title>ba_cg</title>
    <desc>Created with Sketch.</desc>
    <defs></defs>
    <g id="Page-1" stroke="none" stroke-width="1" fill="none" fill-rule="evenodd">
        <g id="图标编码" transform="translate(-88.000000, -2353.000000)">
            <g id="Repeat-Group" transform="translate(-1.000000, 537.000000)"></g>
            <g id="Repeat-Group-Copy" transform="translate(1750.000000, 2288.000000) rotate(90.000000) translate(-1750.000000, -2288.000000) translate(-1.000000, 537.000000)"></g>
            <g id="icon/16*16/安全" transform="translate(89.000000, 2353.000000)" fill="#659FFC">
                <path d="M10.6580526,4.55257049 L5.9823681,9.27507452 L3.68695313,6.95739264 C3.558148,6.82696153 3.38215106,6.75335636 3.19833203,6.7530341 C3.0144914,6.75269035 2.83817034,6.8256295 2.70884662,6.95563092 C2.4385741,7.22828801 2.43790425,7.66603035 2.70724763,7.93961125 L5.49249374,10.7516251 C5.62255213,10.8824644 5.79837621,10.9562199 5.9823681,10.9562199 C6.16629517,10.9562199 6.34261623,10.8824644 6.47217763,10.7512813 L11.637758,5.5339727 C11.9071879,5.26054219 11.9062587,4.82279985 11.6356405,4.55046503 C11.5065977,4.42031322 11.330255,4.34711625 11.146436,4.34754594 C10.9625089,4.34797563 10.786512,4.42181712 10.6580526,4.55257049 M13.9817045,4.32011051 C13.971592,3.55129531 13.9599453,2.71272063 13.9581734,1.79175371 C13.9586704,1.56281715 13.8084302,1.36047814 13.5882017,1.29342568 C11.4755254,0.655428303 9.58938703,0.281558746 7.07720088,0.00301496879 C7.04952106,9.31058021e-05 7.02166838,-0.000680328519 6.99390214,0.000587244396 C5.72037143,0.0666299417 4.53016106,0.22600038 3.45600711,0.473993502 C2.37528434,0.723748335 1.3447569,0.999950324 0.394178947,1.29452138 C0.175916812,1.36333555 0.0277725492,1.56515894 0.0286152601,1.79293535 C0.0286152601,2.6218421 0.019928855,3.38485654 0.0126685761,4.09207629 C-0.0531709177,10.1081062 -0.0776527511,12.3590794 5.78266721,15.6169781 C6.26588631,15.8856177 6.63678717,16 7.02268396,16 C7.40149333,16 7.78175044,15.8848657 8.25500827,15.6272476 C14.0925318,12.4457255 14.0671425,10.5619618 13.9817045,4.32011051 M7.76098518,14.7091811 C7.44749671,14.8802175 7.21968385,14.9563363 7.02268396,14.9563363 C6.82423634,14.9563363 6.60301391,14.8809694 6.28438274,14.7034233 C0.966617368,11.7474862 0.98418465,10.1281081 1.04950555,4.10341999 C1.05609598,3.50445956 1.06301054,2.8652161 1.06512812,2.18040446 C1.9320616,1.92334497 2.80701164,1.69339865 3.68855212,1.4909737 C4.6920696,1.25900785 5.80825105,1.10904753 7.00546241,1.04476655 C9.28315884,1.29896863 11.0302931,1.63431686 12.9226762,2.18343374 C12.926047,2.9573622 12.9361811,3.67220887 12.9448676,4.33446201 C13.0270859,10.3900016 13.0472461,11.8290191 7.76098518,14.7091811" id="Page-1"></path>
            </g>
        </g>
    </g>
</svg>