<?xml version="1.0" encoding="UTF-8"?>
<svg width="40px" height="40px" viewBox="0 0 40 40" version="1.1" xmlns="http://www.w3.org/2000/svg" xmlns:xlink="http://www.w3.org/1999/xlink">
    <!-- Generator: Sketch 49.3 (51167) - http://www.bohemiancoding.com/sketch -->
    <title>ba_eh</title>
    <desc>Created with Sketch.</desc>
    <defs>
        <path d="M20,25 C17.2385763,25 15,22.7614237 15,20 C15,17.2385763 17.2385763,15 20,15 C22.7614237,15 25,17.2385763 25,20 C25,22.7614237 22.7614237,25 20,25 Z M20,24 C22.209139,24 24,22.209139 24,20 C24,17.790861 22.209139,16 20,16 C17.790861,16 16,17.790861 16,20 C16,22.209139 17.790861,24 20,24 Z M20,40 C8.954305,40 0,31.045695 0,20 C0,8.954305 8.954305,0 20,0 C31.045695,0 40,8.954305 40,20 C40,31.045695 31.045695,40 20,40 Z M14.5779356,13 L12,13 C10.8954305,13 10,13.8954305 10,15 L10,26 C10,27.1045695 10.8954305,28 12,28 L28,28 C29.1045695,28 30,27.1045695 30,26 L30,15 C30,13.8954305 29.1045695,13 28,13 L25.4220644,13 L25.2208337,12.0835855 C25,11.209131 24.5338725,11 23.6995505,11 L16.2837909,11 C15.6157411,11 15.028207,11.4417942 14.8427499,12.0835855 L14.5779356,13 Z M25.5,15 L27.5,15 C27.7761424,15 28,15.2238576 28,15.5 C28,15.7761424 27.7761424,16 27.5,16 L25.5,16 C25.2238576,16 25,15.7761424 25,15.5 C25,15.2238576 25.2238576,15 25.5,15 Z" id="path-1"></path>
    </defs>
    <g id="Page-1" stroke="none" stroke-width="1" fill="none" fill-rule="evenodd">
        <g id="图标编码" transform="translate(-85.000000, -2486.000000)">
            <g id="Repeat-Group" transform="translate(-1.000000, 537.000000)"></g>
            <g id="Repeat-Group-Copy" transform="translate(1750.000000, 2288.000000) rotate(90.000000) translate(-1750.000000, -2288.000000) translate(-1.000000, 537.000000)"></g>
            <g id="icon/40*40/ax-copy" transform="translate(85.000000, 2486.000000)">
                <circle id="Oval" fill="#FFFFFF" fill-rule="evenodd" cx="21" cy="21" r="13"></circle>
                <mask id="mask-2" fill="white">
                    <use xlink:href="#path-1"></use>
                </mask>
                <use id="Combined-Shape" fill="#333333" fill-rule="nonzero" xlink:href="#path-1"></use>
                <g id="外围组件/颜色/蓝色提示类" mask="url(#mask-2)" fill="#659FFC" fill-rule="evenodd">
                    <g transform="translate(-171.000000, -327.000000)" id="Rectangle-15">
                        <rect x="0" y="0" width="375" height="667"></rect>
                    </g>
                </g>
            </g>
        </g>
    </g>
</svg>