<?xml version="1.0" encoding="UTF-8"?>
<svg width="16px" height="16px" viewBox="0 0 16 16" version="1.1" xmlns="http://www.w3.org/2000/svg" xmlns:xlink="http://www.w3.org/1999/xlink">
    <!-- Generator: Sketch 49.3 (51167) - http://www.bohemiancoding.com/sketch -->
    <title>bb_cp</title>
    <desc>Created with Sketch.</desc>
    <defs></defs>
    <g id="Page-1" stroke="none" stroke-width="1" fill="none" fill-rule="evenodd">
        <g id="图标编码" transform="translate(-172.000000, -2355.000000)">
            <g id="Repeat-Group" transform="translate(-1.000000, 537.000000)"></g>
            <g id="Repeat-Group-Copy" transform="translate(1750.000000, 2288.000000) rotate(90.000000) translate(-1750.000000, -2288.000000) translate(-1.000000, 537.000000)"></g>
            <g id="icon/16*16/成功" transform="translate(172.000000, 2355.000000)" fill="#FFFFFF" fill-rule="nonzero">
                <path d="M6.28571429,10.5021027 L12.5367656,4.25105133 C12.8715007,3.91631622 13.4142136,3.91631622 13.7489487,4.25105133 C14.0836838,4.58578644 14.0836838,5.12849928 13.7489487,5.46323438 L6.89180581,12.3203772 C6.72443826,12.4877448 6.50507627,12.5714286 6.28571429,12.5714286 C6.0663523,12.5714286 5.84699031,12.4877448 5.67962276,12.3203772 L2.25105133,8.89180581 C1.91631622,8.55707071 1.91631622,8.01435787 2.25105133,7.67962276 C2.58578644,7.34488765 3.12849928,7.34488765 3.46323438,7.67962276 L6.28571429,10.5021027 Z" id="Combined-Shape"></path>
            </g>
        </g>
    </g>
</svg>