<?xml version="1.0" encoding="UTF-8"?>
<svg width="40px" height="40px" viewBox="0 0 40 40" version="1.1" xmlns="http://www.w3.org/2000/svg" xmlns:xlink="http://www.w3.org/1999/xlink">
    <!-- Generator: Sketch 49.3 (51167) - http://www.bohemiancoding.com/sketch -->
    <title>bb_ep</title>
    <desc>Created with Sketch.</desc>
    <defs>
        <path d="M15.8034439,12.3611952 C15.8652629,12.1472647 16.0611076,12 16.2837909,12 C19.5813378,11.947478 22.0532576,11.947478 23.6995505,12 C23.8660242,12.005311 24.1206831,12.092185 24.2235556,12.3041693 C24.3233403,12.6244107 24.413314,12.9397145 24.4934766,13.2500805 C24.6075055,13.6915666 25.0057404,14.0000126 25.4617147,14.0000126 L28,14 C28.5522847,14 29,14.4477153 29,15 L29,26 C29,26.5522847 28.5522847,27 28,27 L12,27 C11.4477153,27 11,26.5522847 11,26 L11,15 C11,14.4477153 11.4477153,14 12,14 L14.5779356,14 C15.0233022,14 15.4149916,13.7054706 15.5386296,13.2776096 L15.8034439,12.3611952 Z M20,25 C22.7614237,25 25,22.7614237 25,20 C25,17.2385763 22.7614237,15 20,15 C17.2385763,15 15,17.2385763 15,20 C15,22.7614237 17.2385763,25 20,25 Z M25.5,15 C25.2238576,15 25,15.2238576 25,15.5 C25,15.7761424 25.2238576,16 25.5,16 L27.5,16 C27.7761424,16 28,15.7761424 28,15.5 C28,15.2238576 27.7761424,15 27.5,15 L25.5,15 Z M20,39 C30.4934102,39 39,30.4934102 39,20 C39,9.50658975 30.4934102,1 20,1 C9.50658975,1 1,9.50658975 1,20 C1,30.4934102 9.50658975,39 20,39 Z M20,40 C8.954305,40 0,31.045695 0,20 C0,8.954305 8.954305,0 20,0 C31.045695,0 40,8.954305 40,20 C40,31.045695 31.045695,40 20,40 Z M20,24 C22.209139,24 24,22.209139 24,20 C24,17.790861 22.209139,16 20,16 C17.790861,16 16,17.790861 16,20 C16,22.209139 17.790861,24 20,24 Z" id="path-1"></path>
    </defs>
    <g id="Page-1" stroke="none" stroke-width="1" fill="none" fill-rule="evenodd">
        <g id="图标编码" transform="translate(-155.000000, -2486.000000)">
            <g id="Repeat-Group" transform="translate(-1.000000, 537.000000)"></g>
            <g id="Repeat-Group-Copy" transform="translate(1750.000000, 2288.000000) rotate(90.000000) translate(-1750.000000, -2288.000000) translate(-1.000000, 537.000000)"></g>
            <g id="icon/40*40/ax" transform="translate(155.000000, 2486.000000)">
                <mask id="mask-2" fill="white">
                    <use xlink:href="#path-1"></use>
                </mask>
                <use id="Combined-Shape" fill="#333333" fill-rule="nonzero" xlink:href="#path-1"></use>
                <g id="外围组件/颜色/白色" mask="url(#mask-2)" fill="#FFFFFF" fill-rule="evenodd">
                    <rect id="Rectangle-15" x="0" y="0" width="42" height="42"></rect>
                </g>
            </g>
        </g>
    </g>
</svg>