<?xml version="1.0" encoding="UTF-8"?>
<svg width="24px" height="24px" viewBox="0 0 24 24" version="1.1" xmlns="http://www.w3.org/2000/svg" xmlns:xlink="http://www.w3.org/1999/xlink">
    <!-- Generator: Sketch 49.3 (51167) - http://www.bohemiancoding.com/sketch -->
    <title>bc_ah</title>
    <desc>Created with Sketch.</desc>
    <defs>
        <path d="M2.9320297,14.2213375 C1.61153662,11.683482 0.634193383,10.2774162 0,10.0031399 C4.4408921e-16,9.87281177 8.8817842e-16,9.53916931 8.8817842e-16,9.00221252 C0.655281441,8.83925755 1.6372388,7.75488824 2.94587207,5.74910461 C4.54365034,2.35184856 7.99717334,0 12,0 C17.5228475,0 22,4.4771525 22,10 C22,15.5228475 17.5228475,20 12,20 C7.98557477,20 4.52364113,17.6345023 2.9320297,14.2213375 Z" id="path-1"></path>
    </defs>
    <g id="Page-1" stroke="none" stroke-width="1" fill="none" fill-rule="evenodd">
        <g id="图标编码" transform="translate(-234.000000, -2192.000000)">
            <g id="Repeat-Group" transform="translate(-1.000000, 537.000000)"></g>
            <g id="Repeat-Group-Copy" transform="translate(1750.000000, 2288.000000) rotate(90.000000) translate(-1750.000000, -2288.000000) translate(-1.000000, 537.000000)"></g>
            <g id="外围组件/顶部步骤/完成" transform="translate(234.000000, 2192.000000)">
                <g id="外围组件/颜色/90灰" stroke-width="1" fill-rule="evenodd" transform="translate(0.000000, 2.000000)">
                    <mask id="mask-2" fill="white">
                        <use xlink:href="#path-1"></use>
                    </mask>
                    <use id="Mask" fill="#E6E6E6" xlink:href="#path-1"></use>
                    <g id="外围组件/颜色/蓝色提示类" mask="url(#mask-2)" fill="#659FFC">
                        <g transform="translate(-200.000000, -294.000000)" id="Rectangle-15">
                            <rect x="0" y="0" width="375" height="667"></rect>
                        </g>
                    </g>
                </g>
                <path d="M10.5,15 C10.3720388,15 10.2440777,14.9511845 10.1464466,14.8535534 L8.14644661,12.8535534 C7.95118446,12.6582912 7.95118446,12.3417088 8.14644661,12.1464466 C8.34170876,11.9511845 8.65829124,11.9511845 8.85355339,12.1464466 L10.5,13.7928932 L15.1464466,9.14644661 C15.3417088,8.95118446 15.6582912,8.95118446 15.8535534,9.14644661 C16.0488155,9.34170876 16.0488155,9.65829124 15.8535534,9.85355339 L10.8535534,14.8535534 C10.7559223,14.9511845 10.6279612,15 10.5,15 Z" id="Combined-Shape" fill="#FFFFFF" fill-rule="nonzero"></path>
            </g>
        </g>
    </g>
</svg>