<?xml version="1.0" encoding="UTF-8"?>
<svg width="24px" height="24px" viewBox="0 0 24 24" version="1.1" xmlns="http://www.w3.org/2000/svg" xmlns:xlink="http://www.w3.org/1999/xlink">
    <!-- Generator: Sketch 49.3 (51167) - http://www.bohemiancoding.com/sketch -->
    <title>be_au</title>
    <desc>Created with Sketch.</desc>
    <defs>
        <path d="M12.0634921,16.6779643 C15.8730159,15.8271429 18.4126984,12.8465357 18.4126984,9 C18.4126984,5.13160714 15.7904762,2.04942857 12.0634921,1.32203571 L12.0634921,0 C16.4480335,0.686696352 19.6831259,4.50785522 19.6831259,9 C19.6831259,13.4921448 16.4480335,17.3133036 12.0634921,18 L12.0634921,16.6779643 Z M8.88888889,16.7223214 L3.01778247,12.9603797 L1.00208615,12.9603797 C0.300772182,12.9603797 0,12.6814162 0,11.9713358 L0,6.02200905 C0,5.31192866 0.300772182,5.02687995 1.00208615,5.02687995 L3.01778247,5.02687995 L8.88888889,1.27896429 C9.59020286,1.27896429 10,1.3272458 10,2.0373262 L10,15.9148498 C10,16.7223214 9.41329206,16.7223214 8.88888889,16.7223214 Z M1.02966611,6.00205157 L1.02966611,12.0069061 L3.027228,12.0069061 L3.027228,6.00205157 L1.02966611,6.00205157 Z M9.01737757,15.5163036 L4,12 L4,6 L9.01737757,2.62014756 L9.01737757,15.5163036 Z M12.0634921,13.4398929 L12.0634921,12.1541786 C13.5420733,11.8472575 14.6035584,10.5298086 14.6035584,9.00160714 C14.6035584,7.4734057 13.5420733,6.15595676 12.0634921,5.84903571 L12.0634921,4.56332143 C14.2462414,4.87741471 15.8693745,6.76776119 15.8730159,9 C15.8705418,11.2333045 14.2472237,13.125236 12.0634921,13.4398929 Z" id="path-1"></path>
    </defs>
    <g id="Page-1" stroke="none" stroke-width="1" fill="none" fill-rule="evenodd">
        <g id="图标编码" transform="translate(-373.000000, -2198.000000)">
            <g id="Repeat-Group" transform="translate(-1.000000, 537.000000)"></g>
            <g id="Repeat-Group-Copy" transform="translate(1750.000000, 2288.000000) rotate(90.000000) translate(-1750.000000, -2288.000000) translate(-1.000000, 537.000000)"></g>
            <g id="icon/24*24/cb_ct" transform="translate(373.000000, 2198.000000)">
                <g id="voice_open" transform="translate(2.000000, 3.000000)">
                    <g id="外围组件/颜色/40灰">
                        <mask id="mask-2" fill="white">
                            <use xlink:href="#path-1"></use>
                        </mask>
                        <use id="Mask" fill="#999999" xlink:href="#path-1"></use>
                        <g mask="url(#mask-2)" fill="#666666" id="Rectangle-15">
                            <g transform="translate(-178.000000, -327.000000)">
                                <rect x="0" y="0" width="375" height="667"></rect>
                            </g>
                        </g>
                    </g>
                </g>
            </g>
        </g>
    </g>
</svg>