<?xml version="1.0" encoding="UTF-8"?>
<svg width="24px" height="24px" viewBox="0 0 24 24" version="1.1" xmlns="http://www.w3.org/2000/svg" xmlns:xlink="http://www.w3.org/1999/xlink">
    <!-- Generator: Sketch 49.3 (51167) - http://www.bohemiancoding.com/sketch -->
    <title>ca_ab</title>
    <desc>Created with Sketch.</desc>
    <defs>
        <path d="M8.88888889,15.7223214 L3.01778247,11.9603797 L1.00208615,11.9603797 C0.300772182,11.9603797 0,11.6814162 0,10.9713358 L0,5.02200905 C0,4.31192866 0.300772182,4.02687995 1.00208615,4.02687995 L3.01778247,4.02687995 L8.88888889,0.278964286 C9.59020286,0.278964286 10,0.312562491 10,1.02264288 L10,14.951831 C10,15.7593026 9.41329206,15.7223214 8.88888889,15.7223214 Z M1.02966611,5.00205157 L1.02966611,11.0069061 L3.027228,11.0069061 L3.027228,5.00205157 L1.02966611,5.00205157 Z M9.01737757,14.5163036 L4,11 L4,5 L9.01737757,1.66510017 L9.01737757,14.5163036 Z" id="path-1"></path>
    </defs>
    <g id="Page-1" stroke="none" stroke-width="1" fill="none" fill-rule="evenodd">
        <g id="图标编码" transform="translate(-312.000000, -2193.000000)">
            <g id="Repeat-Group" transform="translate(-1.000000, 537.000000)"></g>
            <g id="Repeat-Group-Copy" transform="translate(1750.000000, 2288.000000) rotate(90.000000) translate(-1750.000000, -2288.000000) translate(-1.000000, 537.000000)"></g>
            <g id="icon/24*24/voice_close" transform="translate(312.000000, 2193.000000)">
                <g id="voice_open" stroke-width="1" transform="translate(2.000000, 4.000000)">
                    <g id="外围组件/颜色/40灰">
                        <mask id="mask-2" fill="white">
                            <use xlink:href="#path-1"></use>
                        </mask>
                        <use id="Mask" fill="#999999" xlink:href="#path-1"></use>
                        <g id="外围组件/颜色/主色" mask="url(#mask-2)" fill="#E72427">
                            <g transform="translate(-178.000000, -328.000000)" id="Rectangle-15">
                                <rect x="0" y="0" width="375" height="667"></rect>
                            </g>
                        </g>
                    </g>
                </g>
                <path d="M17.4319805,11.2248737 L21.1568542,11.2248737 C21.4329966,11.2248737 21.6568542,11.4487314 21.6568542,11.7248737 L21.6568542,11.9319805 C21.6568542,12.2081229 21.4329966,12.4319805 21.1568542,12.4319805 L17.4319805,12.4319805 L17.4319805,16.1568542 C17.4319805,16.4329966 17.2081229,16.6568542 16.9319805,16.6568542 L16.7248737,16.6568542 C16.4487314,16.6568542 16.2248737,16.4329966 16.2248737,16.1568542 L16.2248737,12.4319805 L12.5,12.4319805 C12.2238576,12.4319805 12,12.2081229 12,11.9319805 L12,11.7248737 C12,11.4487314 12.2238576,11.2248737 12.5,11.2248737 L16.2248737,11.2248737 L16.2248737,7.5 C16.2248737,7.22385763 16.4487314,7 16.7248737,7 L16.9319805,7 C17.2081229,7 17.4319805,7.22385763 17.4319805,7.5 L17.4319805,11.2248737 Z" id="Combined-Shape" fill="#E72427" transform="translate(16.828427, 11.828427) rotate(-315.000000) translate(-16.828427, -11.828427) "></path>
            </g>
        </g>
    </g>
</svg>