<?xml version="1.0" encoding="UTF-8"?>
<svg width="16px" height="16px" viewBox="0 0 16 16" version="1.1" xmlns="http://www.w3.org/2000/svg" xmlns:xlink="http://www.w3.org/1999/xlink">
    <!-- Generator: Sketch 49.3 (51167) - http://www.bohemiancoding.com/sketch -->
    <title>aj_ch</title>
    <desc>Created with Sketch.</desc>
    <defs>
        <circle id="path-1" cx="8" cy="8" r="8"></circle>
    </defs>
    <g id="Page-1" stroke="none" stroke-width="1" fill="none" fill-rule="evenodd">
        <g id="图标编码" transform="translate(-730.000000, -775.000000)">
            <g id="Repeat-Group" transform="translate(-1.000000, 537.000000)"></g>
            <g id="Repeat-Group-Copy" transform="translate(1750.000000, 2288.000000) rotate(90.000000) translate(-1750.000000, -2288.000000) translate(-1.000000, 537.000000)"></g>
            <g id="icon/16*16/勾选" transform="translate(730.000000, 775.000000)">
                <g id="Group" stroke-width="1" fill-rule="evenodd">
                    <g id="外围组件/主色">
                        <mask id="mask-2" fill="white">
                            <use xlink:href="#path-1"></use>
                        </mask>
                        <use id="Mask" fill="#E72427" xlink:href="#path-1"></use>
                        <g id="外围组件/颜色/蓝色提示类" mask="url(#mask-2)" fill="#659FFC">
                            <g transform="translate(-162.000000, -402.000000)" id="Rectangle-15">
                                <rect x="0" y="0" width="375" height="667"></rect>
                            </g>
                        </g>
                    </g>
                </g>
                <path d="M7,11 C6.87203884,11 6.74407768,10.9511845 6.64644661,10.8535534 L4.64644661,8.85355339 C4.45118446,8.65829124 4.45118446,8.34170876 4.64644661,8.14644661 C4.84170876,7.95118446 5.15829124,7.95118446 5.35355339,8.14644661 L7,9.79289322 L11.6464466,5.14644661 C11.8417088,4.95118446 12.1582912,4.95118446 12.3535534,5.14644661 C12.5488155,5.34170876 12.5488155,5.65829124 12.3535534,5.85355339 L7.35355339,10.8535534 C7.25592232,10.9511845 7.12796116,11 7,11 Z" id="Combined-Shape" fill="#FFFFFF" fill-rule="nonzero"></path>
            </g>
        </g>
    </g>
</svg>