<?xml version="1.0" encoding="UTF-8"?>
<svg width="16px" height="16px" viewBox="0 0 16 16" version="1.1" xmlns="http://www.w3.org/2000/svg" xmlns:xlink="http://www.w3.org/1999/xlink">
    <!-- Generator: Sketch 49.3 (51167) - http://www.bohemiancoding.com/sketch -->
    <title>ak_cz</title>
    <desc>Created with Sketch.</desc>
    <defs>
        <circle id="path-1" cx="8" cy="8" r="8"></circle>
    </defs>
    <g id="Page-1" stroke="none" stroke-width="1" fill="none" fill-rule="evenodd">
        <g id="图标编码" transform="translate(-800.000000, -776.000000)">
            <g id="Repeat-Group" transform="translate(-1.000000, 537.000000)"></g>
            <g id="Repeat-Group-Copy" transform="translate(1750.000000, 2288.000000) rotate(90.000000) translate(-1750.000000, -2288.000000) translate(-1.000000, 537.000000)"></g>
            <g id="icon/16*16/银行" transform="translate(800.000000, 776.000000)">
                <g id="hcl工商银行">
                    <mask id="mask-2" fill="white">
                        <use xlink:href="#path-1"></use>
                    </mask>
                    <use id="Mask" fill="#BE181F" xlink:href="#path-1"></use>
                    <g mask="url(#mask-2)" fill="#FFFFFF">
                        <g transform="translate(2.000000, 2.000000)">
                            <path d="M6.34057674,2.7 L6.34057674,3.66428571 L8.63424496,3.66428571 L8.63424496,4.62857143 L6.34057674,4.62857143 L6.34057674,7.52142857 L8.63424496,7.52142857 L8.63424496,8.48571429 L6.34057674,8.48571429 L6.34057674,9.45 L9.6,9.45 L9.6,6.55714286 L7.30633178,6.55714286 L7.30633178,5.59285714 L9.6,5.59285714 L9.6,2.7 L6.34057674,2.7 Z M2.55,2.7 L2.55,5.59285714 L4.84366822,5.59285714 L4.84366822,6.55714286 L2.55,6.55714286 L2.55,9.45 L5.80942326,9.45 L5.80942326,8.48571429 L3.51575504,8.48571429 L3.51575504,7.52142857 L5.80942326,7.52142857 L5.80942326,4.62857143 L3.51575504,4.62857143 L3.51575504,3.66428571 L5.80942326,3.66428571 L5.80942326,2.7 L2.55,2.7 Z" id="Fill-1"></path>
                            <path d="M6,0 C2.68800293,0 0,2.68800293 0,6 C0,9.31199707 2.68800293,12 6,12 C9.31199707,12 12,9.31199707 12,6 C12,2.68800293 9.31199707,0 6,0 Z M6,11.04 C3.21600586,11.04 0.96,8.78399414 0.96,6 C0.96,3.21600586 3.21600586,0.96 6,0.96 C8.78399414,0.96 11.04,3.21600586 11.04,6 C11.04,8.78399414 8.78399414,11.04 6,11.04 Z" id="Fill-2"></path>
                        </g>
                    </g>
                </g>
            </g>
        </g>
    </g>
</svg>