<?xml version="1.0" encoding="UTF-8"?>
<svg width="16px" height="16px" viewBox="0 0 16 16" version="1.1" xmlns="http://www.w3.org/2000/svg" xmlns:xlink="http://www.w3.org/1999/xlink">
    <!-- Generator: Sketch 49.3 (51167) - http://www.bohemiancoding.com/sketch -->
    <title>am_cj</title>
    <desc>Created with Sketch.</desc>
    <defs>
        <path d="M6.75685463,6.86396103 L0.746446991,0.853553391 C0.551184845,0.658291245 0.551184845,0.341708755 0.746446991,0.146446609 C0.941709137,-0.0488155365 1.25829163,-0.0488155365 1.45355377,0.146446609 L7.8175148,6.51040764 C8.01277695,6.70566979 8.01277695,7.02225228 7.8175148,7.21751442 L1.45355377,13.5814755 C1.25829163,13.7767376 0.941709137,13.7767376 0.746446991,13.5814755 C0.551184845,13.3862133 0.551184845,13.0696308 0.746446991,12.8743687 L6.75685463,6.86396103 Z" id="path-1"></path>
    </defs>
    <g id="Page-1" stroke="none" stroke-width="1" fill="none" fill-rule="evenodd">
        <g id="图标编码" transform="translate(-966.000000, -787.000000)">
            <g id="Repeat-Group" transform="translate(-1.000000, 537.000000)"></g>
            <g id="Repeat-Group-Copy" transform="translate(1750.000000, 2288.000000) rotate(90.000000) translate(-1750.000000, -2288.000000) translate(-1.000000, 537.000000)"></g>
            <g id="icon/16*16/返回/向上" transform="translate(966.000000, 787.000000)">
                <g id="外围组件/60灰" transform="translate(8.000000, 8.000000) rotate(-90.000000) translate(-8.000000, -8.000000) translate(4.000000, 1.000000)">
                    <mask id="mask-2" fill="white">
                        <use xlink:href="#path-1"></use>
                    </mask>
                    <use id="Mask" fill="#999999" xlink:href="#path-1"></use>
                    <g id="外围组件/颜色/60灰" mask="url(#mask-2)" fill="#999999">
                        <g transform="translate(-166.000000, -315.000000)" id="Rectangle-15">
                            <rect x="0" y="0" width="375" height="667"></rect>
                        </g>
                    </g>
                </g>
            </g>
        </g>
    </g>
</svg>