<?xml version="1.0" encoding="UTF-8"?>
<svg width="24px" height="24px" viewBox="0 0 24 24" version="1.1" xmlns="http://www.w3.org/2000/svg" xmlns:xlink="http://www.w3.org/1999/xlink">
    <!-- Generator: Sketch 49.3 (51167) - http://www.bohemiancoding.com/sketch -->
    <title>ao_ac</title>
    <desc>Created with Sketch.</desc>
    <defs>
        <path d="M19.0415019,19 C19.0415019,19 18.1613309,19 18,19 L1,19 C0.941039713,19 0.941039713,14.0560016 1,4.16800486 C1,4.07489373 1.07289046,4 1.16133089,4 L6,4 L6,6 C6,6.34916672 6.16470386,6.5 6.5,6.5 C6.83626801,6.5 7.01148711,6.34916672 7.01148711,6 L7.01148711,4 L13,4 L13,6 C13,6.34916672 13.163732,6.5 13.5,6.5 C13.8352961,6.5 14,6.34916672 14,6 L14,4 L17.8386691,4 C17.9280814,4 19.0415019,4 19.0415019,4 L19.0415019,19 Z M14,3 L14,0.980259466 C14,0.627065363 13.8451381,0.349999905 13.5,0.349999905 C13.1538615,0.349999905 13,0.627065363 13,0.980259466 L12.9989461,3 L6.99324954,3 L6.99324954,1 C6.99324954,0.646805897 6.84613846,0.5 6.5,0.5 C6.15486194,0.5 6,0.646805897 6,1 L6,3 L1,3 C0.219687875,3 0,3.20045045 0,4 L0,19 C0,19.7995495 0.219687875,20 1,20 L19.0415019,20 C19.821814,20 20,19.7995495 20,19 L20,4 C20,3.20045045 19.821814,3 19.0415019,3 L14,3 Z" id="path-1"></path>
        <path d="M0,0.999568873 C0,0.642595387 0.190517241,0.3123518 0.5,0.133865057 C0.809482759,-0.0446216857 1.19051724,-0.0446216857 1.5,0.133865057 C1.80948276,0.3123518 2,0.642595387 2,0.999568873 C2,1.35740461 1.80948276,1.6876482 1.5,1.86613494 C1.19051724,2.04462169 0.809482759,2.04462169 0.5,1.86613494 C0.190517241,1.6876482 0,1.35740461 0,0.999568873 Z M5,0.999568873 C5,0.642595387 5.1905994,0.3123518 5.50021561,0.133865057 C5.80983182,-0.0446216857 6.19103062,-0.0446216857 6.50064683,0.133865057 C6.81026304,0.3123518 7,0.642595387 7,0.999568873 C7,1.35740461 6.81026304,1.6876482 6.50064683,1.86613494 C6.19103062,2.04462169 5.80983182,2.04462169 5.50021561,1.86613494 C5.1905994,1.6876482 5,1.35740461 5,0.999568873 Z M10,0.999568873 C10,0.642595387 10.1913793,0.3123518 10.5,0.133865057 C10.8094828,-0.0446216857 11.1905172,-0.0446216857 11.5,0.133865057 C11.8094828,0.3123518 12,0.642595387 12,0.999568873 C12,1.35740461 11.8094828,1.6876482 11.5,1.86613494 C11.1905172,2.04462169 10.8094828,2.04462169 10.5,1.86613494 C10.1913793,1.6876482 10,1.35740461 10,0.999568873 Z M0,4.99956887 C0,4.64259539 0.190517241,4.3123518 0.5,4.13386506 C0.809482759,3.95537831 1.19051724,3.95537831 1.5,4.13386506 C1.80948276,4.3123518 2,4.64259539 2,4.99956887 C2,5.35740461 1.80948276,5.6876482 1.5,5.86613494 C1.19051724,6.04462169 0.809482759,6.04462169 0.5,5.86613494 C0.190517241,5.6876482 0,5.35740461 0,4.99956887 Z M5,4.99989225 C5,4.44736559 5.44760673,4 6.00043122,4 C6.55325571,4 7,4.44736559 7,4.99989225 C7,5.35761233 6.81026304,5.68774916 6.50064683,5.86617821 C6.19103062,6.04460726 5.80983182,6.04460726 5.50021561,5.86617821 C5.1905994,5.68774916 5,5.35761233 5,4.99989225 Z M10,4.99989225 C10,4.64303416 10.1913793,4.31289732 10.5,4.13446827 C10.8094828,3.95517724 11.1905172,3.95517724 11.5,4.13446827 C11.8094828,4.31289732 12,4.64303416 12,4.99989225 C12,5.35761233 11.8094828,5.68774916 11.5,5.86617821 C11.1905172,6.04460726 10.8094828,6.04460726 10.5,5.86617821 C10.1913793,5.68774916 10,5.35761233 10,4.99989225 Z" id="path-3"></path>
    </defs>
    <g id="Page-1" stroke="none" stroke-width="1" fill="none" fill-rule="evenodd">
        <g id="图标编码" transform="translate(-1118.000000, -651.000000)">
            <g id="Repeat-Group" transform="translate(-1.000000, 537.000000)"></g>
            <g id="Repeat-Group-Copy" transform="translate(1750.000000, 2288.000000) rotate(90.000000) translate(-1750.000000, -2288.000000) translate(-1.000000, 537.000000)"></g>
            <g id="icon/24*24/ao_a" transform="translate(1118.000000, 651.000000)">
                <g id="外围组件/图标辅助色" transform="translate(2.000000, 2.000000)">
                    <mask id="mask-2" fill="white">
                        <use xlink:href="#path-1"></use>
                    </mask>
                    <g id="Mask"></g>
                    <g id="外围组件/颜色/图标辅助色" mask="url(#mask-2)" fill="#514353">
                        <g transform="translate(-164.000000, -313.000000)" id="Rectangle-15">
                            <rect x="0" y="0" width="375" height="667"></rect>
                        </g>
                    </g>
                </g>
                <g id="外围组件/绿色" transform="translate(6.000000, 12.000000)">
                    <mask id="mask-4" fill="white">
                        <use xlink:href="#path-3"></use>
                    </mask>
                    <use id="Mask" fill="#E72427" xlink:href="#path-3"></use>
                    <g id="外围组件/颜色/图标辅助色" mask="url(#mask-4)" fill="#514353">
                        <g transform="translate(-185.000000, -334.000000)" id="Rectangle-15">
                            <rect x="0" y="0" width="375" height="667"></rect>
                        </g>
                    </g>
                </g>
            </g>
        </g>
    </g>
</svg>