<?xml version="1.0" encoding="UTF-8"?>
<svg width="12px" height="12px" viewBox="0 0 12 12" version="1.1" xmlns="http://www.w3.org/2000/svg" xmlns:xlink="http://www.w3.org/1999/xlink">
    <!-- Generator: Sketch 49.3 (51167) - http://www.bohemiancoding.com/sketch -->
    <title>ab_gj</title>
    <desc>Created with Sketch.</desc>
    <defs></defs>
    <g id="Page-1" stroke="none" stroke-width="1" fill="none" fill-rule="evenodd">
        <g id="图标编码" transform="translate(-169.000000, -1081.000000)">
            <g id="Repeat-Group" transform="translate(-1.000000, 537.000000)"></g>
            <g id="Repeat-Group-Copy" transform="translate(1750.000000, 2288.000000) rotate(90.000000) translate(-1750.000000, -2288.000000) translate(-1.000000, 537.000000)"></g>
            <g id="icon/12*12/小标题返回" transform="translate(175.000000, 1087.000000) rotate(-270.000000) translate(-175.000000, -1087.000000) translate(169.000000, 1081.000000)" fill="#999999" fill-rule="nonzero">
                <path d="M9.5,10 L2.5,10 C2.22385763,10 2,9.77614237 2,9.5 C2,9.22385763 2.22385763,9 2.5,9 L9,9 L9,2.5 C9,2.22385763 9.22385763,2 9.5,2 C9.77614237,2 10,2.22385763 10,2.5 L10,9.5 C10,9.77614237 9.77614237,10 9.5,10 Z" id="Combined-Shape" transform="translate(6.000000, 6.000000) rotate(-45.000000) translate(-6.000000, -6.000000) "></path>
            </g>
        </g>
    </g>
</svg>