<?xml version="1.0" encoding="UTF-8"?>
<svg width="16px" height="16px" viewBox="0 0 16 16" version="1.1" xmlns="http://www.w3.org/2000/svg" xmlns:xlink="http://www.w3.org/1999/xlink">
    <!-- Generator: Sketch 49.3 (51167) - http://www.bohemiancoding.com/sketch -->
    <title>af_cz</title>
    <desc>Created with Sketch.</desc>
    <defs></defs>
    <g id="Page-1" stroke="none" stroke-width="1" fill="none" fill-rule="evenodd">
        <g id="图标编码" transform="translate(-438.000000, -762.000000)">
            <g id="Repeat-Group" transform="translate(-1.000000, 537.000000)"></g>
            <g id="Repeat-Group-Copy" transform="translate(1750.000000, 2288.000000) rotate(90.000000) translate(-1750.000000, -2288.000000) translate(-1.000000, 537.000000)"></g>
            <g id="icon/20*20/有还" transform="translate(438.000000, 762.000000)" fill="#999999">
                <g id="未标题-1" transform="translate(1.600000, 2.400000)">
                    <path d="M8.98844444,8.099 C8.75453885,8.09956425 8.52930106,8.18620423 8.35697778,8.3419 C7.74219156,8.88809355 6.94370686,9.19082647 6.11555556,9.1917 C4.15315251,9.13751432 2.60444033,7.53195622 2.65102222,5.6 C2.60404226,3.66777351 4.1528684,2.06178434 6.11555556,2.0076 L9.35822222,2.0076 C9.62353235,2.00746327 9.88570521,1.95112097 10.1269333,1.8424 C10.8488099,1.50572865 11.3056095,0.786269253 11.2967111,0 L6.11555556,0 L5.87804444,0.0063 C2.91591089,0.21609071 0.642389504,2.67739527 0.711111111,5.6 C0.635113718,8.6145091 3.05332649,11.120223 6.11555556,11.2 C7.39451061,11.1973113 8.6280128,10.732791 9.58222222,9.8945 C9.82141949,9.6981884 9.95846072,9.40654753 9.95555556,9.1 C9.96750319,8.56137727 9.53552745,8.1142645 8.98844444,8.099 Z M11.5761778,2.8231 L5.82542222,2.8231 C5.45927754,2.8443717 5.15503118,3.1086298 5.088,3.4636 L4.95715556,4.1636 C4.95630324,4.16727304 4.95716542,4.1711288 4.9595057,4.17411008 C4.96184599,4.17709136 4.96541877,4.17888529 4.96924444,4.179 L11.9260444,4.179 C11.9356189,4.17963187 11.9442892,4.17345151 11.9466667,4.1643 L12.0775111,3.4643 C12.1208545,3.3109191 12.0884607,3.14640388 11.9900405,3.02007139 C11.8916202,2.8937389 11.7386141,2.82027422 11.5768889,2.8217 L11.5761778,2.8231 Z M11.8385778,4.6487 L11.8392889,4.6473 C11.843572,4.64705597 11.8476944,4.64894039 11.8502685,4.65231895 C11.8528427,4.6556975 11.8535261,4.66012084 11.8520889,4.6641 L11.4083556,7.0441 C11.344904,7.37863587 11.0580129,7.62754807 10.7128889,7.6475 L4.89102222,7.6475 C4.73939889,7.64819691 4.59617018,7.57904887 4.50390503,7.46060733 C4.41163989,7.34216579 4.3809578,7.18806308 4.42097778,7.0441 L4.86471111,4.6641 C4.86655499,4.65567861 4.87376882,4.64942963 4.88248889,4.6487 L11.8385778,4.6487 Z" id="形状_1_拷贝"></path>
                </g>
            </g>
        </g>
    </g>
</svg>