<?xml version="1.0" encoding="UTF-8"?>
<svg width="16px" height="16px" viewBox="0 0 16 16" version="1.1" xmlns="http://www.w3.org/2000/svg" xmlns:xlink="http://www.w3.org/1999/xlink">
    <!-- Generator: Sketch 49.3 (51167) - http://www.bohemiancoding.com/sketch -->
    <title>ag_cz</title>
    <desc>Created with Sketch.</desc>
    <defs></defs>
    <g id="Page-1" stroke="none" stroke-width="1" fill="none" fill-rule="evenodd">
        <g id="图标编码" transform="translate(-511.000000, -760.000000)">
            <g id="Repeat-Group" transform="translate(-1.000000, 537.000000)"></g>
            <g id="Repeat-Group-Copy" transform="translate(1750.000000, 2288.000000) rotate(90.000000) translate(-1750.000000, -2288.000000) translate(-1.000000, 537.000000)"></g>
            <g id="icon/16*16/有借" transform="translate(511.000000, 760.000000)" fill="#999999">
                <g id="未标题-1-copy" transform="translate(1.000000, 0.000000)">
                    <path d="M5.77348487,10.1923532 C6.68380198,9.91510393 7.39623562,9.20267028 7.67348487,8.29235317 C7.79890353,8.74492663 8.04501544,9.1548827 8.38548487,9.47835317 C8.70898705,9.81878306 9.1189314,10.0648879 9.57148487,10.1903532 C9.13867875,10.358801 8.73763865,10.5995603 8.38548487,10.9023532 C8.082692,11.254507 7.84193268,11.6555471 7.67348487,12.0883532 C7.55994181,11.6307767 7.3119532,11.2176946 6.96148487,10.9023532 C6.64462798,10.5523559 6.23011744,10.3053912 5.77148487,10.1933532 L5.77348487,10.1923532 Z M12.2988933,13.6070292 C12.2974754,13.6084959 12.2960381,13.6099373 12.2945812,13.6113532 C9.85981498,16.3850628 5.69286547,16.7993959 2.7595676,14.5594502 C1.29291648,13.4394756 0.385214237,11.8472447 0.0985178241,10.150109 C-0.188177354,8.4529843 0.146126042,6.6509462 1.16348487,5.11135317 L1.19448487,5.06635317 C1.21081622,5.04435585 1.22698094,5.02185864 1.24297904,4.99886155 C1.25898774,4.97586355 1.27482473,4.95235847 1.29049498,4.92835317 L4.227518,0.677353173 C4.24351812,0.654353173 4.25751823,0.632353173 4.27551837,0.608353173 C4.67585088,0.0543165494 5.40559648,-0.150103919 6.03548778,0.115334471 L6.06748487,0.129353173 L6.08248487,0.136353173 C6.38918493,0.276440936 6.62330641,0.538431522 6.72816345,0.858891361 C6.83301786,1.17934316 6.79905457,1.52904516 6.63449725,1.82333103 C6.58488723,1.90344569 6.58207379,2.00403117 6.62716883,2.08677372 C6.67226387,2.16951626 6.75831989,2.22166827 6.85253856,2.22335317 L6.86753868,2.22335317 C7.16688964,2.22322506 7.45513867,2.10999801 7.67454501,1.90635317 C7.83556707,1.76234444 8.02365101,1.65255973 8.22734471,1.58312733 C8.26552988,1.57009081 8.30427076,1.55849249 8.34348487,1.54835317 C8.81160033,1.40865265 9.31625845,1.4634441 9.74348487,1.70035317 C9.76173547,1.70931851 9.77968307,1.7186614 9.79732252,1.728368 C9.82564748,1.74397516 9.85317717,1.76052051 9.87989028,1.77794673 C10.3965518,2.11452304 10.6080412,2.78045341 10.3604849,3.36135317 C10.3528057,3.38307264 10.348512,3.40552291 10.3475041,3.42798067 C10.3456996,3.47782539 10.360067,3.52760124 10.3895163,3.56939978 C10.4326277,3.63058974 10.5027159,3.6670977 10.5775678,3.66735317 C10.5898783,3.66841639 10.6022575,3.66841639 10.614568,3.66735317 C11.1013819,3.55841879 11.6099776,3.60278083 12.0705795,3.79435317 C12.4621668,3.93590551 12.752386,4.27033195 12.837375,4.6779498 C12.8548192,4.76161416 12.8631055,4.84590716 12.8626436,4.92952125 C12.8624818,4.94778886 12.8619938,4.96602429 12.8610925,4.98421419 C12.8455104,5.28839318 12.714347,5.57969619 12.4875827,5.79435317 C12.4576228,5.83283629 12.4409791,5.87916732 12.4388727,5.92659726 C12.4374275,5.95383413 12.440777,5.98146521 12.4491531,6.00820982 C12.4719003,6.08084112 12.5288255,6.13769591 12.6014849,6.16035317 C13.3215882,6.39979188 13.8312541,7.01798951 13.948766,7.74212916 C13.9655645,7.84551197 13.97433,7.95117829 13.9745944,8.05835317 C13.9745947,8.05921977 13.9745944,8.06008632 13.9745936,8.06095283 C13.9746422,8.11149303 13.9727862,8.1623366 13.9689696,8.21339972 C13.900441,9.13026625 13.2173739,9.88317319 12.3114849,10.0403532 L12.3004849,10.0403532 L12.2854849,10.0403532 C11.7386068,10.1434068 11.2082581,9.79514453 11.0854849,9.25235317 C10.7921384,8.16988812 10.004139,7.28992454 8.96048487,6.87935317 L8.94348487,6.87135317 L8.81548487,6.82635317 L8.78048487,6.81335317 L8.66448487,6.77735317 L8.61448487,6.76335317 L8.50848487,6.73535317 L8.44348487,6.72135317 L8.34348487,6.70035317 L8.27148487,6.68635317 L8.18148487,6.67135317 L8.09248487,6.66035317 L8.01248487,6.65035317 L7.90448487,6.63335317 L7.83948487,6.63335317 C7.78048487,6.63335317 7.72248487,6.63335317 7.66348487,6.63335317 C6.36547391,6.57932462 5.14220548,7.24082318 4.47678419,8.35660365 C3.81136291,9.47238412 3.81077297,10.863055 4.47524737,11.9793997 C5.13972177,13.0957443 6.36242854,13.7582805 7.66048487,13.7053532 C7.73048487,13.7053532 7.79948487,13.6993532 7.86748487,13.6993532 L7.93148487,13.6993532 C7.97848487,13.6963532 8.02648487,13.6923532 8.07348487,13.6863532 L8.14348487,13.6773532 C8.19215154,13.6713532 8.2398182,13.6626865 8.28648487,13.6513532 L8.34848487,13.6403532 C8.40715154,13.6283532 8.46515154,13.6153532 8.52248487,13.6013532 L8.54248487,13.6013532 C8.60848487,13.5843532 8.67348487,13.5653532 8.73748487,13.5453532 L8.77748487,13.5313532 C8.82748487,13.5146865 8.87715154,13.4970198 8.92648487,13.4783532 L8.97748487,13.4583532 C9.02415154,13.4396865 9.07048487,13.4200198 9.11648487,13.3993532 L9.16048487,13.3793532 C9.21648487,13.3533532 9.27148487,13.3260198 9.32548487,13.2973532 L9.33548487,13.2923532 C9.45546475,13.2280701 9.57165585,13.1569531 9.68348487,13.0793532 L9.70848487,13.0613532 C9.7558182,13.0306865 9.80248487,12.9973532 9.84848487,12.9613532 L9.87148487,12.9433532 C10.0316711,12.8157375 10.1805558,12.674548 10.3164849,12.5213532 L10.3214849,12.5153532 C10.3641515,12.4666865 10.4058182,12.4166865 10.4464849,12.3653532 L10.4574849,12.3513532 C10.4988182,12.2986865 10.5388182,12.2446865 10.5774849,12.1893532 C10.8145658,11.8318563 11.2348721,11.6410006 11.6600649,11.6977673 C12.0852577,11.754534 12.4407738,12.0489684 12.5757653,12.45614 C12.7101087,12.8613569 12.6025938,13.3075122 12.2988933,13.6070292 Z" id="_1.svg"></path>
                </g>
            </g>
        </g>
    </g>
</svg>