<?xml version="1.0" encoding="UTF-8"?>
<svg width="16px" height="16px" viewBox="0 0 16 16" version="1.1" xmlns="http://www.w3.org/2000/svg" xmlns:xlink="http://www.w3.org/1999/xlink">
    <!-- Generator: Sketch 49.3 (51167) - http://www.bohemiancoding.com/sketch -->
    <title>ah_cz</title>
    <desc>Created with Sketch.</desc>
    <defs>
        <path d="M8,13.6 C11.0927946,13.6 13.6,11.0927946 13.6,8 C13.6,4.9072054 11.0927946,2.4 8,2.4 C4.9072054,2.4 2.4,4.9072054 2.4,8 C2.4,11.0927946 4.9072054,13.6 8,13.6 Z M8,15.2 C4.0235498,15.2 0.8,11.9764502 0.8,8 C0.8,4.0235498 4.0235498,0.8 8,0.8 C11.9764502,0.8 15.2,4.0235498 15.2,8 C15.2,11.9764502 11.9764502,15.2 8,15.2 Z M7.2,2.4 L8.8,2.4 L8.8,4.8 L7.2,4.8 L7.2,2.4 Z M7.2,11.2 L8.8,11.2 L8.8,13.6 L7.2,13.6 L7.2,11.2 Z M6.4,6.4 L6.4,9.6 L9.6,9.6 L9.6,6.4 L6.4,6.4 Z M5.6,4.8 L10.4,4.8 C10.8418278,4.8 11.2,5.1581722 11.2,5.6 L11.2,10.4 C11.2,10.8418278 10.8418278,11.2 10.4,11.2 L5.6,11.2 C5.1581722,11.2 4.8,10.8418278 4.8,10.4 L4.8,5.6 C4.8,5.1581722 5.1581722,4.8 5.6,4.8 Z" id="path-1"></path>
    </defs>
    <g id="Page-1" stroke="none" stroke-width="1" fill="none" fill-rule="evenodd">
        <g id="图标编码" transform="translate(-580.000000, -769.000000)">
            <g id="Repeat-Group" transform="translate(-1.000000, 537.000000)"></g>
            <g id="Repeat-Group-Copy" transform="translate(1750.000000, 2288.000000) rotate(90.000000) translate(-1750.000000, -2288.000000) translate(-1.000000, 537.000000)"></g>
            <g id="icon/16*16/ah" transform="translate(580.000000, 769.000000)">
                <mask id="mask-2" fill="white">
                    <use xlink:href="#path-1"></use>
                </mask>
                <use id="Combined-Shape" fill="#999999" fill-rule="nonzero" xlink:href="#path-1"></use>
                <g id="外围组件/颜色/60灰" mask="url(#mask-2)" fill="#999999" fill-rule="evenodd">
                    <g transform="translate(-139.200000, -244.800000)" id="Rectangle-15">
                        <rect x="0" y="0" width="300" height="534"></rect>
                    </g>
                </g>
            </g>
        </g>
    </g>
</svg>