<?xml version="1.0" encoding="UTF-8"?>
<svg width="16px" height="16px" viewBox="0 0 16 16" version="1.1" xmlns="http://www.w3.org/2000/svg" xmlns:xlink="http://www.w3.org/1999/xlink">
    <!-- Generator: Sketch 49.3 (51167) - http://www.bohemiancoding.com/sketch -->
    <title>ai_cz</title>
    <desc>Created with Sketch.</desc>
    <defs></defs>
    <g id="Page-1" stroke="none" stroke-width="1" fill="none" fill-rule="evenodd">
        <g id="图标编码" transform="translate(-680.000000, -773.000000)">
            <g id="Repeat-Group" transform="translate(-1.000000, 537.000000)"></g>
            <g id="Repeat-Group-Copy" transform="translate(1750.000000, 2288.000000) rotate(90.000000) translate(-1750.000000, -2288.000000) translate(-1.000000, 537.000000)"></g>
            <g id="icon/20*20/ah-copy" transform="translate(680.000000, 773.000000)" fill="#999999">
                <g id="玖富超能" transform="translate(1.600000, 2.400000)">
                    <g id="Group-3">
                        <path d="M6.00127766,3.21079951 C5.4411409,2.25053382 4.24084786,1.41037558 2.96050403,1.53038926 C1.64016606,1.65041856 0.399878877,2.73063541 0.0797851038,4.13100855 C0.0398065934,4.33105739 -0.24029304,5.65139536 0.559949206,6.81164737 C1.24011526,7.73185641 2.48040244,8.09199121 2.48040244,8.09199121 C2.48040244,8.09199121 1.24011526,8.89217094 0.960015629,9.77240147 C0.439919902,11.4128176 2.24035946,11.3327668 2.76043956,11.1726965 C5.08100611,10.6125597 7.56165861,5.89143834 6.00127766,3.21079951 Z M4.04078339,6.81164737 C3.1605685,6.81164737 2.48040244,6.05146178 2.48040244,5.13125275 C2.48040244,4.21104371 3.1605685,3.45084249 4.04078339,3.45084249 C4.92099829,3.45084249 5.60116435,4.21104371 5.60116435,5.13125275 C5.60116435,6.09150281 4.88095726,6.81164737 4.04078339,6.81164737 Z M10.8024498,3.81091477 C13.1630105,3.13076435 12.7628816,0.010002442 12.7628816,0.010002442 C12.0827155,1.49034823 10.2822916,1.93045568 8.72191062,2.13052015 C7.52161758,2.29059048 6.84145153,2.9707409 6.60140855,3.37080733 C6.80147302,3.89094994 6.92148669,4.49108083 6.92148669,5.13125275 C8.48186764,4.17098706 9.00201026,4.33105739 10.8024498,3.81091477 Z" id="Fill-1"></path>
                    </g>
                    <path d="M7.20152381,5.9714735 C7.08149451,5.9714735 6.92148669,6.01146764 6.80147302,6.09150281 C6.68144371,6.9717177 6.36134994,7.85194823 5.96123663,8.61207131 C5.76117216,10.8126242 8.56190281,11.2527316 8.56190281,11.2527316 C8.56190281,11.2527316 6.64138706,8.45206349 9.0420044,7.93192088 C10.0822271,7.6918779 11.9227077,6.73161221 12.28278,4.13100855 C12.28278,4.13100855 11.0424928,5.85145983 7.20152381,5.9714735 Z" id="Fill-4"></path>
                </g>
            </g>
        </g>
    </g>
</svg>