<?xml version="1.0" encoding="UTF-8"?>
<svg width="24px" height="24px" viewBox="0 0 24 24" version="1.1" xmlns="http://www.w3.org/2000/svg" xmlns:xlink="http://www.w3.org/1999/xlink">
    <!-- Generator: Sketch 49.3 (51167) - http://www.bohemiancoding.com/sketch -->
    <title>ab_aq</title>
    <desc>Created with Sketch.</desc>
    <defs>
        <path d="M12,5.00020313 C11.2658722,5.00020313 11,4.7339688 11,4 L11,1 L15,5 L12,5.00020313 Z M15,18 C15,18.6685393 14.7007032,19 14,19 L2,19 C1.30012409,19 1,18.6685393 1,18 L1,2 C1,1.33224998 1.30012409,1 2,1 L10,1 L10,4 C10,5.33628935 10.6002482,5.85736837 12,5.85736837 L15,5.85736837 L15,18 Z M11.0768,0 L2,0 C0.6464,0 0,0.624416007 0,2 L0,18 C0,19.375584 0.6464,20 2,20 L14,20 C15.3536,20 16,19.375584 16,18 L16,5.00020313 L11.0768,0 Z" id="path-1"></path>
        <path d="M0.571959146,0 L7.42804085,0 C7.77047354,0 8,0.250325098 8,0.5 C8,0.799739922 7.77047354,1 7.42804085,1 L0.571959146,1 C0.228783658,1 0,0.799739922 0,0.5 C0,0.199609883 0.228783658,0 0.571959146,0 Z M0.571959146,4 L7.42804085,4 C7.77047354,4 8,4.2503251 8,4.5006502 C8,4.80039012 7.77047354,5 7.42804085,5 L0.571959146,5 C0.228783658,5 0,4.80039012 0,4.5006502 C0,4.20026008 0.228783658,4 0.571959146,4 Z" id="path-3"></path>
    </defs>
    <g id="Page-1" stroke="none" stroke-width="1" fill="none" fill-rule="evenodd">
        <g id="图标编码" transform="translate(-168.000000, -630.000000)">
            <g id="Repeat-Group" transform="translate(-1.000000, 537.000000)"></g>
            <g id="Repeat-Group-Copy" transform="translate(1750.000000, 2288.000000) rotate(90.000000) translate(-1750.000000, -2288.000000) translate(-1.000000, 537.000000)"></g>
            <g id="icon/24*24/账单" transform="translate(168.000000, 630.000000)">
                <g id="Group" transform="translate(4.000000, 2.000000)">
                    <g id="外围组件/图标辅助色">
                        <mask id="mask-2" fill="white">
                            <use xlink:href="#path-1"></use>
                        </mask>
                        <use id="Mask" fill="#D8D8D8" xlink:href="#path-1"></use>
                        <g id="外围组件/颜色/图标辅助色" mask="url(#mask-2)" fill="#514353">
                            <g transform="translate(-165.000000, -296.000000)" id="Rectangle-15">
                                <rect x="0" y="0" width="375" height="667"></rect>
                            </g>
                        </g>
                    </g>
                    <g id="外围组件/主色" transform="translate(4.000000, 8.000000)">
                        <mask id="mask-4" fill="white">
                            <use xlink:href="#path-3"></use>
                        </mask>
                        <use id="Mask" fill="#E72427" xlink:href="#path-3"></use>
                        <g id="外围组件/颜色/主色" mask="url(#mask-4)" fill="#E72427">
                            <g transform="translate(-176.000000, -308.000000)" id="Rectangle-15">
                                <rect x="0" y="0" width="375" height="667"></rect>
                            </g>
                        </g>
                    </g>
                </g>
            </g>
        </g>
    </g>
</svg>