<?xml version="1.0" encoding="UTF-8"?>
<svg width="24px" height="24px" viewBox="0 0 24 24" version="1.1" xmlns="http://www.w3.org/2000/svg" xmlns:xlink="http://www.w3.org/1999/xlink">
    <!-- Generator: Sketch 49.3 (51167) - http://www.bohemiancoding.com/sketch -->
    <title>ac_aq</title>
    <desc>Created with Sketch.</desc>
    <defs>
        <path d="M7.88170306,3 L7.63044613,3 C7.62188754,2.98875163 7.61330507,2.97752065 7.60469894,2.96630727 C8.68824802,1.57597852 10.1177276,0.496258479 11.3882231,0.136885826 C12.3406214,-0.128499296 13.2066601,-0.00310697284 13.8910181,0.50447428 C14.7220243,1.11597657 14.9501436,1.8949549 14.9957675,2.44032562 C15.0316148,2.87146909 14.836084,3.40309819 14.5484907,4 L13.6294956,4 C13.6869353,3.88863171 13.7481851,3.76759718 13.8082619,3.6433503 L14.5484907,4 L14.5484907,3 L14.0848167,3 C14.1532638,2.80617325 14.194198,2.63474713 14.1843144,2.51590456 C14.14032,1.98685202 13.8845005,1.54712004 13.4241882,1.20873253 C12.9418788,0.851450298 12.310477,0.768141699 11.5984188,0.967395254 C10.3616861,1.31694783 8.87728102,2.53136389 7.88170306,4 L7.11831799,4 C6.12192532,2.53136389 4.63833492,1.31694783 3.40241695,0.967395254 C2.69035873,0.764706293 2.058957,0.849732595 1.57664754,1.20787368 C1.11633531,1.54712004 0.860515768,1.98685202 0.816521325,2.51590456 C0.808443982,2.61340084 0.824190929,2.76555928 0.894230302,3 L0.3977594,3 L0.3977594,4 L1.15018192,3.66443647 C1.19677463,3.76807466 1.24936153,3.87972831 1.30860732,4 L0.3977594,4 C0.0963159916,3.32408385 -0.0275202196,2.82766766 0.00506825707,2.44032562 C0.0506921243,1.8949549 0.278811461,1.11597657 1.1090029,0.503615429 C1.79417562,-0.00396582437 2.6610291,-0.131075851 3.61342733,0.136885826 C4.88218722,0.496213914 6.31065596,1.57490518 7.39558684,2.96571387 C7.38683154,2.97712444 7.37810081,2.98855323 7.36939495,3 L7.11831799,3 L7.11831799,3.34513825 C7.09667344,3.37627918 7.07522125,3.40752895 7.05396641,3.43888322 L7.11831799,3.4825067 L7.11831799,4 L7.49985441,3.74114752 L7.88170306,4 L7.88170306,3.48208322 L7.94584137,3.43856874 C7.92465532,3.40734149 7.90327424,3.37621807 7.88170306,3.34520286 L7.88170306,3 Z M6.70125075,2.50139126 L7.01056754,2.50132459 C7.18055692,2.69440323 7.34437247,2.89522568 7.50041788,3.10250015 C7.65636082,2.89517587 7.82013638,2.69427949 7.99013956,2.50111347 L8.29932582,2.50104683 C8.2525135,2.43886621 8.20507166,2.37721321 8.15703115,2.31611408 C9.14773214,1.24470752 10.3237765,0.437975452 11.3882231,0.136885826 C12.3406214,-0.128499296 13.2066601,-0.00310697284 13.8910181,0.50447428 C14.7220243,1.11597657 14.9501436,1.8949549 14.9957675,2.44032562 C15.0316148,2.87146909 14.836084,3.40309819 14.5484907,4 L13.6294956,4 C13.882871,3.50873693 14.2103852,2.82938537 14.1843144,2.51590456 C14.14032,1.98685202 13.8845005,1.54712004 13.4241882,1.20873253 C12.9418788,0.851450298 12.310477,0.768141699 11.5984188,0.967395254 C10.3616861,1.31694783 8.87728102,2.53136389 7.88170306,4 L7.11831799,4 C6.12192532,2.53136389 4.63833492,1.31694783 3.40241695,0.967395254 C2.69035873,0.764706293 2.058957,0.849732595 1.57664754,1.20787368 C1.11633531,1.54712004 0.860515768,1.98685202 0.816521325,2.51590456 C0.800227087,2.71258156 0.880883566,3.13170111 1.30860732,4 L0.3977594,4 C0.0963159916,3.32408385 -0.0275202196,2.82766766 0.00506825707,2.44032562 C0.0506921243,1.8949549 0.278811461,1.11597657 1.1090029,0.503615429 C1.79417562,-0.00396582437 2.6610291,-0.131075851 3.61342733,0.136885826 C4.67670953,0.438020157 5.85215927,1.24438132 6.84357436,2.31627162 C6.79551934,2.37743314 6.74806785,2.43914849 6.70125075,2.50139126 Z" id="path-1"></path>
        <path d="M3,6 C2.44771525,6 2,6.44771525 2,7 L2,14 C2,14.5522847 2.44771525,15 3,15 L16,15 C16.5522847,15 17,14.5522847 17,14 L17,7 C17,6.44771525 16.5522847,6 16,6 L3,6 Z M3,5 L16,5 C17.1045695,5 18,5.8954305 18,7 L18,14 C18,15.1045695 17.1045695,16 16,16 L3,16 C1.8954305,16 1,15.1045695 1,14 L1,7 C1,5.8954305 1.8954305,5 3,5 Z M2,1 C1.44771525,1 1,1.44771525 1,2 L1,4 C1,4.55228475 1.44771525,5 2,5 L17,5 C17.5522847,5 18,4.55228475 18,4 L18,2 C18,1.44771525 17.5522847,1 17,1 L2,1 Z M2,0 L17,0 C18.1045695,0 19,0.8954305 19,2 L19,4 C19,5.1045695 18.1045695,6 17,6 L2,6 C0.8954305,6 1.3527075e-16,5.1045695 0,4 L0,2 C-1.3527075e-16,0.8954305 0.8954305,0 2,0 Z" id="path-3"></path>
    </defs>
    <g id="Page-1" stroke="none" stroke-width="1" fill="none" fill-rule="evenodd">
        <g id="图标编码" transform="translate(-244.000000, -630.000000)">
            <g id="Repeat-Group" transform="translate(-1.000000, 537.000000)"></g>
            <g id="Repeat-Group-Copy" transform="translate(1750.000000, 2288.000000) rotate(90.000000) translate(-1750.000000, -2288.000000) translate(-1.000000, 537.000000)"></g>
            <g id="icon/24*24/活动中心" transform="translate(244.000000, 630.000000)">
                <g id="外围组件/主色" transform="translate(5.000000, 2.000000)">
                    <mask id="mask-2" fill="white">
                        <use xlink:href="#path-1"></use>
                    </mask>
                    <use id="Mask" fill="#E72427" fill-rule="nonzero" xlink:href="#path-1"></use>
                    <g id="外围组件/颜色/主色" mask="url(#mask-2)" fill="#E72427">
                        <g transform="translate(-169.000000, -307.000000)" id="Rectangle-15">
                            <rect x="0" y="0" width="375" height="667"></rect>
                        </g>
                    </g>
                </g>
                <g id="外围组件/图标辅助色" transform="translate(3.000000, 5.000000)">
                    <mask id="mask-4" fill="white">
                        <use xlink:href="#path-3"></use>
                    </mask>
                    <use id="Mask" fill="#514353" fill-rule="nonzero" xlink:href="#path-3"></use>
                    <g id="外围组件/颜色/图标辅助色" mask="url(#mask-4)" fill="#514353">
                        <g transform="translate(-171.000000, -313.000000)" id="Rectangle-15">
                            <rect x="0" y="0" width="375" height="667"></rect>
                        </g>
                    </g>
                </g>
            </g>
        </g>
    </g>
</svg>