<?xml version="1.0" encoding="UTF-8"?>
<svg width="24px" height="24px" viewBox="0 0 24 24" version="1.1" xmlns="http://www.w3.org/2000/svg" xmlns:xlink="http://www.w3.org/1999/xlink">
    <!-- Generator: Sketch 49.3 (51167) - http://www.bohemiancoding.com/sketch -->
    <title>ad_aq</title>
    <desc>Created with Sketch.</desc>
    <defs>
        <path d="M2,1 C1.44771525,1 1,1.48502485 1,2.08333333 L1,12.9166667 C1,13.5149751 1.44771525,14 2,14 L18,14 C18.5522847,14 19,13.5149751 19,12.9166667 L19,2.08333333 C19,1.48502485 18.5522847,1 18,1 L2,1 Z M2,0 L18,0 C19.1045695,0 20,0.959389822 20,2.14285714 L20,12.8571429 C20,14.0406102 19.1045695,15 18,15 L2,15 C0.8954305,15 0,14.0406102 0,12.8571429 L0,2.14285714 C-2.22044605e-16,0.959389822 0.8954305,0 2,0 Z" id="path-1"></path>
        <path d="M0.5,5 L7.5,5 C7.77614237,5 8,5.22385763 8,5.5 C8,5.77614237 7.77614237,6 7.5,6 L0.5,6 C0.223857625,6 3.38176876e-17,5.77614237 0,5.5 C-3.38176876e-17,5.22385763 0.223857625,5 0.5,5 Z M0.5,9 L7.5,9 C7.77614237,9 8,9.22385763 8,9.5 C8,9.77614237 7.77614237,10 7.5,10 L0.5,10 C0.223857625,10 3.38176876e-17,9.77614237 0,9.5 C-3.38176876e-17,9.22385763 0.223857625,9 0.5,9 Z M14,1.13686838e-13 L14,4.68535099 C13.9999785,4.79210959 13.9527334,4.89157313 13.8744692,4.94955255 C13.7962049,5.00752584 13.6976314,5.01609922 13.6126171,4.97233502 L12.3269227,4.31153918 C12.2552798,4.27463983 12.1732863,4.27463983 12.1016487,4.31153918 L10.8159275,4.97233502 C10.73094,5.01609922 10.6323451,5.00752584 10.5541023,4.94955255 C10.475838,4.89157313 10.4285714,4.79210959 10.4285714,4.68535099 L10.4285714,1.13686838e-13 L14,1.13686838e-13 Z" id="path-3"></path>
    </defs>
    <g id="Page-1" stroke="none" stroke-width="1" fill="none" fill-rule="evenodd">
        <g id="图标编码" transform="translate(-316.000000, -632.000000)">
            <g id="Repeat-Group" transform="translate(-1.000000, 537.000000)"></g>
            <g id="Repeat-Group-Copy" transform="translate(1750.000000, 2288.000000) rotate(90.000000) translate(-1750.000000, -2288.000000) translate(-1.000000, 537.000000)"></g>
            <g id="icon/24*24/推荐办卡" transform="translate(316.000000, 632.000000)">
                <g id="Group" transform="translate(2.000000, 5.000000)">
                    <g id="外围组件/图标辅助色">
                        <mask id="mask-2" fill="white">
                            <use xlink:href="#path-1"></use>
                        </mask>
                        <use id="Combined-Shape" fill="#979797" fill-rule="nonzero" xlink:href="#path-1"></use>
                        <g id="外围组件/颜色/图标辅助色" mask="url(#mask-2)" fill="#514353">
                            <g transform="translate(-173.000000, -331.000000)" id="Rectangle-15">
                                <rect x="0" y="0" width="375" height="667"></rect>
                            </g>
                        </g>
                    </g>
                    <g id="外围组件/图标辅助色" transform="translate(3.000000, 1.000000)">
                        <mask id="mask-4" fill="white">
                            <use xlink:href="#path-3"></use>
                        </mask>
                        <use id="Combined-Shape" fill="#D8D8D8" xlink:href="#path-3"></use>
                        <g id="外围组件/颜色/主色" mask="url(#mask-4)" fill="#E72427">
                            <g transform="translate(-3.000000, -1.000000)" id="Rectangle-15">
                                <rect x="0" y="0" width="375" height="667"></rect>
                            </g>
                        </g>
                    </g>
                </g>
            </g>
        </g>
    </g>
</svg>