<?xml version="1.0" encoding="UTF-8"?>
<svg width="24px" height="24px" viewBox="0 0 24 24" version="1.1" xmlns="http://www.w3.org/2000/svg" xmlns:xlink="http://www.w3.org/1999/xlink">
    <!-- Generator: Sketch 49.3 (51167) - http://www.bohemiancoding.com/sketch -->
    <title>ae_aq</title>
    <desc>Created with Sketch.</desc>
    <defs>
        <path d="M10,19 C14.9705627,19 19,14.9705627 19,10 C19,5.02943725 14.9705627,1 10,1 C5.02943725,1 1,5.02943725 1,10 C1,14.9705627 5.02943725,19 10,19 Z M10,20 C4.4771525,20 0,15.5228475 0,10 C0,4.4771525 4.4771525,0 10,0 C15.5228475,0 20,4.4771525 20,10 C20,15.5228475 15.5228475,20 10,20 Z" id="path-1"></path>
    </defs>
    <g id="Page-1" stroke="none" stroke-width="1" fill="none" fill-rule="evenodd">
        <g id="图标编码" transform="translate(-375.000000, -633.000000)">
            <g id="Repeat-Group" transform="translate(-1.000000, 537.000000)"></g>
            <g id="Repeat-Group-Copy" transform="translate(1750.000000, 2288.000000) rotate(90.000000) translate(-1750.000000, -2288.000000) translate(-1.000000, 537.000000)"></g>
            <g id="icon/24*24/红包" transform="translate(375.000000, 633.000000)">
                <g id="外围组件/图标辅助色-copy" stroke-width="1" transform="translate(2.000000, 2.000000)">
                    <mask id="mask-2" fill="white">
                        <use xlink:href="#path-1"></use>
                    </mask>
                    <use id="Mask" fill="#514353" fill-rule="nonzero" xlink:href="#path-1"></use>
                    <g id="外围组件/颜色/图标辅助色" mask="url(#mask-2)" fill="#514353">
                        <g transform="translate(-164.000000, -301.000000)" id="Rectangle-15">
                            <rect x="0" y="0" width="375" height="667"></rect>
                        </g>
                    </g>
                </g>
                <path d="M13.4342585,11 L13.672,11 L15.5,11 C15.7761424,11 16,11.2238576 16,11.5 C16,11.7761424 15.7761424,12 15.5,12 L13,12 L13,13 L15.5,13 C15.7761424,13 16,13.2238576 16,13.5 C16,13.7761424 15.7761424,14 15.5,14 L13,14 L13,16.5 C13,16.7761424 12.7761424,17 12.5,17 C12.2238576,17 12,16.7761424 12,16.5 L12,14 L9.5,14 C9.22385763,14 9,13.7761424 9,13.5 C9,13.2238576 9.22385763,13 9.5,13 L12,13 L12,12 L9.5,12 C9.22385763,12 9,11.7761424 9,11.5 C9,11.2238576 9.22385763,11 9.5,11 L11.5657415,11 L10.0839749,8.7773501 C9.93079862,8.54758575 9.99288556,8.23715108 10.2226499,8.08397485 C10.4524142,7.93079862 10.7628489,7.99288556 10.9160251,8.2226499 L12.5,10.5986122 L14.0839749,8.2226499 C14.2371511,7.99288556 14.5475858,7.93079862 14.7773501,8.08397485 C15.0071144,8.23715108 15.0692014,8.54758575 14.9160251,8.7773501 L13.4342585,11 Z" id="Combined-Shape" fill="#E72427"></path>
            </g>
        </g>
    </g>
</svg>