<?xml version="1.0" encoding="UTF-8"?>
<svg width="24px" height="24px" viewBox="0 0 24 24" version="1.1" xmlns="http://www.w3.org/2000/svg" xmlns:xlink="http://www.w3.org/1999/xlink">
    <!-- Generator: Sketch 49.3 (51167) - http://www.bohemiancoding.com/sketch -->
    <title>af_aq</title>
    <desc>Created with Sketch.</desc>
    <defs>
        <path d="M2,1 C1.44771525,1 1,1.48502485 1,2.08333333 L1,12.9166667 C1,13.5149751 1.44771525,14 2,14 L18,14 C18.5522847,14 19,13.5149751 19,12.9166667 L19,2.08333333 C19,1.48502485 18.5522847,1 18,1 L2,1 Z M2,0 L18,0 C19.1045695,0 20,0.959389822 20,2.14285714 L20,12.8571429 C20,14.0406102 19.1045695,15 18,15 L2,15 C0.8954305,15 0,14.0406102 0,12.8571429 L0,2.14285714 C-2.22044605e-16,0.959389822 0.8954305,0 2,0 Z" id="path-1"></path>
        <path d="M0.5,0 L7.5,0 C7.77614237,-5.07265313e-17 8,0.223857625 8,0.5 C8,0.776142375 7.77614237,1 7.5,1 L0.5,1 C0.223857625,1 3.38176876e-17,0.776142375 0,0.5 C-3.38176876e-17,0.223857625 0.223857625,5.07265313e-17 0.5,0 Z M0.5,4 L7.5,4 C7.77614237,4 8,4.22385763 8,4.5 C8,4.77614237 7.77614237,5 7.5,5 L0.5,5 C0.223857625,5 3.38176876e-17,4.77614237 0,4.5 C-3.38176876e-17,4.22385763 0.223857625,4 0.5,4 Z M12.5,8 C11.6715729,8 11,7.32842712 11,6.5 C11,5.67157288 11.6715729,5 12.5,5 C13.3284271,5 14,5.67157288 14,6.5 C14,7.32842712 13.3284271,8 12.5,8 Z" id="path-3"></path>
    </defs>
    <g id="Page-1" stroke="none" stroke-width="1" fill="none" fill-rule="evenodd">
        <g id="图标编码" transform="translate(-454.000000, -635.000000)">
            <g id="Repeat-Group" transform="translate(-1.000000, 537.000000)"></g>
            <g id="Repeat-Group-Copy" transform="translate(1750.000000, 2288.000000) rotate(90.000000) translate(-1750.000000, -2288.000000) translate(-1.000000, 537.000000)"></g>
            <g id="icon/24*24/银行卡信息" transform="translate(454.000000, 635.000000)">
                <g id="Group" transform="translate(2.000000, 5.000000)">
                    <g id="外围组件/图标辅助色">
                        <mask id="mask-2" fill="white">
                            <use xlink:href="#path-1"></use>
                        </mask>
                        <use id="Mask" fill="#979797" fill-rule="nonzero" xlink:href="#path-1"></use>
                        <g id="外围组件/颜色/图标辅助色" mask="url(#mask-2)" fill="#514353">
                            <g transform="translate(-173.000000, -331.000000)" id="Rectangle-15">
                                <rect x="0" y="0" width="375" height="667"></rect>
                            </g>
                        </g>
                    </g>
                    <g id="外围组件/主色" transform="translate(3.000000, 4.000000)">
                        <mask id="mask-4" fill="white">
                            <use xlink:href="#path-3"></use>
                        </mask>
                        <use id="Mask" fill="#D8D8D8" xlink:href="#path-3"></use>
                        <g id="外围组件/颜色/主色" mask="url(#mask-4)" fill="#E72427">
                            <g transform="translate(-185.000000, -338.000000)" id="Rectangle-15">
                                <rect x="0" y="0" width="375" height="667"></rect>
                            </g>
                        </g>
                    </g>
                </g>
            </g>
        </g>
    </g>
</svg>