<?xml version="1.0" encoding="UTF-8"?>
<svg width="24px" height="24px" viewBox="0 0 24 24" version="1.1" xmlns="http://www.w3.org/2000/svg" xmlns:xlink="http://www.w3.org/1999/xlink">
    <!-- Generator: Sketch 49.3 (51167) - http://www.bohemiancoding.com/sketch -->
    <title>ag_aq</title>
    <desc>Created with Sketch.</desc>
    <defs>
        <path d="M17,2.24035795 C17.0006174,1.95429084 16.2736107,1.70135124 16,1.617566 C13.3752215,0.820357951 11.9138065,0.351821038 8.79267897,0.00376734684 C8.75828971,0.000116340126 8.72368568,-0.000850102827 8.68918904,0.00073378979 C7.10696085,0.0832572797 5.62824944,0.282398219 4.29372595,0.592277414 C2.95104139,0.904357951 2.18099329,1.24948547 1,1.617566 C0.728832215,1.70355258 0.0345044762,1.9557405 0.0355514561,2.24035795 C0.0355514561,3.27611634 0.0247595098,4.22953916 0.0157393755,5.11324386 C-0.0660592822,12.6305593 -0.0964753896,15.4432573 7.18435683,19.5141566 C7.78470582,19.8498345 8.041132,20 8.52056824,20 C8.99119912,20 9.66800783,19.8488949 10.255981,19.5269888 C17.5084911,15.5515257 17.1061477,13.2319553 17,5.43246533 C16.9874362,4.43751231 17.0022013,3.3911499 17,2.24035795 Z M8.5476274,19 C8.30107706,19 7.82832998,18.6016734 7.43246421,18.379821 C0.825699107,14.6862371 0.918845638,12.6413781 1,5.11324386 C1.00818792,4.36481433 0.997369128,3.58400896 1,2.72830426 C2.07707383,2.40709621 3.48543065,1.8705056 4.58065213,1.617566 C5.82741723,1.32771366 7.23753803,1.08032215 8.72494743,1 C9.98140906,1.14103457 10.9346367,1.3550767 12,1.617566 C13.3340444,1.94625423 14.7478895,2.34681369 16.0550682,2.72830426 C16.0592562,3.69536466 16.0718468,4.58859956 16.0826387,5.41611634 C16.1847864,12.9828009 16.5676242,14.7809217 10,18.379821 C9.61052349,18.5935392 8.79237908,19 8.5476274,19 Z" id="path-1"></path>
        <path d="M3.97314508,4.38117151 L8.68765248,0.609565595 C8.90328344,0.437060821 9.21792963,0.472021509 9.3904344,0.687652476 C9.56293918,0.903283444 9.52797849,1.21792963 9.31234752,1.3904344 L4.02685492,5.61882849 L0.722649902,3.41602515 C0.492885558,3.26284892 0.430798623,2.95241425 0.583974853,2.7226499 C0.737151082,2.49288556 1.04758575,2.43079862 1.2773501,2.58397485 L3.97314508,4.38117151 Z" id="path-3"></path>
    </defs>
    <g id="Page-1" stroke="none" stroke-width="1" fill="none" fill-rule="evenodd">
        <g id="图标编码" transform="translate(-528.000000, -636.000000)">
            <g id="Repeat-Group" transform="translate(-1.000000, 537.000000)"></g>
            <g id="Repeat-Group-Copy" transform="translate(1750.000000, 2288.000000) rotate(90.000000) translate(-1750.000000, -2288.000000) translate(-1.000000, 537.000000)"></g>
            <g id="icon/24*24/安全设置" transform="translate(528.000000, 636.000000)">
                <g id="外围组件/图标辅助色" transform="translate(3.000000, 2.000000)">
                    <mask id="mask-2" fill="white">
                        <use xlink:href="#path-1"></use>
                    </mask>
                    <use id="Mask" fill="#514353" xlink:href="#path-1"></use>
                    <g id="外围组件/颜色/图标辅助色" mask="url(#mask-2)" fill="#514353">
                        <g transform="translate(-167.000000, -303.000000)" id="Rectangle-15">
                            <rect x="0" y="0" width="375" height="667"></rect>
                        </g>
                    </g>
                </g>
                <g id="外围组件/主色" transform="translate(7.000000, 8.000000)">
                    <g>
                        <mask id="mask-4" fill="white">
                            <use xlink:href="#path-3"></use>
                        </mask>
                        <use id="Mask" fill="#E72427" fill-rule="nonzero" xlink:href="#path-3"></use>
                        <g id="外围组件/颜色/主色" mask="url(#mask-4)" fill="#E72427">
                            <g transform="translate(-185.000000, -308.000000)" id="Rectangle-15">
                                <rect x="0" y="0" width="375" height="667"></rect>
                            </g>
                        </g>
                    </g>
                </g>
            </g>
        </g>
    </g>
</svg>