<?xml version="1.0" encoding="UTF-8"?>
<svg width="24px" height="24px" viewBox="0 0 24 24" version="1.1" xmlns="http://www.w3.org/2000/svg" xmlns:xlink="http://www.w3.org/1999/xlink">
    <!-- Generator: Sketch 49.3 (51167) - http://www.bohemiancoding.com/sketch -->
    <title>ah_aq</title>
    <desc>Created with Sketch.</desc>
    <defs>
        <path d="M5.97915543,3.86471243 C6.18012018,3.50307978 6.28063966,3.10795918 6.28063966,2.67922078 C6.28063966,1.93805195 5.99473985,1.30608534 5.42329272,0.783636364 C4.8515673,0.261261596 4.0857417,0 3.12570459,0 C2.21922964,0 1.4902315,0.243432282 0.938784372,0.730074212 C0.468376209,1.14528757 0.157986599,1.71636364 0.00765264686,2.44333952 C-0.0354456834,2.65178108 0.108227786,2.85274583 0.319582146,2.87788497 L0.848914242,2.94085343 C1.03166007,2.96257885 1.20256916,2.84408163 1.24422036,2.66486085 C1.36607565,2.14046382 1.57128901,1.74333952 1.85976767,1.47363636 C2.20357101,1.15207792 2.63225376,0.991335807 3.14577881,0.991335807 C3.67715172,0.991335807 4.12596434,1.16883117 4.49217955,1.52380334 C4.858302,1.87883117 5.04143743,2.29076067 5.04143743,2.75966605 C5.04143743,3.01868275 4.97882148,3.25762523 4.8538122,3.47627087 C4.72878437,3.69513915 4.45759699,3.98871985 4.04000886,4.3570872 C3.6225135,4.7254731 3.33342259,5.00571429 3.17260626,5.19777365 C2.9538122,5.46128015 2.79524077,5.72246753 2.69711461,5.98131725 C2.56310719,6.32528757 2.49622408,6.7338961 2.49622408,7.20714286 L2.49622408,7.20957328 C2.49631684,7.4080705 2.65761554,7.56884972 2.85609421,7.56884972 L3.31134467,7.56884972 C3.50384931,7.56884972 3.66321851,7.41827458 3.6731814,7.22601113 C3.68915543,6.91760668 3.71878437,6.68358071 3.76208678,6.52393321 C3.82006452,6.3096475 3.90941517,6.11983302 4.02993465,5.95460111 C4.15060255,5.78949907 4.40728159,5.5325974 4.80032426,5.18434137 C5.38516656,4.66632653 5.77819068,4.22656772 5.97915543,3.86471243 M2.42917398,8.97612245 L2.42917398,9.62450835 C2.42917398,9.82463822 2.59141888,9.98688312 2.79154875,9.98688312 L3.43986044,9.98688312 C3.63999031,9.98688312 3.80223521,9.82463822 3.80223521,9.62450835 L3.80223521,8.97612245 C3.80223521,8.77599258 3.63999031,8.61374768 3.43986044,8.61374768 L2.79154875,8.61374768 C2.59141888,8.61374768 2.42917398,8.77599258 2.42917398,8.97612245" id="path-1"></path>
        <path d="M10,19 C14.9705627,19 19,14.9705627 19,10 C19,5.02943725 14.9705627,1 10,1 C5.02943725,1 1,5.02943725 1,10 C1,14.9705627 5.02943725,19 10,19 Z M10,20 C4.4771525,20 0,15.5228475 0,10 C0,4.4771525 4.4771525,0 10,0 C15.5228475,0 20,4.4771525 20,10 C20,15.5228475 15.5228475,20 10,20 Z" id="path-3"></path>
    </defs>
    <g id="Page-1" stroke="none" stroke-width="1" fill="none" fill-rule="evenodd">
        <g id="图标编码" transform="translate(-588.000000, -637.000000)">
            <g id="Repeat-Group" transform="translate(-1.000000, 537.000000)"></g>
            <g id="Repeat-Group-Copy" transform="translate(1750.000000, 2288.000000) rotate(90.000000) translate(-1750.000000, -2288.000000) translate(-1.000000, 537.000000)"></g>
            <g id="icon/24*24/帮助" transform="translate(588.000000, 637.000000)">
                <g id="外围组件/主色" transform="translate(9.000000, 7.000000)">
                    <mask id="mask-2" fill="white">
                        <use xlink:href="#path-1"></use>
                    </mask>
                    <use id="Mask" fill="#E72427" xlink:href="#path-1"></use>
                    <g id="外围组件/颜色/主色" mask="url(#mask-2)" fill="#E72427">
                        <g transform="translate(-165.000000, -306.000000)" id="Rectangle-15">
                            <rect x="0" y="0" width="375" height="667"></rect>
                        </g>
                    </g>
                </g>
                <g id="外围组件/图标辅助色" transform="translate(2.000000, 2.000000)">
                    <mask id="mask-4" fill="white">
                        <use xlink:href="#path-3"></use>
                    </mask>
                    <use id="Mask" fill="#514353" fill-rule="nonzero" xlink:href="#path-3"></use>
                    <g id="外围组件/颜色/图标辅助色" mask="url(#mask-4)" fill="#514353">
                        <g transform="translate(-162.000000, -301.000000)" id="Rectangle-15">
                            <rect x="0" y="0" width="375" height="667"></rect>
                        </g>
                    </g>
                </g>
            </g>
        </g>
    </g>
</svg>