<?xml version="1.0" encoding="UTF-8"?>
<svg width="24px" height="24px" viewBox="0 0 24 24" version="1.1" xmlns="http://www.w3.org/2000/svg" xmlns:xlink="http://www.w3.org/1999/xlink">
    <!-- Generator: Sketch 49.3 (51167) - http://www.bohemiancoding.com/sketch -->
    <title>ai_aq</title>
    <desc>Created with Sketch.</desc>
    <defs>
        <path d="M0,3.21096013 C1.44978975,4.26114165 2.635432,4.47669811 4.54595268,4.47669811 C6.83326626,4.47669811 10.5199679,1.74574123 11.1867352,1.25288066 C12.1405143,0.482380304 13.3604514,0.0389555997 14.6347178,6.13238451e-06 C15.6395333,-0.00149192405 15.8601247,0.271505529 16.6904283,0.78633759 L15.9860685,1.5225713 C15.7770641,1.38869009 15.4492248,1.17979367 15.3679771,1.13697604 C15.1772159,1.03644469 15.0113728,0.999445697 14.6652697,0.999539313 C13.6070662,1.03188456 12.5974772,1.39876428 11.7811517,2.05703802 C11.4623878,2.29266169 11.2305598,2.46038313 10.8967053,2.69165863 C10.3998335,3.0358633 9.88885222,3.36941914 9.36780656,3.68341353 C8.69363459,4.08968545 8.03818298,4.44153002 7.41051477,4.72457657 C6.340495,5.20710127 5.38636519,5.47669811 4.54595268,5.47669811 C3.37078306,5.47669811 2.19853724,5.25090661 1.10628639,4.84272048 C0.399813533,4.24903695 0.477316151,3.99748246 0,3.21096013 Z" id="path-1"></path>
        <path d="M12.633237,0 C11.0573468,0 9.51959136,0.172121422 8.03749193,0.493689589 C8.03646126,0.493689589 7.84166516,0.538008279 7.84166516,0.538008279 C3.0830747,1.52847946 -0.41913245,5.94385774 0.0405451218,11.0920404 C0.450750667,15.6908775 4.14672325,19.4775488 8.73525362,19.9856677 C9.11453915,20.027925 9.49073268,20.0485384 9.86177287,20.0485384 C15.3078184,20.0485384 19.722166,15.6331601 19.722166,10.1871146 C19.722166,9.89749712 19.7077366,9.61097164 19.6830006,9.32753816 C20.0828995,8.69986184 20.6270918,7.42080384 20.6209078,6.86218222 C20.6126624,6.12834717 18.9460736,6.44373134 18.9388589,6.19740188 C18.9337056,6.02528045 20.2179169,4.75240646 19.7829753,4.12473014 C19.675786,3.96909939 19.3418498,3.92375003 18.9656563,3.92375003 C18.4410466,3.92375003 17.836045,4.01135674 17.6422796,4.01135674 C17.6062062,4.01135674 17.5845622,4.00826474 17.5794089,4.00105007 C17.5629182,3.97631406 19.6417739,1.06261788 18.6760388,0.857515111 C18.5801867,0.836901767 18.4874267,0.802889749 18.390544,0.777123069 C16.5580177,0.271065474 14.6265473,0 12.633237,0 M17.743285,1.6717422 C17.6010529,1.98197303 17.2712865,2.44375628 16.8280525,3.25793902 C16.5359704,3.79446859 16.5068373,4.29130179 16.7270471,4.58028504 C17.1337869,5.11405335 18.1030001,4.84306551 18.520408,4.97296924 C18.6564561,5.29185469 17.6674867,6.40286812 17.8758503,6.76887927 C18.2005462,7.33923937 18.8141482,7.13133929 19.4696525,7.35587181 C19.295812,8.0692046 19.0584163,8.38963101 18.8141482,8.77303921 C18.6914988,8.96474331 18.6368734,9.19045942 18.6564561,9.41617554 C18.6801614,9.69445569 18.6914988,9.94696915 18.6914988,10.1871146 C18.6914988,15.0559865 14.7306447,19.0178712 9.86177287,19.0178712 C9.52680603,19.0178712 9.18565519,18.9993192 8.84965768,18.9611845 C4.77749157,18.5107829 1.43194584,15.0879371 1.06708965,11.000311 C0.668221447,6.52412338 3.670555,2.45917194 8.06738128,1.54393947 L8.25599338,1.50168211 C9.69480479,1.18835928 11.1676282,1.0306672 12.633237,1.0306672 C14.3616659,1.0306672 16.0777268,1.24504598 17.743285,1.6717422 Z" id="path-3"></path>
    </defs>
    <g id="Page-1" stroke="none" stroke-width="1" fill="none" fill-rule="evenodd">
        <g id="图标编码" transform="translate(-668.000000, -634.000000)">
            <g id="Repeat-Group" transform="translate(-1.000000, 537.000000)"></g>
            <g id="Repeat-Group-Copy" transform="translate(1750.000000, 2288.000000) rotate(90.000000) translate(-1750.000000, -2288.000000) translate(-1.000000, 537.000000)"></g>
            <g id="icon/24*24/关于我们" transform="translate(668.000000, 634.000000)">
                <g id="外围组件/主色" stroke-width="1" transform="translate(4.000000, 14.000000)">
                    <mask id="mask-2" fill="white">
                        <use xlink:href="#path-1"></use>
                    </mask>
                    <use id="Mask" fill="#E72427" fill-rule="nonzero" xlink:href="#path-1"></use>
                    <g id="外围组件/颜色/主色" mask="url(#mask-2)" fill="#E72427">
                        <g transform="translate(-168.000000, -316.000000)" id="Rectangle-15">
                            <rect x="0" y="0" width="375" height="667"></rect>
                        </g>
                    </g>
                </g>
                <g id="外围组件/图标辅助色" stroke-width="1" transform="translate(2.000000, 2.000000)">
                    <mask id="mask-4" fill="white">
                        <use xlink:href="#path-3"></use>
                    </mask>
                    <use id="Mask" fill="#514353" xlink:href="#path-3"></use>
                    <g id="外围组件/颜色/图标辅助色" mask="url(#mask-4)" fill="#514353">
                        <g transform="translate(-150.000000, -316.000000)" id="Rectangle-15">
                            <rect x="0" y="0" width="375" height="667"></rect>
                        </g>
                    </g>
                </g>
                <path d="M14.2621348,11.2243028 L13.935781,11.5506566 L12.6038612,10.2187368 C12.3122328,9.92710834 11.8412023,9.92710834 11.5496974,10.2186132 L10.218313,11.5510055 C9.92715024,11.8415461 9.92715024,12.3130462 10.2187858,12.6040593 L11.5492246,13.9355067 C11.8409332,14.226592 12.3125018,14.226592 12.6038612,13.9358556 L13.935781,12.6039357 C14.2264012,12.3133156 14.2264012,11.8412768 13.935781,11.5506566 L14.2621348,11.2243028 Z M14.1853208,11.1473552 L14.5116746,10.8210015 C15.1627751,11.472102 15.1627751,12.528595 14.5116746,13.1796956 L13.1794055,14.5119643 C12.5273768,15.1625997 11.4724302,15.1625997 10.8199288,14.5114919 L9.48948998,13.1800445 C8.83691549,12.5288644 8.83691549,11.4718327 9.4890172,10.8211251 L10.8200523,9.48908164 C11.4721612,8.83697279 12.5276459,8.83697279 13.1797547,9.48908164 L14.5116746,10.8210015 L14.1853208,11.1473552 Z" id="Combined-Shape" fill="#E72427"></path>
            </g>
        </g>
    </g>
</svg>