<?xml version="1.0" encoding="UTF-8"?>
<svg width="24px" height="24px" viewBox="0 0 24 24" version="1.1" xmlns="http://www.w3.org/2000/svg" xmlns:xlink="http://www.w3.org/1999/xlink">
    <!-- Generator: Sketch 49.3 (51167) - http://www.bohemiancoding.com/sketch -->
    <title>aj_aj</title>
    <desc>Created with Sketch.</desc>
    <defs>
        <path d="M1.10235632,5 C1.05634754,5.01852525 1.01491059,5.05816107 1.00019264,5.08791359 L0.999879923,18.0250917 C1.01105968,17.9664499 7.00092581,17.9582157 18.9694783,18.000389 C18.9416869,17.9995491 18.9517953,16.9994195 18.9998036,15 L14.9999014,15 C13.3617979,15 11.4999503,13.5196584 11.4999503,11.5 C11.4999503,9.46988785 13.3225108,8 14.9999014,8 L18.9998036,8 L18.9998231,4.99999985 C18.9900832,5.03576097 13.0242609,5.03576103 1.10235632,5 Z M19.000078,4.97657285 C18.9979637,4.99217202 18.9970977,4.99998107 18.9974801,5 C18.9989149,4.99372582 18.9998571,4.98600065 19.000078,4.97657285 Z M0.875833963,4.02431018 L0.873830818,4.01662874 L16.2376743,0.0144542989 C16.9592742,-0.0762012364 17.3805349,0.266265603 17.5520072,0.853861213 C17.5733554,0.927016254 17.5900743,0.997775424 17.6135886,1.10310946 C17.6232262,1.14370309 17.6232262,1.14370309 17.6331618,1.17986839 L18.3841567,4 L18.9998231,4 C19.4843745,4.01135402 20.0110314,4.52086457 19.9998036,5 L19.9998036,9 L14.9999014,9 C14.1331049,9 12.4999503,9.83333333 12.4999503,11.5 C12.4999503,13.1666667 14.1923821,14 14.9999014,14 L19.9998036,14 L19.9998036,18 C20.0117307,18.4828016 19.4782853,18.9866503 18.9998231,19 L1.00017521,19 C0.543818137,18.9866503 -0.011923349,18.4828016 0.000194768637,18 L0.000194768637,5 C0.0487247529,4.54042718 0.415953848,4.14130545 0.875833963,4.02431018 Z M4.90052975,4 L17.3493284,4 L16.6695913,1.4471243 C16.6527085,1.38526564 16.6527085,1.38526564 16.639589,1.32965936 C16.614797,1.21992473 16.6049046,1.1780575 16.5920469,1.13399714 C16.5478096,0.982406264 16.5488175,0.983225682 16.4261692,0.994374125 L4.90052975,4 Z M15.5,13 C14.6715729,13 14,12.3284271 14,11.5 C14,10.6715729 14.6715729,10 15.5,10 C16.3284271,10 17,10.6715729 17,11.5 C17,12.3284271 16.3284271,13 15.5,13 Z" id="path-1"></path>
    </defs>
    <g id="Page-1" stroke="none" stroke-width="1" fill="none" fill-rule="evenodd">
        <g id="图标编码" transform="translate(-739.000000, -622.000000)">
            <g id="Repeat-Group" transform="translate(-1.000000, 537.000000)"></g>
            <g id="Repeat-Group-Copy" transform="translate(1750.000000, 2288.000000) rotate(90.000000) translate(-1750.000000, -2288.000000) translate(-1.000000, 537.000000)"></g>
            <g id="icon/24*24/贷款/常规" transform="translate(739.000000, 622.000000)">
                <g id="外围组件//60灰" transform="translate(2.000000, 3.000000)">
                    <mask id="mask-2" fill="white">
                        <use xlink:href="#path-1"></use>
                    </mask>
                    <use id="Mask" fill="#979797" fill-rule="nonzero" xlink:href="#path-1"></use>
                    <g id="外围组件/颜色/60灰" mask="url(#mask-2)" fill="#999999">
                        <g transform="translate(-166.000000, -311.000000)" id="Rectangle-15">
                            <rect x="0" y="0" width="375" height="667"></rect>
                        </g>
                    </g>
                </g>
            </g>
        </g>
    </g>
</svg>