<?xml version="1.0" encoding="UTF-8"?>
<svg width="24px" height="24px" viewBox="0 0 24 24" version="1.1" xmlns="http://www.w3.org/2000/svg" xmlns:xlink="http://www.w3.org/1999/xlink">
    <!-- Generator: Sketch 49.3 (51167) - http://www.bohemiancoding.com/sketch -->
    <title>aj_ar</title>
    <desc>Created with Sketch.</desc>
    <defs>
        <linearGradient x1="-16.9168289%" y1="50%" x2="77.9437074%" y2="50%" id="linearGradient-1">
            <stop stop-color="#1C1C1E" offset="0%"></stop>
            <stop stop-color="#514353" offset="100%"></stop>
        </linearGradient>
    </defs>
    <g id="Page-1" stroke="none" stroke-width="1" fill="none" fill-rule="evenodd">
        <g id="图标编码" transform="translate(-738.000000, -654.000000)">
            <g id="Repeat-Group" transform="translate(-1.000000, 537.000000)"></g>
            <g id="Repeat-Group-Copy" transform="translate(1750.000000, 2288.000000) rotate(90.000000) translate(-1750.000000, -2288.000000) translate(-1.000000, 537.000000)"></g>
            <g id="icon/24*24/贷款/选中" transform="translate(738.000000, 654.000000)">
                <path d="M21.9998036,8 C22.0110314,7.52086457 21.4843745,7.01135402 20.9998231,7 L3.00017521,7 C2.48357329,7.07101114 2.05302725,7.49968307 2.00019477,8 L2.00019477,21 C1.98807665,21.4828016 2.54381814,21.9866503 3.00017521,22 L20.9998231,22 C21.4782853,21.9866503 22.0117307,21.4828016 21.9998036,21 L21.9998036,17 L16.9999014,17 C16.1665843,17 14.4999503,16.1666667 14.4999503,14.5 C14.4999503,12.8333333 16.1665843,12 16.9999014,12 L21.9998036,12 L21.9998036,8 Z" id="钱包1.svg" fill="url(#linearGradient-1)"></path>
                <circle id="Oval" fill="#E72427" cx="17.5" cy="14.5" r="1.5"></circle>
                <path d="M20,7 L19.15,3.80808506 C19.0614812,3.50124543 19.0484437,2.91607838 18.3,3.01010632 L3,7 L20,7 Z" id="钱包3.svg" fill="#E72427"></path>
            </g>
        </g>
    </g>
</svg>