<?xml version="1.0" encoding="UTF-8"?>
<svg width="24px" height="24px" viewBox="0 0 24 24" version="1.1" xmlns="http://www.w3.org/2000/svg" xmlns:xlink="http://www.w3.org/1999/xlink">
    <!-- Generator: Sketch 49.3 (51167) - http://www.bohemiancoding.com/sketch -->
    <title>al_aj</title>
    <desc>Created with Sketch.</desc>
    <defs>
        <path d="M17.9636392,0.991578912 C17.9606898,1.00866124 17.9363361,1.02697273 17.8755883,1.06455354 L14.1664645,3.35106662 C14.0495917,3.42300506 14.0027658,3.49738497 14.0001225,3.56003387 C13.9975051,3.6216085 14.0380029,3.69979154 14.1475522,3.78098738 L14.8834315,4.32402677 L15.8723382,5.05444766 L16.4550635,5.4849373 C16.5370531,5.54545376 16.6082909,5.57038304 16.6635998,5.57038304 C16.7455492,5.57038304 16.8131612,5.51289617 16.8534485,5.34670598 L17.8932125,1.06581649 C17.9095386,0.998721453 17.9169963,0.963680665 17.9212613,0.94656227 L17.9636392,0.991578912 Z M15.1108095,5.73517357 L11.4160251,11.2773501 C11.2410044,11.5398813 10.8695552,11.576662 10.6464466,11.3535534 L8.03359918,8.74070596 L3.38411064,14.3200922 C3.19588639,14.5459613 2.85434709,14.5614539 2.64644661,14.3535534 L1,12.7071068 L1,17.023 C1,17.562 1.438,18 1.977,18 L16.023,18 C16.563,18 17,17.562 17,17.023 C17,11.3363333 17,8.49166667 17,8.489 C17,8.213 17.224,7.989 17.5,7.989 C17.776,7.989 18,8.213 18,8.5 L18,17.023 C18,18.115 17.115,19 16.023,19 L1.977,19 C0.885,19 -1.77635684e-15,18.115 -1.77635684e-15,17.023 L-1.77635684e-15,2.976 C-1.77635684e-15,1.885 0.885,1 1.977,1 C7.66166667,1.00066667 10.5046667,1.001 10.506,1.001 C10.782,1.001 11.006,1.224 11.006,1.501 C11.006,1.777 10.782,2.001 10.484,2 L1.977,2 C1.438,2 1,2.437 1,2.976 L1,11.5 C1.12796116,11.5 1.25592232,11.5488155 1.35355339,11.6464466 L2.96640082,13.259294 L7.61588936,7.6799078 C7.80411361,7.4540387 8.14565291,7.43854613 8.35355339,7.64644661 L10.9222876,10.2151808 L14.3055009,5.1403609 L14.2893088,5.12840122 L13.5537776,4.58561877 C13.1856068,4.31274681 12.9837481,3.92398739 13.0010248,3.51756299 C13.0181709,3.11116456 13.2515514,2.73996621 13.6422787,2.49946272 L17.3508292,0.213302743 C17.8778628,-0.112746003 18.4229834,-0.053776148 18.7137614,0.313577475 C18.8504598,0.486070797 18.9876809,0.79749398 18.8648615,1.30224477 L17.825196,5.58272889 C17.6797939,6.18253285 17.2236187,6.57038304 16.6635998,6.57038304 C16.3877462,6.57038304 16.1103243,6.47338153 15.8612092,6.28950988 L15.2782155,5.85882211 L15.1108095,5.73517357 Z" id="path-1"></path>
    </defs>
    <g id="Page-1" stroke="none" stroke-width="1" fill="none" fill-rule="evenodd">
        <g id="图标编码" transform="translate(-871.000000, -622.000000)">
            <g id="Repeat-Group" transform="translate(-1.000000, 537.000000)"></g>
            <g id="Repeat-Group-Copy" transform="translate(1750.000000, 2288.000000) rotate(90.000000) translate(-1750.000000, -2288.000000) translate(-1.000000, 537.000000)"></g>
            <g id="icon/24*24/提额/常规" transform="translate(871.000000, 622.000000)">
                <g id="外围组件//60灰" transform="translate(3.000000, 3.000000)">
                    <mask id="mask-2" fill="white">
                        <use xlink:href="#path-1"></use>
                    </mask>
                    <use id="Mask" fill="#979797" fill-rule="nonzero" xlink:href="#path-1"></use>
                    <g id="外围组件/颜色/60灰" mask="url(#mask-2)" fill="#999999">
                        <g transform="translate(-165.000000, -307.000000)" id="Rectangle-15">
                            <rect x="0" y="0" width="375" height="667"></rect>
                        </g>
                    </g>
                </g>
            </g>
        </g>
    </g>
</svg>