<?xml version="1.0" encoding="UTF-8"?>
<svg width="24px" height="24px" viewBox="0 0 24 24" version="1.1" xmlns="http://www.w3.org/2000/svg" xmlns:xlink="http://www.w3.org/1999/xlink">
    <!-- Generator: Sketch 49.3 (51167) - http://www.bohemiancoding.com/sketch -->
    <title>am_aj</title>
    <desc>Created with Sketch.</desc>
    <defs>
        <path d="M5.33012626,3.40900082 C4.6835895,4.90045065 5.00395323,6.63485163 6.14062136,7.79690991 C7.27728371,8.95896227 9.00414595,9.31753152 10.5094654,8.70406793 C12.0147901,8.09060215 12.9991459,6.62712107 12.9998486,4.99333722 C13.0186603,2.81466143 11.2733559,1.03037155 9.08662119,1.00094634 C7.46148278,0.965732011 5.97666061,1.91755654 5.33012626,3.40900082 Z M4.41262492,3.01126814 C5.22079694,1.14695338 7.07684035,-0.042837352 9.10828462,0.00118102042 C11.8371582,0.0378591571 14.0233754,2.27291063 13.9998113,5.0019714 C13.9989795,7.03392396 12.7685299,8.86328258 10.88686,9.63012045 C9.00519019,10.3969583 6.84658806,9.9487417 5.42574798,8.49616382 C4.00490789,7.04358594 3.60445289,4.8755829 4.41262492,3.01126814 Z M17,18.1483254 C17,14.9401267 14.3903482,12 11.3684211,12 L6.63157895,12 C3.60965176,12 1,14.9401267 1,18.1483254 L1,18.55311 C1,18.5550887 1.24267804,18.6994516 2.12798106,18.8298058 C3.09009334,18.9714696 4.1203388,19 6.81063158,19 L11.1893684,19 C13.6898331,19 14.8673861,18.9624313 15.850037,18.8141804 C16.3817203,18.7339662 16.7563239,18.6254961 16.9592573,18.5073038 C16.9817162,18.4942233 16.9938462,18.4898622 17,18.4914624 L17,18.1483254 Z M6.63157895,11 L11.3684211,11 C15.1143158,11 18,14.5741627 18,18.1483254 L18,18.55311 C18,19.9569378 14.9347895,20 11.1893684,20 L6.81063158,20 C3.01594737,20 0,20 0,18.55311 L0,18.1483254 C0,14.5741627 2.88568421,11 6.63157895,11 Z M8.53017198,16.8025054 L7.14062896,15.2668929 C7.02844657,15.1450549 6.97990018,14.9849805 7.00764561,14.828117 L8,11 L9.00148732,11 L8.25232828,14.7513791 L9.00148732,15.5630924 L9.75064636,14.7403324 L9.00148732,11 L10,11 L10.9952966,14.8390754 C11.0159677,14.9887806 10.9679406,15.1395168 10.8623132,15.255964 L9.46060116,16.8025054 C9.34436241,16.9294101 9.17120497,17.0019061 8.98944807,16.9999619 C8.81184487,16.9986952 8.64387956,16.9264349 8.53017198,16.8025054 Z" id="path-1"></path>
    </defs>
    <g id="Page-1" stroke="none" stroke-width="1" fill="none" fill-rule="evenodd">
        <g id="图标编码" transform="translate(-955.000000, -619.000000)">
            <g id="Repeat-Group" transform="translate(-1.000000, 537.000000)"></g>
            <g id="Repeat-Group-Copy" transform="translate(1750.000000, 2288.000000) rotate(90.000000) translate(-1750.000000, -2288.000000) translate(-1.000000, 537.000000)"></g>
            <g id="icon/24*24/我的/常规" transform="translate(955.000000, 619.000000)">
                <g id="外围组件//60灰" transform="translate(3.000000, 2.000000)">
                    <mask id="mask-2" fill="white">
                        <use xlink:href="#path-1"></use>
                    </mask>
                    <use id="Mask" fill="#999999" fill-rule="nonzero" xlink:href="#path-1"></use>
                    <g id="外围组件/颜色/60灰" mask="url(#mask-2)" fill="#999999">
                        <g transform="translate(-166.000000, -310.000000)" id="Rectangle-15">
                            <rect x="0" y="0" width="375" height="667"></rect>
                        </g>
                    </g>
                </g>
            </g>
        </g>
    </g>
</svg>