<?xml version="1.0" encoding="UTF-8"?>
<svg width="24px" height="24px" viewBox="0 0 24 24" version="1.1" xmlns="http://www.w3.org/2000/svg" xmlns:xlink="http://www.w3.org/1999/xlink">
    <!-- Generator: Sketch 49.3 (51167) - http://www.bohemiancoding.com/sketch -->
    <title>am_ar</title>
    <desc>Created with Sketch.</desc>
    <defs>
        <linearGradient x1="-16.9168289%" y1="50%" x2="77.9437074%" y2="50%" id="linearGradient-1">
            <stop stop-color="#1C1C1E" offset="0%"></stop>
            <stop stop-color="#514353" offset="100%"></stop>
        </linearGradient>
    </defs>
    <g id="Page-1" stroke="none" stroke-width="1" fill="none" fill-rule="evenodd">
        <g id="图标编码" transform="translate(-953.000000, -648.000000)">
            <g id="Repeat-Group" transform="translate(-1.000000, 537.000000)"></g>
            <g id="Repeat-Group-Copy" transform="translate(1750.000000, 2288.000000) rotate(90.000000) translate(-1750.000000, -2288.000000) translate(-1.000000, 537.000000)"></g>
            <g id="icon/24*24/我的/选中" transform="translate(953.000000, 648.000000)">
                <path d="M12.1082846,2.00118102 C10.0768404,1.95716265 8.22079694,3.14695338 7.41262492,5.01126814 C6.60445289,6.8755829 7.00490789,9.04358594 8.42574798,10.4961638 C9.84658806,11.9487417 12.0051902,12.3969583 13.88686,11.6301205 C15.7685299,10.8632826 16.9989795,9.03392396 16.9998113,7.0019714 C17.0233754,4.27291063 14.8371582,2.03785916 12.1082846,2.00118102 Z M9.63157895,13 C5.88568421,13 3,16.5741627 3,20.1483254 L3,20.55311 C3,22 6.01594737,22 9.81063158,22 L14.1893684,22 C17.9347895,22 21,21.9569378 21,20.55311 L21,20.1483254 C21,16.5741627 18.1143158,13 14.3684211,13 L13.8947368,13 L9.63157895,13 Z" id="_1.svg" fill="url(#linearGradient-1)"></path>
                <path d="M11.530172,18.8025054 L10.140629,17.2668929 C10.0284466,17.1450549 9.97990018,16.9849805 10.0076456,16.828117 L11,13 L11.9894481,13 L12.0014873,13 L13,13 L13.9952966,16.8390754 C14.0159677,16.9887806 13.9679406,17.1395168 13.8623132,17.255964 L12.4606012,18.8025054 C12.3443624,18.9294101 12.171205,19.0019061 11.9894481,18.9999619 C11.8118449,18.9986952 11.6438796,18.9264349 11.530172,18.8025054 Z" id="Fill-1" fill="#E72427"></path>
            </g>
        </g>
    </g>
</svg>