<?xml version="1.0" encoding="UTF-8"?>
<svg width="24px" height="24px" viewBox="0 0 24 24" version="1.1" xmlns="http://www.w3.org/2000/svg" xmlns:xlink="http://www.w3.org/1999/xlink">
    <!-- Generator: Sketch 49.3 (51167) - http://www.bohemiancoding.com/sketch -->
    <title>an_ao</title>
    <desc>Created with Sketch.</desc>
    <defs>
        <path d="M18.0000293,1 L2.00222354,1 C1.44993879,1 1.00222354,1.44771525 1.00222354,2 L1.00222354,17.0664212 L4.99085006,14.9912128 L18.0000293,14.9912128 C18.552314,14.9912128 19.0000293,14.5434975 19.0000293,13.9912128 L19.0000293,2 C19.0000293,1.44771525 18.552314,1 18.0000293,1 Z M4.99085006,15.9739159 L0,19 L2.92884798e-05,2 C2.92884798e-05,1.04801627 0.481900193,0 1.97697995,0 L18.0000293,0 C19.1176416,0 20.0000293,0.942240699 20.0000293,2 L20.0000293,14.0412655 C20.0000293,14.511362 19.7732003,15.0685184 19.3999382,15.4263344 C19.0070358,15.8029781 18.5147957,15.9739159 18.0000293,15.9739159 L4.99085006,15.9739159 Z M5,9 C5.55228475,9 6,8.55228475 6,8 C6,7.44771525 5.55228475,7 5,7 C4.44771525,7 4,7.44771525 4,8 C4,8.55228475 4.44771525,9 5,9 Z M10,9 C10.5522847,9 11,8.55228475 11,8 C11,7.44771525 10.5522847,7 10,7 C9.44771525,7 9,7.44771525 9,8 C9,8.55228475 9.44771525,9 10,9 Z M15,9 C15.5522847,9 16,8.55228475 16,8 C16,7.44771525 15.5522847,7 15,7 C14.4477153,7 14,7.44771525 14,8 C14,8.55228475 14.4477153,9 15,9 Z" id="path-1"></path>
    </defs>
    <g id="Page-1" stroke="none" stroke-width="1" fill="none" fill-rule="evenodd">
        <g id="图标编码" transform="translate(-1012.000000, -632.000000)">
            <g id="Repeat-Group" transform="translate(-1.000000, 537.000000)"></g>
            <g id="Repeat-Group-Copy" transform="translate(1750.000000, 2288.000000) rotate(90.000000) translate(-1750.000000, -2288.000000) translate(-1.000000, 537.000000)"></g>
            <g id="icon/24*24/消息白色" transform="translate(1012.000000, 632.000000)">
                <g id="白色" transform="translate(2.000000, 3.000000)">
                    <mask id="mask-2" fill="white">
                        <use xlink:href="#path-1"></use>
                    </mask>
                    <use id="Mask" fill="#666666" xlink:href="#path-1"></use>
                    <g id="外围组件/颜色/白色" mask="url(#mask-2)" fill="#FFFFFF">
                        <g transform="translate(-160.000000, -306.000000)" id="Rectangle-15">
                            <rect x="0" y="0" width="375" height="667"></rect>
                        </g>
                    </g>
                </g>
            </g>
        </g>
    </g>
</svg>