<?xml version="1.0" encoding="UTF-8"?>
<svg width="12px" height="12px" viewBox="0 0 12 12" version="1.1" xmlns="http://www.w3.org/2000/svg" xmlns:xlink="http://www.w3.org/1999/xlink">
    <!-- Generator: Sketch 49.3 (51167) - http://www.bohemiancoding.com/sketch -->
    <title>aa_cl</title>
    <desc>Created with Sketch.</desc>
    <defs></defs>
    <g id="Page-1" stroke="none" stroke-width="1" fill="none" fill-rule="evenodd">
        <g id="图标编码" transform="translate(-78.000000, -762.000000)">
            <g id="Repeat-Group" transform="translate(-1.000000, 537.000000)"></g>
            <g id="Repeat-Group-Copy" transform="translate(1750.000000, 2288.000000) rotate(90.000000) translate(-1750.000000, -2288.000000) translate(-1.000000, 537.000000)"></g>
            <g id="icon/16*16/清除" transform="translate(78.000000, 762.000000)">
                <circle id="Oval-4" fill="#D8D8D8" fill-rule="evenodd" cx="6" cy="6" r="4.5"></circle>
                <path d="M5.67857143,5.67857143 L5.67857143,4.07142857 C5.67857143,3.89390847 5.8224799,3.75 6,3.75 C6.1775201,3.75 6.32142857,3.89390847 6.32142857,4.07142857 L6.32142857,5.67857143 L7.92857143,5.67857143 C8.10609153,5.67857143 8.25,5.8224799 8.25,6 C8.25,6.1775201 8.10609153,6.32142857 7.92857143,6.32142857 L6.32142857,6.32142857 L6.32142857,7.92857143 C6.32142857,8.10609153 6.1775201,8.25 6,8.25 C5.8224799,8.25 5.67857143,8.10609153 5.67857143,7.92857143 L5.67857143,6.32142857 L4.07142857,6.32142857 C3.89390847,6.32142857 3.75,6.1775201 3.75,6 C3.75,5.8224799 3.89390847,5.67857143 4.07142857,5.67857143 L5.67857143,5.67857143 Z" id="Combined-Shape" fill="#FFFFFF" fill-rule="nonzero" transform="translate(6.000000, 6.000000) rotate(-315.000000) translate(-6.000000, -6.000000) "></path>
            </g>
        </g>
    </g>
</svg>