<?xml version="1.0" encoding="UTF-8"?>
<svg width="16px" height="16px" viewBox="0 0 16 16" version="1.1" xmlns="http://www.w3.org/2000/svg" xmlns:xlink="http://www.w3.org/1999/xlink">
    <!-- Generator: Sketch 49.3 (51167) - http://www.bohemiancoding.com/sketch -->
    <title>ab_cv</title>
    <desc>Created with Sketch.</desc>
    <defs></defs>
    <g id="Page-1" stroke="none" stroke-width="1" fill="none" fill-rule="evenodd">
        <g id="图标编码" transform="translate(-172.000000, -780.000000)">
            <g id="Repeat-Group" transform="translate(-1.000000, 537.000000)"></g>
            <g id="Repeat-Group-Copy" transform="translate(1750.000000, 2288.000000) rotate(90.000000) translate(-1750.000000, -2288.000000) translate(-1.000000, 537.000000)"></g>
            <g id="icon/16*16/loading" transform="translate(172.000000, 780.000000)" fill="">
                <path d="M8.00081063,16 C6.92097993,16 5.87246085,15.7890427 4.88640872,15.3718742 C3.93317227,14.9687292 3.07846094,14.3906816 2.34397604,13.6562471 C1.60949115,12.9219298 1.03136899,12.0672218 0.628185579,11.1140565 C0.210977377,10.1281178 0,9.07969858 0,8.00004883 C0,7.68907189 0.251567229,7.43754814 0.562573783,7.43754814 C0.873502205,7.43754814 1.12514757,7.68907189 1.12514757,8.00004883 C1.12514757,8.92815543 1.30635645,9.82811747 1.66580517,10.6765951 C2.01267456,11.495307 2.5080153,12.2312259 3.13934571,12.8624962 C3.77065659,13.4937665 4.50666507,13.9906421 5.3255331,14.335955 C6.17247025,14.6937679 7.07251798,14.8750572 8.00081063,14.8750572 C8.9290056,14.8750572 9.82905334,14.6937679 10.6776313,14.3344511 C11.4964212,13.9875171 12.2323906,13.492243 12.8637405,12.8609532 C13.4950319,12.2297024 13.9919743,11.493764 14.3373201,10.6749935 C14.6951671,9.82811747 14.8764737,8.92815543 14.8764737,8.00004883 C14.8764737,7.07184457 14.6951671,6.17188253 14.3357965,5.32342447 C13.988849,4.50471253 13.4935083,3.77029757 12.8621779,3.13752336 C12.230867,2.50625306 11.4948585,2.00935792 10.6760295,1.664045 C9.82905334,1.30623206 8.9290056,1.12504044 8.00081063,1.12504044 C7.68980407,1.12504044 7.43823684,0.873438566 7.43823684,0.562520218 C7.43823684,0.251543276 7.68980407,0 8.00081063,0 C9.08054366,0 10.1291018,0.210957289 11.1151149,0.628125767 C12.0683513,1.03127079 12.9231603,1.6093379 13.6575475,2.34375286 C14.3920324,3.07816782 14.968631,3.93439933 15.3718144,4.88594346 C15.7890226,5.8719017 16,6.92032095 16,8.00004883 C16,9.07969858 15.7890226,10.1281178 15.3718144,11.1140565 C14.9701546,12.0672218 14.3920324,12.9219298 13.6575475,13.6562471 C12.9231603,14.3906816 12.0668277,14.9672058 11.1151149,15.3703703 C10.1291018,15.7890427 9.08054366,16 8.00081063,16" id="Fill-1"></path>
            </g>
        </g>
    </g>
</svg>