<?xml version="1.0" encoding="UTF-8"?>
<svg width="16px" height="16px" viewBox="0 0 16 16" version="1.1" xmlns="http://www.w3.org/2000/svg" xmlns:xlink="http://www.w3.org/1999/xlink">
    <!-- Generator: Sketch 49.3 (51167) - http://www.bohemiancoding.com/sketch -->
    <title>ac_cl</title>
    <desc>Created with Sketch.</desc>
    <defs></defs>
    <g id="Page-1" stroke="none" stroke-width="1" fill="none" fill-rule="evenodd">
        <g id="图标编码" transform="translate(-246.000000, -785.000000)">
            <g id="Repeat-Group" transform="translate(-1.000000, 537.000000)"></g>
            <g id="Repeat-Group-Copy" transform="translate(1750.000000, 2288.000000) rotate(90.000000) translate(-1750.000000, -2288.000000) translate(-1.000000, 537.000000)"></g>
            <g id="icon/16*16/取消2" transform="translate(246.000000, 785.000000)" fill="#CCCCCC">
                <path d="M8.5,7.5 L12.5,7.5 C12.7761424,7.5 13,7.72385763 13,8 C13,8.27614237 12.7761424,8.5 12.5,8.5 L8.5,8.5 L8.5,12.5 C8.5,12.7761424 8.27614237,13 8,13 C7.72385763,13 7.5,12.7761424 7.5,12.5 L7.5,8.5 L3.5,8.5 C3.22385763,8.5 3,8.27614237 3,8 C3,7.72385763 3.22385763,7.5 3.5,7.5 L7.5,7.5 L7.5,3.5 C7.5,3.22385763 7.72385763,3 8,3 C8.27614237,3 8.5,3.22385763 8.5,3.5 L8.5,7.5 Z" id="Combined-Shape" transform="translate(8.000000, 8.000000) rotate(-315.000000) translate(-8.000000, -8.000000) "></path>
            </g>
        </g>
    </g>
</svg>