<?xml version="1.0" encoding="UTF-8"?>
<svg width="24px" height="24px" viewBox="0 0 24 24" version="1.1" xmlns="http://www.w3.org/2000/svg" xmlns:xlink="http://www.w3.org/1999/xlink">
    <!-- Generator: Sketch 49.3 (51167) - http://www.bohemiancoding.com/sketch -->
    <title>aa_ap</title>
    <desc>Created with Sketch.</desc>
    <defs>
        <path d="M12.8654523,0 C14.8954022,0 16.8623755,0.270409212 18.728586,0.77524162 C18.8272495,0.800945918 18.9217146,0.834875591 19.0193286,0.855439029 C20.0028152,1.06004524 17.8857474,3.96668723 17.9025412,3.99136336 C17.9077893,3.99856056 17.9298311,4.00164508 17.9665675,4.00164508 C18.1638946,4.00164508 18.780017,3.91425046 19.3142696,3.91425046 C19.6973781,3.91425046 20.0374524,3.95949003 20.1466121,4.11474399 C20.5895484,4.74090068 19.2817316,6.01069299 19.2869797,6.1823977 C19.294327,6.42813078 20.9915499,6.11351018 20.9999468,6.84556858 C21.0062445,7.40283775 20.4520492,8.6787991 20.0447997,9.30495579 C20.0699904,9.58770306 20.084685,9.87353486 20.084685,10.1624512 C20.084685,15.5953115 15.5891959,20 10.043045,20 C9.66518466,20 9.2820762,19.9794366 8.89581891,19.9372815 C4.2229454,19.4303928 0.459036049,15.6528892 0.0412903937,11.0651861 C-0.426836648,5.92946741 3.13974561,1.52477894 7.98580514,0.536705737 C7.98580514,0.536705737 8.18418184,0.492494345 8.18523145,0.492494345 C9.6945738,0.171704709 11.2605952,0 12.8654523,0 Z M18.0694295,1.66769484 C16.3732562,1.24203167 14.6256519,1.02817191 12.8654523,1.02817191 C11.3729037,1.02817191 9.87300787,1.18548221 8.40774924,1.49804647 L8.21567021,1.54020152 C3.73802456,2.45321818 0.680504224,6.50832819 1.08670414,10.9736788 C1.45826686,15.0514086 4.86530806,18.4659675 9.01232587,18.9152786 C9.35449944,18.953321 9.70192108,18.9718281 10.043045,18.9718281 C15.0014131,18.9718281 19.0350728,15.0195353 19.0350728,10.1624512 C19.0350728,9.92288711 19.023527,9.67098499 18.999386,9.39337857 C18.9794433,9.16820892 19.0350728,8.94303928 19.1599766,8.7517993 C19.4087347,8.36931935 19.650494,8.0496687 19.82753,7.33806292 C19.1599766,7.11407401 18.5350958,7.32147075 18.2044317,6.75249152 C17.992238,6.3873665 18.999386,5.27904288 18.8608371,4.96092947 C18.4357567,4.83134023 17.4487281,5.10167201 17.0345119,4.56919597 C16.8102544,4.28091236 16.839923,3.78528202 17.1373739,3.25005141 C17.5887552,2.43783984 17.9245831,1.97717458 18.0694295,1.66769484 Z M10.301433,8.12535811 C10.1342889,7.95821396 9.86541323,7.95821396 9.69853678,8.12509032 L8.12460144,9.70021655 C7.95846619,9.86599681 7.95846619,10.1348969 8.1256258,10.3017008 L9.69751242,11.8747797 C9.86483029,12.0417401 10.1348718,12.0417401 10.301433,11.8755356 L11.8755356,10.301433 C12.0414881,10.1354805 12.0414881,9.86541323 11.8755356,9.69946069 L10.301433,8.12535811 Z M11.0085398,7.41825133 L12.5826424,8.9923539 C13.1391192,9.54883074 13.1391192,10.452063 12.5826424,11.0085398 L11.0085398,12.5826424 C10.4508714,13.1391192 9.54883074,13.1391192 8.99116231,12.5826424 L7.41825133,11.0085398 C6.86058289,10.452063 6.86058289,9.54883074 7.41825133,8.9923539 L8.99116231,7.41825133 C9.54883074,6.86058289 10.4508714,6.86058289 11.0085398,7.41825133 Z M2.6802328,15.2109601 C4.13002255,16.2611417 5.3156648,16.4766981 7.22618548,16.4766981 C9.51349906,16.4766981 13.2002007,13.7457412 13.866968,13.2528807 C14.8207471,12.4823803 16.0406842,12.0389556 17.3149506,12.0000061 C18.3197661,11.9985081 18.5403575,12.2715055 19.3706611,12.7863376 L18.6663013,13.5225713 C18.4572969,13.3886901 18.1294576,13.1797937 18.0482099,13.136976 C17.8574487,13.0364447 17.6916056,12.9994457 17.3455025,12.9995393 C16.287299,13.0318846 15.27771,13.3987643 14.4613845,14.057038 C14.1426206,14.2926617 13.9107926,14.4603831 13.5769381,14.6916586 C13.0800663,15.0358633 12.569085,15.3694191 12.0480394,15.6834135 C11.3738674,16.0896854 10.7184158,16.44153 10.0907476,16.7245766 C9.0207278,17.2071013 8.06659799,17.4766981 7.22618548,17.4766981 C6.05101586,17.4766981 4.87877004,17.2509066 3.78651919,16.8427205 C3.08004633,16.249037 3.15754895,15.9974825 2.6802328,15.2109601 Z" id="path-1"></path>
    </defs>
    <g id="Page-1" stroke="none" stroke-width="1" fill="none" fill-rule="evenodd">
        <g id="图标编码" transform="translate(-75.000000, -655.000000)">
            <g id="Repeat-Group" transform="translate(-1.000000, 537.000000)"></g>
            <g id="Repeat-Group-Copy" transform="translate(1750.000000, 2288.000000) rotate(90.000000) translate(-1750.000000, -2288.000000) translate(-1.000000, 537.000000)"></g>
            <g id="icon/24*24/logo" transform="translate(75.000000, 655.000000)">
                <g id="白色" transform="translate(2.000000, 2.000000)">
                    <mask id="mask-2" fill="white">
                        <use xlink:href="#path-1"></use>
                    </mask>
                    <use id="Mask" fill="#FFFFFF" fill-rule="nonzero" xlink:href="#path-1"></use>
                    <g id="外围组件/颜色/白色" mask="url(#mask-2)" fill="#FFFFFF">
                        <g transform="translate(-169.000000, -299.000000)" id="Rectangle-15">
                            <rect x="0" y="0" width="375" height="667"></rect>
                        </g>
                    </g>
                </g>
            </g>
        </g>
    </g>
</svg>