<?xml version="1.0" encoding="UTF-8"?>
<svg width="16px" height="16px" viewBox="0 0 16 16" version="1.1" xmlns="http://www.w3.org/2000/svg" xmlns:xlink="http://www.w3.org/1999/xlink">
    <!-- Generator: Sketch 49.3 (51167) - http://www.bohemiancoding.com/sketch -->
    <title>ca_cj</title>
    <desc>Created with Sketch.</desc>
    <defs>
        <path d="M8,0 L1.53541667,8.34178434e-05 C0.697602811,-0.0084955826 0.0107515532,0.645728834 0,1.46256465 L0,12.5374354 C0.0107515532,13.3542712 0.697602811,14.0084956 1.53541667,13.9999166 L8.46458333,13.9999166 C9.30239719,14.0084956 9.98924845,13.3542712 10,12.5374354 L10,1.46256465 C9.98924845,0.645728834 9.30239719,-0.0084955826 8.46458333,8.34178434e-05 L8,0 Z M8,1 C8.87452272,1 9,1.31847772 9,2 L9,10 L1,10 L1,2 C1,1.19653414 1.2355466,1 2,1 L8,1 Z M2,13 C1,13 1,12.7435068 1,12 L1,11 L9,11 L9,12 C9,13 8.2825,13 8,13 C7.41744453,13 5.41744453,13 2,13 Z M2.5,2 L7.5,2 C7.77614237,2 8,2.22385763 8,2.5 C8,2.77614237 7.77614237,3 7.5,3 L2.5,3 C2.22385763,3 2,2.77614237 2,2.5 C2,2.22385763 2.22385763,2 2.5,2 Z M5,12.5 C5.27614237,12.5 5.5,12.2761424 5.5,12 C5.5,11.7238576 5.27614237,11.5 5,11.5 C4.72385763,11.5 4.5,11.7238576 4.5,12 C4.5,12.2761424 4.72385763,12.5 5,12.5 Z" id="path-1"></path>
    </defs>
    <g id="Page-1" stroke="none" stroke-width="1" fill="none" fill-rule="evenodd">
        <g id="图标编码" transform="translate(-97.000000, -1562.000000)">
            <g id="Repeat-Group" transform="translate(-1.000000, 537.000000)"></g>
            <g id="Repeat-Group-Copy" transform="translate(1750.000000, 2288.000000) rotate(90.000000) translate(-1750.000000, -2288.000000) translate(-1.000000, 537.000000)"></g>
            <g id="icon/16*16/手机号" transform="translate(97.000000, 1562.000000)">
                <g id="外围组件//60灰" transform="translate(3.000000, 1.000000)">
                    <mask id="mask-2" fill="white">
                        <use xlink:href="#path-1"></use>
                    </mask>
                    <use id="Mask" fill="#999999" xlink:href="#path-1"></use>
                    <g id="外围组件/颜色/60灰" mask="url(#mask-2)" fill="#999999">
                        <g transform="translate(-166.000000, -302.000000)" id="Rectangle-15">
                            <rect x="0" y="0" width="375" height="667"></rect>
                        </g>
                    </g>
                </g>
            </g>
        </g>
    </g>
</svg>