<?xml version="1.0" encoding="UTF-8"?>
<svg width="40px" height="40px" viewBox="0 0 40 40" version="1.1" xmlns="http://www.w3.org/2000/svg" xmlns:xlink="http://www.w3.org/1999/xlink">
    <!-- Generator: Sketch 49.3 (51167) - http://www.bohemiancoding.com/sketch -->
    <title>ca_er</title>
    <desc>Created with Sketch.</desc>
    <defs></defs>
    <g id="Page-1" stroke="none" stroke-width="1" >
        <g id="图标编码" transform="translate(-75.000000, -1702.000000)">
            <g id="Repeat-Group" transform="translate(-1.000000, 537.000000)"></g>
            <g id="Repeat-Group-Copy" transform="translate(1750.000000, 2288.000000) rotate(90.000000) translate(-1750.000000, -2288.000000) translate(-1.000000, 537.000000)"></g>
            <g id="icon/40*40icon//薅羊毛" transform="translate(75.000000, 1702.000000)">
                <circle id="Oval-3" fill="#514353" cx="20" cy="20" r="20"></circle>
                <g id="Group" stroke-width="1" transform="translate(8.500000, 8.000000)">
                    <g id="erduo" transform="translate(0.000000, 9.500000)" fill="#E72427">
                        <path d="M5,0 C5,0 -2.49068364,3.39289476 0.864902289,4.76530163 C2.86335259,5.58264616 3.93688372,4.00552194 4.17362137,3.97044932 C4.41035902,3.9353767 5,0 5,0 Z" id="erduo.svg"></path>
                    </g>
                    <g id="erduo" transform="translate(20.500000, 11.500000) scale(-1, 1) translate(-20.500000, -11.500000) translate(18.000000, 9.000000)" fill="#E72427">
                        <path d="M5,0 C5,0 -2.49068364,3.39289476 0.864902289,4.76530163 C2.86335259,5.58264616 3.93688372,4.00552194 4.17362137,3.97044932 C4.41035902,3.9353767 5,0 5,0 Z" id="erduo.svg"></path>
                    </g>
                    <path d="M18.1558051,8.76708287 C18.9685567,9.98956238 19.4418603,11.4554791 19.4418603,13.0315056 L19.4418603,15.833094 C19.4418603,20.1042282 15.9657043,23.5666667 11.6776485,23.5666667 C7.38959273,23.5666667 3.91343669,20.1042282 3.91343669,15.833094 L3.91343669,13.0315056 C3.91343669,11.5973795 4.30534772,10.2544279 4.98831225,9.1031104 C5.19622399,9.16689065 5.4144186,9.20521983 5.63983555,9.21469323 C6.53614009,9.20883337 7.36720493,8.71242885 7.84203154,7.89929643 C8.5838429,9.12505162 9.8559338,9.86511638 11.2210624,9.86511638 C12.586191,9.86511638 13.8582819,9.12505162 14.6000933,7.89929643 C15.0748194,8.71225946 15.9056438,9.20863973 16.8017597,9.21469323 C17.2992386,9.19383758 17.7615539,9.03243643 18.1558051,8.76708287 Z M14.6000933,7.16854691 C13.8582819,8.3943021 12.586191,9.13436685 11.2210624,9.13436685 C9.8559338,9.13436685 8.5838429,8.3943021 7.84203154,7.16854691 C7.36720493,7.98167933 6.53614009,8.47808384 5.63983555,8.4839437 C4.16542341,8.42197988 3,7.12549809 3,5.54724388 C3,3.96898967 4.16542341,2.67250788 5.63983555,2.61054405 C6.24166446,2.61472175 6.82291417,2.84535503 7.28168441,3.26201103 C7.74632537,1.34147062 9.36635664,0 11.2210624,0 C13.0757682,0 14.6957995,1.34147062 15.1604404,3.26201103 C15.6191875,2.84531263 16.2004521,2.61467342 16.8022893,2.61054405 C18.276696,2.67265981 19.4420027,3.96926188 19.4418603,5.54751622 C19.441718,7.12577055 18.2761775,8.42213217 16.8017597,8.4839437 C15.9056438,8.4778902 15.0748194,7.98150994 14.6000933,7.16854691 Z" id="Combined-Shape" fill="#FFFFFF"></path>
                    <g id="zuiba" transform="translate(10.000000, 19.000000)" fill="#EA2928" fill-rule="nonzero">
                        <path d="M-0.496382421,-0.0256736934 L0.502298432,0.0256736934 C0.482441973,0.411871835 0.591998933,0.78884918 0.801113739,1.06879972 C0.996723327,1.33067028 1.25969134,1.4822526 1.48413529,1.50016294 C1.75361941,1.49328143 2.0172261,1.34857223 2.21199693,1.08816651 C2.42142482,0.808164535 2.52602134,0.42662405 2.49446554,0.0407530059 L3.49113839,-0.0407530059 C3.54221988,0.583882331 3.37111298,1.20803512 3.01278366,1.6871161 C2.6397973,2.18579334 2.09495152,2.48489121 1.46213164,2.49878976 C0.890838633,2.45896861 0.364879054,2.15579038 -4.97615483e-05,1.66724525 C-0.351473358,1.19678011 -0.528004052,0.589351127 -0.496382421,-0.0256736934 Z" id="zuiba.svg"></path>
                    </g>
                </g>
            </g>
        </g>
    </g>
</svg>