<?xml version="1.0" encoding="UTF-8"?>
<svg width="343px" height="110px" viewBox="0 0 343 110" version="1.1" xmlns="http://www.w3.org/2000/svg" xmlns:xlink="http://www.w3.org/1999/xlink">
    <!-- Generator: Sketch 50 (54983) - http://www.bohemiancoding.com/sketch -->
    <title>card</title>
    <desc>Created with Sketch.</desc>
    <defs>
        <linearGradient x1="0%" y1="50%" x2="100%" y2="50%" id="linearGradient-1">
            <stop stop-color="#C49342" offset="0%"></stop>
            <stop stop-color="#E9C275" offset="100%"></stop>
        </linearGradient>
        <rect id="path-2" x="0" y="0" width="343" height="110" rx="4"></rect>
    </defs>
    <g id="Page-1" stroke="none" stroke-width="1" fill="none" fill-rule="evenodd">
        <g id="card">
            <mask id="mask-3" fill="white">
                <use xlink:href="#path-2"></use>
            </mask>
            <use id="Mask" fill="url(#linearGradient-1)" xlink:href="#path-2"></use>
            <g id="Group" mask="url(#mask-3)" fill="#FFFFFF">
                <g transform="translate(-34.000000, -136.000000)">
                    <path d="M524.42787,232.783353 C513.71187,205.683353 500.11887,195.500353 487.73487,192.991353 C469.69487,189.342353 454.26387,201.952353 454.01287,202.198353 C420.08187,235.858353 419.92887,242.086353 357.42487,237.714353 C250.54087,230.221353 205.68587,250.311353 177.64887,271.686353 C149.60787,293.063353 138.40887,315.685353 98.7938696,313.306353 L98.7898696,313.357353 L98.8028696,313.308353 C98.7998696,313.307353 97.9888696,313.101353 96.2428696,312.460353 C91.0038696,310.543353 77.3928696,304.747353 52.3718696,289.073353 L52.3188696,289.158353 C85.6868696,310.060353 98.7698696,313.403353 98.7778696,313.404353 L98.7818696,313.405353 L98.7878696,313.406353 C138.45387,315.788353 149.69387,293.120353 177.70887,271.766353 C205.72787,250.408353 250.54587,230.324353 357.41787,237.814353 C419.91687,242.201353 420.17587,235.925353 454.08387,202.268353 C454.30987,202.041353 469.73587,189.444353 487.71387,193.089353 C500.05787,195.589353 513.62287,205.737353 524.33387,232.820353 L524.42787,232.783353" id="Fill-1" transform="translate(288.373370, 252.954166) rotate(-4.000000) translate(-288.373370, -252.954166) "></path>
                    <path d="M525.837946,220.060628 C514.663946,194.559628 500.974946,184.701628 488.451946,182.164628 C469.757946,178.381628 453.689946,190.893628 452.441946,191.944628 C415.693946,222.916628 416.365946,233.158628 356.998946,232.839628 C352.959946,232.816628 349.031946,233.015628 345.203946,233.093628 C168.119946,236.370628 170.738946,300.698628 112.900946,308.480628 C108.303946,309.100628 102.658946,309.156628 96.2239457,308.746628 C96.1019457,308.739628 95.8249457,308.699628 95.3899457,308.611628 C91.8469457,307.893628 77.8159457,303.999628 49.6669457,288.574628 L49.6189457,288.662628 C77.7759457,304.089628 91.8119457,307.988628 95.3709457,308.708628 C95.8069457,308.797628 96.0859457,308.837628 96.2179457,308.846628 C102.656946,309.255628 108.307946,309.200628 112.914946,308.581628 C170.850946,300.759628 168.140946,236.474628 345.205946,233.192628 C349.034946,233.115628 352.962946,232.916628 356.997946,232.938628 C416.373946,233.269628 415.784946,222.979628 452.506946,192.021628 C453.741946,190.977628 469.794946,178.486628 488.432946,182.262628 C500.916946,184.792628 514.577946,194.616628 525.745946,220.099628 L525.837946,220.060628" id="Fill-3" transform="translate(287.728446, 245.281718) rotate(-4.000000) translate(-287.728446, -245.281718) "></path>
                    <path d="M527.248121,207.336809 C515.646121,183.423809 501.883121,173.906809 489.240121,171.347809 C469.867121,167.426809 453.154121,179.824809 450.868121,181.693809 C413.458121,212.288809 412.635121,224.349809 356.573121,227.965809 C352.652121,228.218809 348.894121,228.859809 345.227121,229.225809 C175.637121,245.504809 168.559121,297.084809 110.642121,304.231809 C106.348121,304.761809 100.460121,304.621809 93.6551212,304.186809 C93.0991212,304.149809 91.8311212,303.994809 89.8131212,303.585809 C83.4481212,302.296809 69.6121212,298.500809 46.9621212,288.078809 L46.9201212,288.169809 C69.5751212,298.592809 83.4191212,302.392809 89.7931212,303.683809 C91.8151212,304.092809 93.0841212,304.250809 93.6481212,304.286809 C100.455121,304.722809 106.348121,304.861809 110.654121,304.328809 C168.647121,297.158809 175.663121,245.604809 345.236121,229.324809 C348.908121,228.958809 352.666121,228.316809 356.579121,228.065809 C412.657121,224.455809 413.547121,212.350809 450.933121,181.770809 C453.205121,179.908809 469.902121,167.531809 489.221121,171.445809 C501.828121,173.999809 515.564121,183.486809 527.157121,207.379809 L527.248121,207.336809" id="Fill-5" transform="translate(287.084121, 237.630152) rotate(-4.000000) translate(-287.084121, -237.630152) "></path>
                    <path d="M528.659034,194.613439 C516.664034,172.278439 502.847034,163.119439 490.110034,160.540439 C470.028034,156.475439 452.654034,168.751439 449.296034,171.442439 C411.379034,201.847439 408.736034,215.732439 356.149034,223.091439 C352.331034,223.625439 348.758034,224.715439 345.250034,225.358439 C183.240034,255.097439 166.402034,293.467439 108.383034,299.978439 C104.392034,300.427439 98.2570339,300.086439 91.0870339,299.624439 C89.5680339,299.528439 85.8030339,299.152439 79.7110339,297.918439 C71.8400339,296.324439 60.0820339,293.298439 44.2550339,287.579439 L44.2220339,287.675439 C60.0500339,293.393439 71.8140339,296.421439 79.6910339,298.016439 C85.7880339,299.251439 89.5560339,299.627439 91.0810339,299.725439 C98.2510339,300.184439 104.387034,300.529439 108.394034,300.078439 C166.468034,293.551439 183.270034,255.191439 345.268034,225.457439 C348.784034,224.812439 352.355034,223.721439 356.164034,223.190439 C408.772034,215.833439 411.465034,201.908439 449.357034,171.520439 C452.705034,168.837439 470.063034,156.580439 490.090034,160.637439 C502.795034,163.211439 516.583034,172.343439 528.571034,194.661439 L528.659034,194.613439" id="Fill-7" transform="translate(286.440534, 230.006117) rotate(-4.000000) translate(-286.440534, -230.006117) "></path>
                    <path d="M530.071678,181.89159 C517.717678,161.12059 503.874678,152.33459 491.067678,149.74159 C470.247678,145.52659 452.190678,157.66659 447.722678,161.19159 C409.345678,191.46959 404.694678,207.37159 355.725678,218.21559 C351.989678,219.04359 348.623678,220.56159 345.276678,221.49059 C190.828678,264.32559 164.265678,289.84659 106.124678,295.72859 C102.438678,296.10159 96.0586782,295.53759 88.5196782,295.06459 C84.8796782,294.82359 74.2746782,294.08459 57.2166782,290.63059 C52.4866782,289.67259 47.2606782,288.50459 41.5506782,287.08259 L41.5266782,287.17959 C47.2386782,288.60159 52.4666782,289.76959 57.1966782,290.72759 C74.2586782,294.18359 84.8696782,294.92159 88.5136782,295.16459 C96.0516782,295.63559 102.429678,296.20159 106.134678,295.82859 C164.310678,289.93959 190.863678,264.41759 345.302678,221.58759 C348.659678,220.65459 352.024678,219.13859 355.748678,218.31359 C404.741678,207.46759 409.426678,191.53159 447.784678,161.26959 C452.241678,157.75459 470.277678,145.63259 491.048678,149.83859 C503.823678,152.42759 517.640678,161.18859 529.985678,181.94159 L530.071678,181.89159" id="Fill-9" transform="translate(285.799178, 222.406536) rotate(-4.000000) translate(-285.799178, -222.406536) "></path>
                    <path d="M531.484123,169.167628 C518.816123,149.948628 504.972123,141.554628 492.128123,138.953628 C470.526123,134.581628 451.768123,146.573628 446.151123,150.939628 C407.332123,181.122628 400.555123,199.340628 355.303123,213.342628 C351.636123,214.478628 348.490123,216.410628 345.301123,217.624628 C198.439123,273.541628 162.150123,286.228628 103.867123,291.475628 C100.486123,291.781628 93.8591231,291.002628 85.9551231,290.504628 C80.1371231,290.117628 63.3881231,289.551628 38.8451231,286.583628 L38.8331231,286.682628 C63.3801231,289.650628 80.1341231,290.216628 85.9481231,290.604628 C93.8511231,291.101628 100.474123,291.882628 103.876123,291.574628 C162.174123,286.324628 198.478123,273.634628 345.337123,217.716628 C348.539123,216.498628 351.681123,214.569628 355.334123,213.438628 C400.611123,199.427628 407.411123,181.183628 446.213123,151.018628 C451.816123,146.661628 470.556123,134.684628 492.108123,139.051628 C504.925123,141.646628 518.744123,150.019628 531.401123,169.222628 L531.484123,169.167628" id="Fill-11" transform="translate(285.158623, 214.827156) rotate(-4.000000) translate(-285.158623, -214.827156) "></path>
                    <path d="M532.896182,156.444081 C519.965182,138.763081 506.152182,130.778081 493.299182,128.176081 C470.876182,123.637081 451.393182,135.466081 444.581182,140.689081 C405.323182,170.788081 396.370182,191.647081 354.881182,208.469081 C351.273182,209.932081 348.359182,212.257081 345.327182,213.756081 C206.042182,282.689081 160.055182,282.607081 101.610182,287.225081 C98.5361817,287.467081 91.6601817,286.469081 83.3891817,285.943081 C76.4051817,285.478081 58.9201817,285.468081 36.1371817,286.086081 L36.1411817,286.186081 C58.9201817,285.568081 76.4061817,285.578081 83.3831817,286.043081 C91.6521817,286.568081 98.5181817,287.568081 101.618182,287.324081 C160.061182,282.708081 206.083182,282.783081 345.371182,213.845081 C348.416182,212.339081 351.328182,210.017081 354.918182,208.562081 C396.436182,191.726081 405.400182,170.851081 444.642182,140.769081 C451.441182,135.555081 470.904182,123.742081 493.279182,128.276081 C506.107182,130.873081 519.894182,138.839081 532.815182,156.503081 L532.896182,156.444081" id="Fill-13" transform="translate(284.516682, 207.260695) rotate(-4.000000) translate(-284.516682, -207.260695) "></path>
                    <path d="M534.310157,143.72136 C521.167157,127.56536 507.425157,120.01136 494.603157,117.41436 C471.304157,112.69636 451.066157,124.34436 443.010157,130.43936 C403.317157,160.46636 392.213157,184.31936 354.459157,203.59936 C350.910157,205.41336 348.228157,208.10536 345.353157,209.89236 C213.644157,291.81436 157.982157,278.98536 99.3531574,282.97436 C96.5891574,283.16336 89.4601574,281.93736 80.8241574,281.38436 C72.6761574,280.84236 54.4531574,281.38836 33.4301574,285.59436 L33.4501574,285.69136 C54.4621574,281.48836 72.6811574,280.94236 80.8181574,281.48436 C89.4531574,282.03536 96.5671574,283.26436 99.3611574,283.07536 C157.969157,279.08836 213.689157,291.91036 345.406157,209.97636 C348.295157,208.18036 350.971157,205.49236 354.505157,203.68836 C392.287157,184.39136 403.394157,160.53236 443.070157,130.51836 C451.114157,124.43336 471.329157,112.80136 494.583157,117.51236 C507.380157,120.10336 521.102157,127.64336 534.232157,143.78536 L534.310157,143.72136" id="Fill-15" transform="translate(283.870157, 201.004052) rotate(-4.000000) translate(-283.870157, -201.004052) "></path>
                    <path d="M535.724723,130.999269 C522.438723,116.350269 508.805723,109.245269 496.060723,106.664269 C471.819723,101.756269 450.796723,113.204269 441.441723,120.189269 C401.311723,150.155269 388.149723,177.312269 354.038723,198.728269 C350.550723,200.917269 348.096723,203.953269 345.382723,206.028269 C221.238723,300.918269 155.930723,275.367269 97.0997228,278.726269 C94.6417228,278.865269 87.2637228,277.405269 78.2597228,276.825269 C68.9477228,276.205269 49.9867228,277.307269 30.7257228,285.102269 L30.7637228,285.193269 C50.0057228,277.407269 68.9547228,276.306269 78.2537228,276.926269 C87.2557228,277.503269 94.6157228,278.966269 97.1047228,278.824269 C155.901723,275.469269 221.283723,301.017269 345.443723,206.108269 C348.169723,204.022269 350.620723,200.991269 354.091723,198.812269 C388.228723,177.378269 401.388723,150.220269 441.500723,120.269269 C450.842723,113.293269 471.841723,101.860269 496.040723,106.761269 C508.764723,109.338269 522.375723,116.431269 535.651723,131.066269 L535.724723,130.999269" id="Fill-17" transform="translate(283.225223, 195.335043) rotate(-4.000000) translate(-283.225223, -195.335043) "></path>
                    <path d="M537.139531,118.277374 C523.785531,105.118374 510.317531,98.483374 497.699531,95.927374 C472.437531,90.814374 450.591531,102.037374 439.871531,109.940374 C399.305531,139.848374 384.238531,170.580374 353.618531,193.856374 C350.209531,196.450374 347.968531,199.800374 345.411531,202.164374 C228.816531,310.000374 153.898531,271.741374 94.8435306,274.474374 C92.6965306,274.576374 85.0665306,272.873374 75.6955306,272.267374 C65.2195306,271.570374 45.5205306,273.224374 28.0195306,284.610374 L28.0745306,284.694374 C45.5475306,273.323374 65.2285306,271.670374 75.6895306,272.365374 C85.0575306,272.971374 92.6645306,274.675374 94.8465306,274.575374 C153.854531,271.842374 228.865531,310.105374 345.480531,202.237374 C348.048531,199.860374 350.285531,196.517374 353.678531,193.936374 C384.322531,170.639374 399.382531,139.914374 439.931531,110.019374 C450.636531,102.128374 472.459531,90.918374 497.678531,96.025374 C510.278531,98.577374 523.727531,105.200374 537.069531,118.348374 L537.139531,118.277374" id="Fill-19" transform="translate(282.579531, 189.666474) rotate(-4.000000) translate(-282.579531, -189.666474) "></path>
                    <path d="M538.551863,105.55638 C525.225863,93.8663803 511.984863,87.7273803 499.554863,85.2103803 C473.177863,79.8683803 450.461863,90.8393803 438.302863,99.6903803 C397.294863,129.54738 380.524863,164.04338 353.199863,188.98738 C349.892863,192.00638 347.839863,195.64738 345.440863,198.30238 C236.342863,319.03938 151.885863,268.11838 92.588863,270.22638 C90.752863,270.29238 82.867863,268.34138 73.133863,267.70738 C61.490863,266.93338 41.053863,269.14338 25.314863,284.12238 L25.383863,284.19438 C41.093863,269.24338 61.502863,267.03338 73.127863,267.80738 C82.859863,268.44138 90.714863,270.39038 92.592863,270.32638 C151.828863,268.21738 236.393863,319.14938 345.514863,198.36938 C347.924863,195.70038 349.973863,192.06638 353.266863,189.06038 C380.611863,164.09738 397.373863,129.61338 438.362863,99.7713803 C450.504863,90.9303803 473.197863,79.9733803 499.534863,85.3073803 C511.947863,87.8213803 525.170863,93.9523803 538.487863,105.63138 L538.553863,105.55638" id="Fill-21" transform="translate(281.934363, 183.998973) rotate(-4.000000) translate(-281.934363, -183.998973) "></path>
                    <path d="M539.966896,92.8341032 C526.777896,82.5941032 513.842896,76.9741032 501.677896,74.5101032 C474.062896,68.9171032 450.420896,79.5981032 436.734896,89.4401032 C395.282896,119.251103 377.032896,157.611103 352.779896,184.117103 C349.608896,187.584103 347.707896,191.494103 345.470896,194.438103 C243.824896,328.063103 149.893896,264.495103 90.3338957,265.975103 C88.8088957,266.015103 80.6708957,263.807103 70.5698957,263.148103 C57.7638957,262.294103 36.5878957,265.063103 22.6118957,283.632103 L22.6918957,283.692103 C36.6378957,265.160103 57.7748957,262.396103 70.5638957,263.249103 C80.6628957,263.907103 88.7668957,266.112103 90.3348957,266.075103 C149.822896,264.590103 243.877896,328.177103 345.549896,194.498103 C347.796896,191.542103 349.692896,187.639103 352.853896,184.184103 C377.119896,157.660103 395.363896,119.315103 436.792896,89.5221032 C450.463896,79.6901032 474.080896,69.0231032 501.657896,74.6081032 C513.807896,77.0681032 526.725896,82.6821032 539.904896,92.9131032 L539.966896,92.8341032" id="Fill-23" transform="translate(281.289396, 178.329626) rotate(-4.000000) translate(-281.289396, -178.329626) "></path>
                    <path d="M541.381308,80.1109736 C528.467308,71.2999736 515.942308,66.2269736 504.140308,63.8369736 C475.125308,57.9609736 450.486308,68.3049736 435.165308,79.1899736 C393.269308,108.958974 373.777308,151.207974 352.360308,179.246974 C349.361308,183.174974 347.580308,187.337974 345.500308,190.572974 C283.357308,287.239974 217.228308,286.949974 162.227308,275.814974 C144.845308,272.294974 128.576308,267.690974 113.898308,264.717974 C104.615308,262.838974 95.9683077,261.610974 88.0773077,261.724974 C87.8673077,261.728974 87.4153077,261.652974 86.7683077,261.521974 C85.7383077,261.312974 84.2083077,260.964974 82.2923077,260.576974 C78.6583077,259.841974 73.6343077,258.957974 68.0063077,258.588974 C54.0383077,257.656974 32.1193077,260.982974 19.9113077,283.142974 L20.0003077,283.190974 C32.1823077,261.076974 54.0483077,257.760974 67.9993077,258.689974 C73.6223077,259.056974 78.6413077,259.939974 82.2723077,260.674974 C84.1883077,261.062974 85.7163077,261.409974 86.7483077,261.618974 C87.3993077,261.750974 87.8473077,261.827974 88.0793077,261.824974 C95.9583077,261.710974 104.599308,262.936974 113.878308,264.815974 C128.550308,267.786974 144.820308,272.390974 162.207308,275.912974 C217.220308,287.059974 283.429308,287.328974 345.584308,190.628974 C347.671308,187.380974 349.449308,183.222974 352.441308,179.306974 C373.864308,151.252974 393.352308,109.022974 435.223308,79.2709736 C450.529308,68.3979736 475.140308,58.0659736 504.120308,63.9349736 C515.908308,66.3219736 528.421308,71.3899736 541.325308,80.1939736 L541.381308,80.1109736" id="Fill-25" transform="translate(280.646308, 172.661651) rotate(-4.000000) translate(-280.646308, -172.661651) "></path>
                    <path d="M542.794013,67.3896423 C530.335013,59.9806423 518.354013,55.4856423 507.041013,53.1946423 C476.414013,46.9916423 450.687013,56.9406423 433.597013,68.9396423 C391.251013,98.6706423 370.732013,144.745642 351.940013,174.376642 C349.153013,178.771642 347.450013,183.183642 345.531013,186.708642 C292.481013,284.167642 229.735013,288.836642 175.218013,277.801642 C149.381013,272.569642 125.398013,263.803642 105.179013,259.708642 C98.2610129,258.307642 91.7840129,257.454642 85.8230129,257.474642 C85.7430129,257.476642 85.5860129,257.452642 85.3670129,257.408642 C84.3000129,257.192642 81.7270129,256.495642 78.1800129,255.777642 C74.7060129,255.073642 70.2970129,254.348642 65.4410129,254.028642 C50.3120129,253.019642 27.6520129,256.902642 17.2110129,282.652642 L17.3030129,282.689642 C27.7260129,256.991642 50.3220129,253.125642 65.4350129,254.128642 C70.2830129,254.447642 74.6900129,255.172642 78.1600129,255.874642 C81.7060129,256.593642 84.2730129,257.288642 85.3470129,257.505642 C85.5690129,257.550642 85.7270129,257.575642 85.8230129,257.574642 C91.7730129,257.554642 98.2450129,258.406642 105.159013,259.806642 C125.366013,263.898642 149.354013,272.665642 175.198013,277.899642 C229.733013,288.947642 292.562013,284.251642 345.619013,186.756642 C347.542013,183.222642 349.243013,178.816642 352.025013,174.429642 C370.821013,144.787642 391.336013,98.7316423 433.653013,69.0206423 C450.728013,57.0346423 476.427013,47.0966423 507.021013,53.2916423 C518.322013,55.5806423 530.293013,60.0716423 542.742013,67.4746423 L542.794013,67.3896423" id="Fill-27" transform="translate(280.002513, 166.991305) rotate(-4.000000) translate(-280.002513, -166.991305) "></path>
                    <path d="M544.208354,54.6667822 C532.438354,48.6347822 521.189354,44.7577822 510.536354,42.6007822 C478.003354,36.0097822 451.060354,45.4837822 432.026354,58.6887822 C389.228354,88.3847822 367.886354,138.172782 351.522354,169.506782 C348.983354,174.368782 347.313354,179.024782 345.562354,182.844782 C299.480354,282.487782 239.286354,290.526782 185.008354,279.540782 C152.894354,273.036782 122.856354,259.862782 99.0553537,255.041782 C93.5413537,253.925782 88.3603537,253.256782 83.5663537,253.224782 L83.4253537,253.204782 C82.6443537,253.045782 79.3803537,252.032782 74.6753537,251.079782 C71.3443537,250.404782 67.2913537,249.759782 62.8773537,249.467782 C46.5833537,248.381782 23.1873537,252.823782 14.5113537,282.161782 L14.6073537,282.188782 C23.2703537,252.905782 46.5933537,248.488782 62.8713537,249.567782 C67.2793537,249.858782 71.3283537,250.502782 74.6553537,251.176782 C79.3583537,252.129782 82.6113537,253.140782 83.4053537,253.301782 L83.5663537,253.324782 C88.3523537,253.356782 93.5263537,254.023782 99.0353537,255.139782 C122.820354,259.956782 152.861354,273.131782 184.988354,279.638782 C239.289354,290.640782 299.566354,282.562782 345.652354,182.886782 C347.407354,179.059782 349.075354,174.407782 351.610354,169.552782 C367.976354,138.212782 389.315354,88.4437822 432.084354,58.7707822 C451.100354,45.5777822 478.012354,36.1157822 510.517354,42.6977822 C521.159354,44.8537822 532.401354,48.7287822 544.162354,54.7547822 L544.208354,54.6667822" id="Fill-29" transform="translate(279.359854, 161.913179) rotate(-4.000000) translate(-279.359854, -161.913179) "></path>
                    <path d="M545.618651,41.9448468 C534.870651,37.2638468 524.621651,34.0478468 514.884651,32.0758468 C480.002651,25.0118468 451.671651,33.8918468 430.455651,48.4388468 C387.203651,78.1038468 365.196651,131.445847 351.101651,164.636847 C348.841651,169.955847 347.183651,174.870847 345.591651,178.978847 C305.641651,281.522847 247.586651,292.297847 193.380651,281.325847 C156.046651,273.765847 120.546651,255.872847 94.0706513,250.508847 C89.5416513,249.591847 85.2766513,249.042847 81.3106513,248.973847 L81.2916513,248.971847 C80.8906513,248.890847 77.0776513,247.566847 71.4386513,246.423847 C68.2286513,245.773847 64.4246513,245.180847 60.3136513,244.907847 C42.8536513,243.741847 18.7186513,248.744847 11.8116513,281.669847 L11.9096513,281.689847 C18.8106513,248.821847 42.8656513,243.851847 60.3066513,245.008847 C64.4126513,245.279847 68.2126513,245.872847 71.4186513,246.521847 C77.0586513,247.663847 80.8506513,248.981847 81.2716513,249.068847 L81.3086513,249.072847 C85.2656513,249.142847 89.5266513,249.692847 94.0506513,250.608847 C120.503651,255.963847 156.009651,273.859847 193.361651,281.423847 C247.592651,292.412847 305.735651,281.591847 345.682651,179.014847 C347.278651,174.903847 348.935651,169.990847 351.193651,164.674847 C365.288651,131.484847 387.293651,78.1618468 430.513651,48.5218468 C451.710651,33.9868468 480.010651,25.1168468 514.863651,32.1748468 C524.594651,34.1458468 534.837651,37.3588468 545.577651,42.0358468 L545.618651,41.9448468" id="Fill-31" transform="translate(278.715151, 157.224638) rotate(-4.000000) translate(-278.715151, -157.224638) "></path>
                    <path d="M547.030534,29.2219307 C537.791534,25.8679307 528.965534,23.3789307 520.532534,21.6719307 C401.360534,-2.45706933 360.580534,129.242931 345.619534,175.113931 C310.280534,283.424931 251.908534,297.751931 196.422534,286.520931 C150.374534,277.196931 106.331534,250.247931 79.122534,244.735931 L79.061534,244.722931 L79.051534,244.772931 L79.069534,244.726931 C79.067534,244.724931 74.797534,243.096931 68.356534,241.791931 C59.682534,240.035931 47.070534,238.866931 35.621534,243.057931 C24.173534,247.249931 13.895534,256.811931 9.91253403,276.488931 C9.60753403,277.991931 9.33953403,279.552931 9.11053403,281.176931 L9.20853403,281.190931 C9.43753403,279.568931 9.70553403,278.008931 10.009534,276.508931 C17.966534,237.218931 51.003534,238.385931 68.336534,241.889931 C71.554534,242.541931 74.227534,243.273931 76.099534,243.842931 C77.968534,244.411931 79.030534,244.818931 79.034534,244.819931 L79.038534,244.820931 L79.041534,244.820931 L79.103534,244.832931 C106.278534,250.336931 150.336534,277.288931 196.403534,286.617931 C251.921534,297.868931 310.380534,283.486931 345.715534,175.144931 C360.679534,129.261931 401.444534,-2.35006933 520.510534,21.7689307 C528.941534,23.4759307 537.761534,25.9639307 546.995534,29.3159307 L547.030534,29.2219307" id="Fill-33" transform="translate(278.070534, 154.275150) rotate(-4.000000) translate(-278.070534, -154.275150) "></path>
                </g>
            </g>
        </g>
    </g>
</svg>