<?xml version="1.0" encoding="UTF-8"?>
<svg width="40px" height="40px" viewBox="0 0 40 40" version="1.1" xmlns="http://www.w3.org/2000/svg" xmlns:xlink="http://www.w3.org/1999/xlink">
    <!-- Generator: Sketch 49.3 (51167) - http://www.bohemiancoding.com/sketch -->
    <title>cb_er</title>
    <desc>Created with Sketch.</desc>
    <defs></defs>
    <g id="Page-1" stroke="none" stroke-width="1" fill="none" fill-rule="evenodd">
        <g id="图标编码" transform="translate(-164.000000, -1702.000000)">
            <g id="Repeat-Group" transform="translate(-1.000000, 537.000000)"></g>
            <g id="Repeat-Group-Copy" transform="translate(1750.000000, 2288.000000) rotate(90.000000) translate(-1750.000000, -2288.000000) translate(-1.000000, 537.000000)"></g>
            <g id="icon/40*40icon//邀请返现" transform="translate(164.000000, 1702.000000)">
                <circle id="Oval-3" fill="#514353" cx="20" cy="20" r="20"></circle>
                <path d="M31.3512821,17.335417 L28.4986928,16.1530003 L28.4986928,11.4355838 C28.4977168,10.6426777 27.8477742,10.0003217 27.0461545,10.0000005 L13.9538484,10.0000005 C13.151538,9.99935575 12.5005175,10.6419943 12.4995409,11.4355838 L12.4995409,16.1530003 L9.88992589,17.235667 C9.34987412,17.4594112 8.9988316,17.9824375 9.00000292,18.5615836 L9.00000292,29.5585834 C9.00064944,30.3532528 9.65091139,30.9977509 10.4543104,31 L30.5456925,31 C31.3490915,30.9977509 31.9993535,30.3532528 32,29.5585834 L32,18.3002503 C31.9999222,17.878767 31.7442218,17.4984657 31.3512821,17.335417 Z M12.5018999,19.3811669 L10.1169771,17.9018336 C10.1329002,17.893667 10.1458746,17.881417 10.1629771,17.874417 L12.5018999,16.9043337 L12.5018999,19.3811669 Z M28.4986928,18.2146564 L28.4986928,16.904917 L30.8918719,17.8965836 L29.1822642,18.9571206 L29.1874448,18.9655889 L20.0069353,24.5970391 L20,24.6043517 L12.5032599,19.3843668 L12.5032599,18.0190811 L20.0296397,23.3957241 L28.4986928,18.2146564 Z" id="Combined-Shape" fill="#FFFFFF"></path>
                <g id="￥" stroke-width="1" transform="translate(18.000000, 13.000000)" fill="#F0332C">
                    <polygon id="_.svg" points="0 0 1.5 3.23076923 0.5 3.23076923 0.5 4.30769231 2 4.30769231 2 4.84615385 0.5 4.84615385 0.5 5.92307692 2 5.92307692 2 7 3 7 3 5.92307692 4.5 5.92307692 4.5 4.84615385 3 4.84615385 3 4.30769231 4.5 4.30769231 4.5 3.23076923 3.5 3.23076923 5 0 3.5 0 2.5 2.69230769 1.325 0.0850769231"></polygon>
                </g>
            </g>
        </g>
    </g>
</svg>