<?xml version="1.0" encoding="UTF-8"?>
<svg width="40px" height="40px" viewBox="0 0 40 40" version="1.1" xmlns="http://www.w3.org/2000/svg" xmlns:xlink="http://www.w3.org/1999/xlink">
    <!-- Generator: Sketch 49.3 (51167) - http://www.bohemiancoding.com/sketch -->
    <title>cc_er</title>
    <desc>Created with Sketch.</desc>
    <defs></defs>
    <g id="Page-1" stroke="none" stroke-width="1" >
        <g id="图标编码" transform="translate(-232.000000, -1702.000000)">
            <g id="Repeat-Group" transform="translate(-1.000000, 537.000000)"></g>
            <g id="Repeat-Group-Copy" transform="translate(1750.000000, 2288.000000) rotate(90.000000) translate(-1750.000000, -2288.000000) translate(-1.000000, 537.000000)"></g>
            <g id="icon/40*40icon/信用卡" transform="translate(232.000000, 1702.000000)">
                <circle id="Oval-3" fill="#514353" cx="20" cy="20" r="20"></circle>
                <g id="0" stroke-width="1" transform="translate(9.000000, 13.000000)" fill="#FFFFFF">
                    <path d="M20.0590099,0.000499983334 L2.4865877,0.000499983334 C1.10470557,0.00848287957 -0.00848324467,1.03320209 4.87184905e-05,2.28942369 L4.87184905e-05,12.7110763 C-0.00848324467,13.9672979 1.10470557,14.9920171 2.4865877,15 L19.5139623,15 C20.8956291,14.9917423 22.0084839,13.9671039 21.9999513,12.7110763 L21.9999513,1.78744042 C22.0066552,0.806525612 21.1374957,0.00633104764 20.0584599,0 L20.0590099,0.000499983334 Z M20.3499586,5.00033332 L1.65004141,5.00033332 C1.34628614,5.00033332 1.10004385,4.77648316 1.10004385,4.50034999 L1.10004385,3.50038332 C1.19706765,3.27034987 1.39699729,3.0886009 1.65004141,3.00039999 C1.65004141,3.00039999 20.8999561,3.00039999 20.6684072,2.98540049 C20.3252087,2.94440185 20.7784067,3.21539282 20.8999561,3.50038332 L20.8999561,4.50034999 C20.8999561,4.77648316 20.6537138,5.00033332 20.3499586,5.00033332 Z" id="_0.svg"></path>
                </g>
                <rect id="Rectangle" fill="#E72427" x="23" y="24" width="6" height="2" rx="1"></rect>
            </g>
        </g>
    </g>
</svg>