<?xml version="1.0" encoding="UTF-8"?>
<svg width="24px" height="24px" viewBox="0 0 24 24" version="1.1" xmlns="http://www.w3.org/2000/svg" xmlns:xlink="http://www.w3.org/1999/xlink">
    <!-- Generator: Sketch 49.3 (51167) - http://www.bohemiancoding.com/sketch -->
    <title>av_aq</title>
    <desc>Created with Sketch.</desc>
    <defs>
        <path d="M1,9.75273698 L0,10 L0,6 C0,2.6862915 2.6862915,4.4408921e-16 6,0 C9.3137085,-6.66133815e-16 12,2.6862915 12,6 L12,6.5328438 C12,6.80898617 11.7761424,7.0328438 11.5,7.0328438 C11.2238576,7.0328438 11,6.80898617 11,6.5328438 L11,6 C11,3.23857625 8.76142375,1 6,1 C3.23857625,1 1,3.23857625 1,6 L1,9.75273698 Z M4.5,14 L7.5,14 C7.77614237,14 8,14.2238576 8,14.5 C8,14.7761424 7.77614237,15 7.5,15 L4.5,15 C4.22385763,15 4,14.7761424 4,14.5 C4,14.2238576 4.22385763,14 4.5,14 Z" id="path-1"></path>
        <path d="M2,1 C1.44771525,1 1,1.44771525 1,2 L1,9 C1,9.55228475 1.44771525,10 2,10 L14,10 C14.5522847,10 15,9.55228475 15,9 L15,2 C15,1.44771525 14.5522847,1 14,1 L2,1 Z M2,0 L14,0 C15.1045695,0 16,0.8954305 16,2 L16,9 C16,10.1045695 15.1045695,11 14,11 L2,11 C0.8954305,11 0,10.1045695 0,9 L0,2 C0,0.8954305 0.8954305,0 2,0 Z" id="path-3"></path>
    </defs>
    <g id="Page-1" stroke="none" stroke-width="1" fill="none" fill-rule="evenodd">
        <g id="图标编码" transform="translate(-1594.000000, -633.000000)">
            <g id="Repeat-Group" transform="translate(-1.000000, 537.000000)"></g>
            <g id="Repeat-Group-Copy" transform="translate(1750.000000, 2288.000000) rotate(90.000000) translate(-1750.000000, -2288.000000) translate(-1.000000, 537.000000)"></g>
            <g id="icon/24*24/密码" transform="translate(1594.000000, 633.000000)">
                <g id="外围组件/主色" transform="translate(6.000000, 2.000000)">
                    <mask id="mask-2" fill="white">
                        <use xlink:href="#path-1"></use>
                    </mask>
                    <use id="Mask" fill="#E72427" fill-rule="nonzero" xlink:href="#path-1"></use>
                    <g id="外围组件/颜色/主色" mask="url(#mask-2)" fill="#E72427">
                        <g transform="translate(-164.000000, -308.000000)" id="Rectangle-15">
                            <rect x="0" y="0" width="375" height="667"></rect>
                        </g>
                    </g>
                </g>
                <g id="外围组件/图标辅助色" transform="translate(4.000000, 11.000000)">
                    <mask id="mask-4" fill="white">
                        <use xlink:href="#path-3"></use>
                    </mask>
                    <use id="Mask" fill="#514353" fill-rule="nonzero" xlink:href="#path-3"></use>
                    <g id="外围组件/颜色/图标辅助色" mask="url(#mask-4)" fill="#514353">
                        <g transform="translate(-169.000000, -311.000000)" id="Rectangle-15">
                            <rect x="0" y="0" width="375" height="667"></rect>
                        </g>
                    </g>
                </g>
            </g>
        </g>
    </g>
</svg>