<?xml version="1.0" encoding="UTF-8"?>
<svg width="24px" height="24px" viewBox="0 0 24 24" version="1.1" xmlns="http://www.w3.org/2000/svg" xmlns:xlink="http://www.w3.org/1999/xlink">
    <!-- Generator: Sketch 49.3 (51167) - http://www.bohemiancoding.com/sketch -->
    <title>aw_aq</title>
    <desc>Created with Sketch.</desc>
    <defs>
        <path d="M14.5,4.00026827 L14.5,4.00026827 C14.2238576,4.00026827 14,3.77641064 14,3.50026827 L14,2 C14,1.44771525 13.5522847,1 13,1 L2,1 C1.44771525,1 1,1.44771525 1,2 L1,18 C1,18.5522847 1.44771525,19 2,19 L13,19 C13.5522847,19 14,18.5522847 14,18 L14,15.5366028 C14,15.2604604 14.2238576,15.0366028 14.5,15.0366028 L14.5,15.0366028 C14.7761424,15.0366028 15,15.2604604 15,15.5366028 L15,18 C15,19.1045695 14.1045695,20 13,20 L2,20 C0.8954305,20 0,19.1045695 0,18 L0,2 C0,0.8954305 0.8954305,0 2,0 L13,0 C14.1045695,-2.22044605e-16 15,0.8954305 15,2 L15,3.50026827 C15,3.77641064 14.7761424,4.00026827 14.5,4.00026827 Z" id="path-1"></path>
        <path d="M10.2858368,5.99974136 L6.17150207,10.149991 C5.9751322,10.3504566 5.9751322,10.6507172 6.17150207,10.8503074 C6.26925825,10.9501025 6.41675004,11 6.51450622,11 C6.66114049,11 6.75889667,10.9501025 6.85665285,10.8503074 L11.8533657,5.85004874 C12.0488781,5.65045859 12.0488781,5.35019796 11.8533657,5.14973241 L6.85665285,0.150349163 C6.66114049,-0.0501163878 6.36701443,-0.0501163878 6.17150207,0.150349163 C5.9751322,0.349939319 5.9751322,0.650199948 6.17150207,0.849790104 L10.2858368,5.00003979 L0.489638416,5.00003979 C0.195512362,5.00003979 0,5.20050534 0,5.50076597 C0,5.8001512 0.245247963,5.99974136 0.489638416,5.99974136 L10.2858368,5.99974136 Z" id="path-3"></path>
    </defs>
    <g id="Page-1" stroke="none" stroke-width="1" fill="none" fill-rule="evenodd">
        <g id="图标编码" transform="translate(-1667.000000, -635.000000)">
            <g id="Repeat-Group" transform="translate(-1.000000, 537.000000)"></g>
            <g id="Repeat-Group-Copy" transform="translate(1750.000000, 2288.000000) rotate(90.000000) translate(-1750.000000, -2288.000000) translate(-1.000000, 537.000000)"></g>
            <g id="icon/24*24/退出" transform="translate(1667.000000, 635.000000)">
                <g id="外围组件/图标辅助色" transform="translate(4.000000, 2.000000)">
                    <mask id="mask-2" fill="white">
                        <use xlink:href="#path-1"></use>
                    </mask>
                    <use id="Mask" fill="#514353" fill-rule="nonzero" xlink:href="#path-1"></use>
                    <g id="外围组件/颜色/图标辅助色" mask="url(#mask-2)" fill="#514353">
                        <g transform="translate(-170.000000, -308.000000)" id="Rectangle-15">
                            <rect x="0" y="0" width="375" height="667"></rect>
                        </g>
                    </g>
                </g>
                <g id="外围组件/主色" transform="translate(9.000000, 6.000000)">
                    <mask id="mask-4" fill="white">
                        <use xlink:href="#path-3"></use>
                    </mask>
                    <use id="Mask" fill="#E72427" xlink:href="#path-3"></use>
                    <g id="外围组件/颜色/主色" mask="url(#mask-4)" fill="#E72427">
                        <g transform="translate(-172.000000, -308.000000)" id="Rectangle-15">
                            <rect x="0" y="0" width="375" height="667"></rect>
                        </g>
                    </g>
                </g>
            </g>
        </g>
    </g>
</svg>