<?xml version="1.0" encoding="UTF-8"?>
<svg width="40px" height="40px" viewBox="0 0 40 40" version="1.1" xmlns="http://www.w3.org/2000/svg" xmlns:xlink="http://www.w3.org/1999/xlink">
    <!-- Generator: Sketch 49.3 (51167) - http://www.bohemiancoding.com/sketch -->
    <title>ae_eu</title>
    <desc>Created with Sketch.</desc>
    <defs>
        <linearGradient x1="50%" y1="0%" x2="50%" y2="100%" id="linearGradient-1">
            <stop stop-color="#44B4FB" offset="0%"></stop>
            <stop stop-color="#90DAFB" offset="100%"></stop>
        </linearGradient>
        <linearGradient x1="50%" y1="65.2011954%" x2="50%" y2="130.895192%" id="linearGradient-2">
            <stop stop-color="#DCF2FF" offset="0%"></stop>
            <stop stop-color="#FFFFFF" offset="100%"></stop>
        </linearGradient>
        <linearGradient x1="50%" y1="0%" x2="50%" y2="105.043736%" id="linearGradient-3">
            <stop stop-color="#DCF2FF" offset="0%"></stop>
            <stop stop-color="#FFFFFF" offset="100%"></stop>
        </linearGradient>
        <circle id="path-4" cx="19.5" cy="16.5" r="9.5"></circle>
        <filter x="-36.8%" y="-26.3%" width="173.7%" height="173.7%" filterUnits="objectBoundingBox" id="filter-5">
            <feOffset dx="0" dy="2" in="SourceAlpha" result="shadowOffsetOuter1"></feOffset>
            <feGaussianBlur stdDeviation="2" in="shadowOffsetOuter1" result="shadowBlurOuter1"></feGaussianBlur>
            <feColorMatrix values="0 0 0 0 0.380392157   0 0 0 0 0.764705882   0 0 0 0 0.984313725  0 0 0 0.391842165 0" type="matrix" in="shadowBlurOuter1"></feColorMatrix>
        </filter>
        <polygon id="path-6" points="19.5 19.25 16.2671811 20.9495935 16.8845946 17.3497967 14.2691892 14.8004065 17.8835906 14.2752033 19.5 11 21.1164094 14.2752033 24.7308108 14.8004065 22.1154054 17.3497967 22.7328189 20.9495935"></polygon>
        <filter x="-54.5%" y="-54.5%" width="209.1%" height="209.1%" filterUnits="objectBoundingBox" id="filter-7">
            <feOffset dx="0" dy="0" in="SourceAlpha" result="shadowOffsetOuter1"></feOffset>
            <feGaussianBlur stdDeviation="2" in="shadowOffsetOuter1" result="shadowBlurOuter1"></feGaussianBlur>
            <feColorMatrix values="0 0 0 0 0.419607843   0 0 0 0 0.784313725   0 0 0 0 0.984313725  0 0 0 0.468127264 0" type="matrix" in="shadowBlurOuter1"></feColorMatrix>
        </filter>
    </defs>
    <g id="Page-1" stroke="none" stroke-width="1" fill="none" fill-rule="evenodd">
        <g id="图标编码" transform="translate(-378.000000, -910.000000)">
            <g id="Repeat-Group" transform="translate(-1.000000, 537.000000)"></g>
            <g id="Repeat-Group-Copy" transform="translate(1750.000000, 2288.000000) rotate(90.000000) translate(-1750.000000, -2288.000000) translate(-1.000000, 537.000000)"></g>
            <g id="icon/40pt图14pt文/40*40icon/授信问题" transform="translate(378.000000, 910.000000)">
                <circle id="Oval-3" fill="url(#linearGradient-1)" fill-rule="evenodd" cx="20" cy="20" r="20"></circle>
                <path d="M13.9204786,22.5365442 C12.4441649,21.0602305 11.4599558,19.0089746 11.4599558,16.7124866 C11.4599558,12.2007079 15.1507401,8.50910345 19.6625188,8.50910345 C24.1742975,8.50910345 27.8650818,12.2007079 27.8650818,16.7124866 C27.8650818,19.0089746 26.9637102,21.0602305 25.4045589,22.5365442 L26.2247332,30.5750723 C26.3067506,31.2312118 25.569414,31.7241365 24.9944718,31.3952466 L19.6625188,28.3606018 L14.3305658,31.3952466 C13.7564438,31.7241365 13.0182869,31.2312118 13.1003043,30.5750723 L13.9204786,22.5365442 Z" id="Fill-1" fill="url(#linearGradient-2)" fill-rule="evenodd"></path>
                <g id="Oval">
                    <use fill="black" fill-opacity="1" filter="url(#filter-5)" xlink:href="#path-4"></use>
                    <use fill="url(#linearGradient-3)" fill-rule="evenodd" xlink:href="#path-4"></use>
                </g>
                <g id="Star">
                    <use fill="black" fill-opacity="1" filter="url(#filter-7)" xlink:href="#path-6"></use>
                    <use fill="#FFFFFF" fill-rule="evenodd" xlink:href="#path-6"></use>
                </g>
            </g>
        </g>
    </g>
</svg>