<?xml version="1.0" encoding="UTF-8"?>
<svg width="40px" height="40px" viewBox="0 0 40 40" version="1.1" xmlns="http://www.w3.org/2000/svg" xmlns:xlink="http://www.w3.org/1999/xlink">
    <!-- Generator: Sketch 49.3 (51167) - http://www.bohemiancoding.com/sketch -->
    <title>ah_eu</title>
    <desc>Created with Sketch.</desc>
    <defs>
        <linearGradient x1="50%" y1="0%" x2="50%" y2="97.0375723%" id="linearGradient-1">
            <stop stop-color="#FFA039" offset="0%"></stop>
            <stop stop-color="#FDC65B" offset="100%"></stop>
        </linearGradient>
        <linearGradient x1="-79.8352803%" y1="66.0598934%" x2="80.8206598%" y2="66.0598934%" id="linearGradient-2">
            <stop stop-color="#FFECD4" offset="0%"></stop>
            <stop stop-color="#FFFFFF" offset="100%"></stop>
        </linearGradient>
        <filter x="-85.7%" y="-64.3%" width="242.9%" height="250.0%" filterUnits="objectBoundingBox" id="filter-3">
            <feOffset dx="-2" dy="2" in="SourceAlpha" result="shadowOffsetOuter1"></feOffset>
            <feGaussianBlur stdDeviation="2" in="shadowOffsetOuter1" result="shadowBlurOuter1"></feGaussianBlur>
            <feColorMatrix values="0 0 0 0 1   0 0 0 0 0.670588235   0 0 0 0 0.262745098  0 0 0 0.570255888 0" type="matrix" in="shadowBlurOuter1" result="shadowMatrixOuter1"></feColorMatrix>
            <feMerge>
                <feMergeNode in="shadowMatrixOuter1"></feMergeNode>
                <feMergeNode in="SourceGraphic"></feMergeNode>
            </feMerge>
        </filter>
        <linearGradient x1="50%" y1="0%" x2="50%" y2="100%" id="linearGradient-4">
            <stop stop-color="#FFE6C4" offset="0%"></stop>
            <stop stop-color="#FFFFFF" offset="100%"></stop>
        </linearGradient>
        <path d="M7.59397675,2 C7.3349555,2.24110962 3.67682121,5.86530669 3,6.49717124 C3.56384141,7.02494974 7.52454269,10.9346436 7.5927812,11 C7.5927812,9.99419509 7.5927812,7.75640492 7.5927812,7.75640492 C8.6886439,7.75640492 10.2301096,8.39704417 10.6150778,9.30001655 C10.9257377,8.85847213 11,8.32848915 11,7.75640492 C11,6.22714403 9.22779252,4.98342816 7.5927812,4.98342816 C7.59397675,4.98342816 7.59397675,2.46246537 7.59397675,2 Z" id="path-5"></path>
        <filter x="-112.5%" y="-100.0%" width="325.0%" height="300.0%" filterUnits="objectBoundingBox" id="filter-6">
            <feOffset dx="0" dy="0" in="SourceAlpha" result="shadowOffsetOuter1"></feOffset>
            <feGaussianBlur stdDeviation="3" in="shadowOffsetOuter1" result="shadowBlurOuter1"></feGaussianBlur>
            <feColorMatrix values="0 0 0 0 1   0 0 0 0 0.68627451   0 0 0 0 0.274509804  0 0 0 0.646937274 0" type="matrix" in="shadowBlurOuter1"></feColorMatrix>
        </filter>
    </defs>
    <g id="Page-1" stroke="none" stroke-width="1" fill="none" fill-rule="evenodd">
        <g id="图标编码" transform="translate(-576.000000, -915.000000)">
            <g id="Repeat-Group" transform="translate(-1.000000, 537.000000)"></g>
            <g id="Repeat-Group-Copy" transform="translate(1750.000000, 2288.000000) rotate(90.000000) translate(-1750.000000, -2288.000000) translate(-1.000000, 537.000000)"></g>
            <g id="icon/40pt图14pt文/40*40icon/还款问题" transform="translate(576.000000, 915.000000)">
                <circle id="Oval-3" fill="url(#linearGradient-1)" cx="20" cy="20" r="20"></circle>
                <g id="Group-2" stroke-width="1" transform="translate(8.000000, 11.000000)">
                    <path d="M19,6 L19,13 C19,14.1045695 18.1045695,15 17,15 L2,15 C0.8954305,15 0,14.1045695 0,13 L0,6 L19,6 Z M0,4 L0,2 C0,0.8954305 0.8954305,0 2,0 L17,0 C18.1045695,0 19,0.8954305 19,2 L19,4 L0,4 Z" id="Combined-Shape" fill="url(#linearGradient-2)"></path>
                    <g id="Group" filter="url(#filter-3)" transform="translate(11.000000, 6.000000)">
                        <circle id="Oval" fill="url(#linearGradient-4)" cx="7" cy="7" r="7"></circle>
                        <g id="Fill-1">
                            <use fill="black" fill-opacity="1" filter="url(#filter-6)" xlink:href="#path-5"></use>
                            <use fill="#FFFFFF" fill-rule="evenodd" xlink:href="#path-5"></use>
                        </g>
                    </g>
                </g>
            </g>
        </g>
    </g>
</svg>