<?xml version="1.0" encoding="UTF-8"?>
<svg width="24px" height="24px" viewBox="0 0 24 24" version="1.1" xmlns="http://www.w3.org/2000/svg" xmlns:xlink="http://www.w3.org/1999/xlink">
    <!-- Generator: Sketch 49.3 (51167) - http://www.bohemiancoding.com/sketch -->
    <title>ap_ap</title>
    <desc>Created with Sketch.</desc>
    <defs></defs>
    <g id="Page-1" stroke="none" stroke-width="1" fill="none" fill-rule="evenodd">
        <g id="图标编码" transform="translate(-1158.000000, -628.000000)">
            <g id="Repeat-Group" transform="translate(-1.000000, 537.000000)"></g>
            <g id="Repeat-Group-Copy" transform="translate(1750.000000, 2288.000000) rotate(90.000000) translate(-1750.000000, -2288.000000) translate(-1.000000, 537.000000)"></g>
            <g id="icon/24*24/客服白" transform="translate(1158.000000, 628.000000)" fill="#FFFFFF">
                <path d="M17.5647619,16.3882204 C17.0361905,15.8974667 16.7371429,15.2126722 16.7371429,14.4949096 L16.7371429,12.4084999 C16.7380952,10.9795683 17.9047619,9.81814924 19.3504762,9.80872979 C19.0809524,6.02681783 15.892381,3.04179194 12,3.04179194 C8.10761905,3.04179194 4.92,6.02681783 4.65047619,9.80872979 C6.0952381,9.81909119 7.26190476,10.9795683 7.26380952,12.4084999 L7.26380952,14.4949096 C7.26380952,15.9332607 6.08571429,17.0984475 4.63142857,17.0984475 C3.17904762,17.0984475 2,15.9332607 2,14.4949096 L2,12.4084999 C2.00095238,11.3723596 2.62380952,10.4351237 3.5847619,10.0234934 C3.74761905,5.56526444 7.45238095,2 12,2 C16.547619,2 20.252381,5.56526444 20.4161905,10.0234934 C21.3771429,10.4360656 21.9990476,11.3723596 22,12.4084999 L22,14.4949096 C21.9990476,15.3417188 21.5838095,16.1329532 20.8847619,16.620881 C20.1857143,17.1088089 19.2914286,17.2293779 18.4866667,16.9458523 C17.492381,17.9810506 16.26,18.7628655 14.8942857,19.2263028 C14.8695238,20.2153458 14.0495238,21.0037543 13.047619,20.9999866 L11.4780952,20.9999866 C10.4571429,20.9999866 9.63142857,20.1880294 9.63142857,19.1782636 C9.63142857,18.1703817 10.4542857,17.3565406 11.4790476,17.3565406 L13.047619,17.3565406 C13.7114286,17.3565406 14.2933333,17.7003508 14.6180952,18.217479 C15.7257143,17.8322232 16.732381,17.2067713 17.5647619,16.3882204" id="Fill-1"></path>
            </g>
        </g>
    </g>
</svg>