<?xml version="1.0" encoding="UTF-8"?>
<svg width="24px" height="24px" viewBox="0 0 24 24" version="1.1" xmlns="http://www.w3.org/2000/svg" xmlns:xlink="http://www.w3.org/1999/xlink">
    <!-- Generator: Sketch 49.3 (51167) - http://www.bohemiancoding.com/sketch -->
    <title>ap_at</title>
    <desc>Created with Sketch.</desc>
    <defs>
        <path d="M11.7712447,16.74931 C11.6196319,16.5078922 11.3492299,16.3565406 11.047619,16.3565406 L9.47904762,16.3565406 C9.00452847,16.3565406 8.63142857,16.7247628 8.63142857,17.1782636 C8.63142857,17.6315533 9.00527577,17.9999866 9.47809524,17.9999866 L11.0513796,17.9999936 C11.511472,18.0017239 11.8835078,17.6442775 11.894599,17.2012744 L11.9007515,16.9555276 L11.7712447,16.74931 Z M16.8189573,14.0026753 C17.320678,14.1794365 17.8781234,14.1040004 18.3124066,13.8008753 C18.7444859,13.4992885 18.9994163,13.0133715 19,12.4949096 L19.0000004,10.4094191 C18.9994164,9.77405592 18.6167708,9.19787921 18.0216771,8.9423836 L17.7050428,8.80644086 L17.3569915,8.80870856 C16.4586249,8.81456181 15.7377274,9.53187187 15.7371429,10.4084999 L15.7371429,12.4949096 C15.7371429,12.9345531 15.9203709,13.3538263 16.2451664,13.6553837 L16.4970818,13.8892753 L16.8189573,14.0026753 Z M1.97851434,8.94270993 C1.38390326,9.19741549 1.00058338,9.77427298 1,10.4084999 L1,12.4949096 C1,13.3780237 1.72840496,14.0984475 2.63142857,14.0984475 C3.53588075,14.0984475 4.26380952,13.3784947 4.26380952,12.4949096 L4.26381041,10.4098329 C4.2626408,9.53240124 3.54161828,8.81514651 2.64330467,8.80870407 L2.29714701,8.80622153 L1.97851434,8.94270993 Z M14.8843574,15.1210572 L15.5647619,14.3882204 L15.398437,14.2190854 C14.9738993,13.7461047 14.7371429,13.1335576 14.7371429,12.4949096 L14.7371429,10.4084999 C14.7380952,8.97956828 15.9047619,7.81814924 17.3504762,7.80872979 C17.3291884,7.51002312 17.2896907,7.21628767 17.2330745,6.92860159 L17.3439609,6.80875101 C17.2988199,6.80904512 17.2538736,6.81015636 17.2091365,6.81207059 C16.5034026,3.51544133 13.5433199,1.04179194 10,1.04179194 C6.45665772,1.04179194 3.49734921,3.51547262 2.79178092,6.81213313 C2.74727207,6.81020808 2.70255629,6.80907757 2.65764771,6.8087555 L2.76796556,6.92807012 C2.71130441,7.2159259 2.67177709,7.50983917 2.65047619,7.80872979 C4.0952381,7.81909119 5.26190476,8.97956828 5.26380952,10.4084999 L5.26380952,12.4949096 C5.26380952,13.9332607 4.08571429,15.0984475 2.63142857,15.0984475 C1.17904762,15.0984475 0,13.9332607 0,12.4949096 L0,10.4084999 C0.000952380952,9.37235963 0.623809524,8.43512367 1.5847619,8.0234934 C1.74761905,3.56526444 5.45238095,0 10,0 C14.547619,0 18.252381,3.56526444 18.4161905,8.0234934 C19.3771429,8.43606562 19.9990476,9.37235963 20,10.4084999 L20,12.4949096 C19.9990476,13.3417188 19.5838095,14.1329532 18.8847619,14.620881 C18.1857143,15.1088089 17.2914286,15.2293779 16.4866667,14.9458523 C15.492381,15.9810506 14.26,16.7628655 12.8942857,17.2263028 C12.8695238,18.2153458 12.0495238,19.0037543 11.047619,18.9999866 L9.47809524,18.9999866 C8.45714286,18.9999866 7.63142857,18.1880294 7.63142857,17.1782636 C7.63142857,16.1703817 8.45428571,15.3565406 9.47904762,15.3565406 L11.047619,15.3565406 C11.7114286,15.3565406 12.2933333,15.7003508 12.6180952,16.217479 C13.4072203,15.9430029 14.1451031,15.5466062 14.8052242,15.0453209 C14.831174,15.0709218 14.8575533,15.0961709 14.8843574,15.1210572 Z" id="path-1"></path>
    </defs>
    <g id="Page-1" stroke="none" stroke-width="1" fill="none" fill-rule="evenodd">
        <g id="图标编码" transform="translate(-1187.000000, -628.000000)">
            <g id="Repeat-Group" transform="translate(-1.000000, 537.000000)"></g>
            <g id="Repeat-Group-Copy" transform="translate(1750.000000, 2288.000000) rotate(90.000000) translate(-1750.000000, -2288.000000) translate(-1.000000, 537.000000)"></g>
            <g id="icon/24*24/客服" transform="translate(1187.000000, 628.000000)">
                <g id="外围组件/40灰" transform="translate(2.000000, 2.000000)">
                    <mask id="mask-2" fill="white">
                        <use xlink:href="#path-1"></use>
                    </mask>
                    <use id="Mask" fill="#666666" fill-rule="nonzero" xlink:href="#path-1"></use>
                    <g id="外围组件/颜色/40灰" mask="url(#mask-2)" fill="#666666">
                        <g transform="translate(-161.000000, -298.000000)" id="Rectangle-15">
                            <rect x="0" y="0" width="375" height="667"></rect>
                        </g>
                    </g>
                </g>
            </g>
        </g>
    </g>
</svg>