<?xml version="1.0" encoding="UTF-8"?>
<svg width="16px" height="16px" viewBox="0 0 16 16" version="1.1" xmlns="http://www.w3.org/2000/svg" xmlns:xlink="http://www.w3.org/1999/xlink">
    <!-- Generator: Sketch 49.3 (51167) - http://www.bohemiancoding.com/sketch -->
    <title>aq_cg</title>
    <desc>Created with Sketch.</desc>
    <defs>
        <path d="M12.5903599,7.80787572 C12.5903599,7.31958259 12.4547152,6.86098328 12.2169809,6.46211634 C12.1376212,6.26352174 11.9349126,6.12222332 11.6971783,6.12222332 C11.3903116,6.12222332 11.1414535,6.35754448 11.1414535,6.64786354 C11.1414535,6.79679225 11.2070925,6.9312188 11.3123998,7.02680437 C11.4238895,7.26626244 11.4860121,7.53028914 11.4860121,7.80787572 C11.4860121,7.81757447 11.4856673,7.82727322 11.4855754,7.83697198 C11.4891607,7.84172942 11.4893446,7.8465788 11.4893446,7.85142817 C11.4893446,8.12901475 11.4271301,8.39304145 11.3156174,8.63247653 C11.210402,8.72808509 11.1447861,8.86248866 11.1447861,9.01141737 C11.1447861,9.30166748 11.3935522,9.53705759 11.7003959,9.53705759 C11.9381302,9.53705759 12.1409307,9.39575917 12.2203134,9.19716457 C12.4579328,8.79829762 12.5936924,8.3397213 12.5936924,7.85142817 C12.5936924,7.84172942 12.5934166,7.83203067 12.5933246,7.82233192 C12.5902679,7.81748254 12.5903599,7.81272509 12.5903599,7.80787572 Z M16,7.72375857 C16,6.90166289 15.767207,6.10087228 15.3277523,5.40876745 C14.8988009,4.73426747 14.2919853,4.18952853 13.5734962,3.83474264 C13.2598266,3.67974646 12.8761283,3.80215299 12.7170412,4.10856003 C12.5578621,4.41565655 12.6834633,4.78965608 12.9973168,4.94465226 C14.063605,5.4716025 14.7254414,6.53628192 14.7254414,7.72375857 C14.7254414,8.91123523 14.063605,9.97625939 12.9980292,10.5025201 C12.6841757,10.6582058 12.5585746,11.0322973 12.7176617,11.3387043 C12.8300707,11.5549727 13.0537856,11.6801142 13.2864867,11.6801142 C13.3839798,11.6801142 13.4821165,11.6580507 13.5743236,11.6131422 C14.2919853,11.2579886 14.8988009,10.7135944 15.3277523,10.03829 C15.7679194,9.3459324 16,8.54511881 16,7.72375857 Z M8.10027407,0.134944316 C8.09147165,0.14229882 7.15742661,0.866257842 6.12680774,1.60807452 C4.33306712,2.8978937 3.81048362,3.11282909 3.70490051,3.14684367 L1.70888803,3.14684367 C1.18389134,3.14684367 0.723660245,3.35927394 0.411185741,3.74600595 C0.142217728,4.07803884 0,4.5134255 0,5.00498218 L0,10.4751476 C0,11.4995841 0.852249157,12.0220981 1.90074867,12.0220981 L2.68837012,12.0220981 C3.03993841,12.0220981 3.24007232,11.9570572 3.24007232,11.6131422 C3.24007232,11.2698248 3.03993841,11.0890419 2.68837012,11.0890419 L2.04412541,11.0890419 C1.69910723,11.0890419 0.955113571,10.813156 0.955113571,10.4751476 L0.955113571,5.00498218 C0.955113571,4.77568252 1.33111932,3.98842388 1.70888803,3.98842388 L4.01439578,3.98842388 C4.34072893,3.98842388 7.74475273,1.62264915 8.07432646,1.37687081 L8.07432646,14.1222416 C7.80885184,13.9031003 4.80734506,11.2764156 4.49565183,11.2245089 C4.18395861,11.1726021 3.90719653,11.2698248 3.90719653,11.6131422 C3.90719653,11.9391077 3.97306657,11.9469348 4.40844083,12.3138443 C4.49565183,12.3815126 4.69084077,12.5709745 6.30887769,13.8597135 C7.23483277,14.5966118 8.06616756,15.316342 8.07432646,15.323076 C8.1933775,15.4264987 8.3441908,15.4800947 8.49824469,15.4800947 C8.58597013,15.4800947 8.67521245,15.4626047 8.75843326,15.4254185 C8.98752607,15.324432 8.99130005,15.0778242 8.99130005,14.8331031 L8.99130005,0.650280363 C8.99130005,0.41084528 8.99490356,0.165120766 8.774843,0.0620198085 C8.55400102,-0.0420923937 8.29229558,-0.0133638611 8.10027407,0.134944316 Z" id="path-1"></path>
    </defs>
    <g id="Page-1" stroke="none" stroke-width="1" fill="none" fill-rule="evenodd">
        <g id="图标编码" transform="translate(-1230.000000, -773.000000)">
            <g id="Repeat-Group" transform="translate(-1.000000, 537.000000)"></g>
            <g id="Repeat-Group-Copy" transform="translate(1750.000000, 2288.000000) rotate(90.000000) translate(-1750.000000, -2288.000000) translate(-1.000000, 537.000000)"></g>
            <g id="icon/16*16/通知" transform="translate(1230.000000, 773.000000)">
                <g id="40灰">
                    <mask id="mask-2" fill="white">
                        <use xlink:href="#path-1"></use>
                    </mask>
                    <use id="Mask" fill="#231916" xlink:href="#path-1"></use>
                    <g id="外围组件/颜色/蓝色提示类" mask="url(#mask-2)" fill="#659FFC">
                        <g transform="translate(-158.000000, -307.000000)" id="Rectangle-15">
                            <rect x="0" y="0" width="375" height="667"></rect>
                        </g>
                    </g>
                </g>
            </g>
        </g>
    </g>
</svg>