<?xml version="1.0" encoding="UTF-8"?>
<svg width="16px" height="16px" viewBox="0 0 16 16" version="1.1" xmlns="http://www.w3.org/2000/svg" xmlns:xlink="http://www.w3.org/1999/xlink">
    <!-- Generator: Sketch 49.3 (51167) - http://www.bohemiancoding.com/sketch -->
    <title>ar_cu</title>
    <desc>Created with Sketch.</desc>
    <defs>
        <path d="M12.4157363,15.0000264 C12.8876716,14.996453 13.0808847,14.8824793 13.1397309,14.6513543 L15.0118033,7.85194702 C15.0768616,7.6158482 15.0279164,7.34758938 14.8783519,7.1409969 C14.7939369,7.02411672 14.7313036,7 14.4,7 L9.02937028,7 L9.69575754,5.56463196 C10.0646988,4.76994916 10.2675398,2.99085531 9.69014531,1.51894222 C9.59280142,1.21652779 9.2984344,1 8.95332202,1 C8.5443705,1 8.16301242,1.38486109 8.16301242,1.76568953 L8.16301242,2.23275903 C8.16301242,5.102775 6.51151129,7 3.84,7 L1.92,7 C1.56153106,7 0.96,7.67198617 0.96,8.1436904 L0.959999652,14.4774687 C0.960204502,14.7279836 1.3407539,14.9987415 1.92090114,15 L12.4157363,15.0000264 Z M10.56,6 L14.4,6 C14.9268544,6 15.3220149,6.0919208 15.6454939,6.53980709 C15.9745777,6.99436581 16.0834716,7.58737726 15.9345432,8.1278434 L14.0625286,14.9270409 C13.8655587,15.7035439 13.1937793,15.9941616 12.4227143,16 L1.92,16 C0.980789954,15.9983319 0.000800690576,15.4574984 0,14.4783205 L0,8.1436904 C0,7.13532071 1.01521965,6 1.92,6 L3.84,6 C6.00106387,6 7.20301242,4.5230677 7.20301242,2.23275903 L7.20301242,1.76568953 C7.20301242,0.825712157 8.0205175,0 8.95332202,0 C9.71477876,0 10.3729464,0.494593241 10.6003425,1.20103586 C11.1572619,2.61526092 11.0419517,4.06256925 10.8500167,5 L10.56,6 Z M2.88,15 L3.83808,15 L3.83808,7.00581216 L2.88,7 L2.88,15 Z" id="path-1"></path>
    </defs>
    <g id="Page-1" stroke="none" stroke-width="1" fill="none" fill-rule="evenodd">
        <g id="图标编码" transform="translate(-1297.000000, -774.000000)">
            <g id="Repeat-Group" transform="translate(-1.000000, 537.000000)"></g>
            <g id="Repeat-Group-Copy" transform="translate(1750.000000, 2288.000000) rotate(90.000000) translate(-1750.000000, -2288.000000) translate(-1.000000, 537.000000)"></g>
            <g id="icon/16*16/16pt图12pt文/ar_c" transform="translate(1297.000000, 774.000000)">
                <g id="外围组件/20灰">
                    <mask id="mask-2" fill="white">
                        <use xlink:href="#path-1"></use>
                    </mask>
                    <use id="Mask" fill="#333333" fill-rule="nonzero" xlink:href="#path-1"></use>
                    <g id="外围组件/颜色/20灰" mask="url(#mask-2)" fill="#333333">
                        <g transform="translate(-156.000000, -297.000000)" id="Rectangle-15">
                            <rect x="0" y="0" width="375" height="667"></rect>
                        </g>
                    </g>
                </g>
            </g>
        </g>
    </g>
</svg>