<?xml version="1.0" encoding="UTF-8"?>
<svg width="16px" height="17px" viewBox="0 0 16 17" version="1.1" xmlns="http://www.w3.org/2000/svg" xmlns:xlink="http://www.w3.org/1999/xlink">
    <!-- Generator: Sketch 49.3 (51167) - http://www.bohemiancoding.com/sketch -->
    <title>as_ca</title>
    <desc>Created with Sketch.</desc>
    <defs>
        <path d="M3.83148496,9.44773126 C6.33106919,9.65270381 8.19063571,11.8539423 8.19063571,14.6808523 L8.19063571,15.1694333 C8.19063571,15.5678012 8.57133849,15.9703876 8.97958731,15.9703876 L9.02514825,15.9703876 C9.32714735,15.9703876 9.61885242,15.7410078 9.7151445,15.4275448 L9.83112495,15.0683235 C10.1094949,14.1729212 10.1467974,13.1957278 9.9350117,12.2638324 L9.87418866,11.9876303 L9.85528716,11.8748755 C9.84293567,11.7685761 9.78322198,11.5507124 9.70346965,11.3707085 L9.02514825,9.43212736 L14.4169062,9.54655953 C15.0926201,9.54655953 15.2065207,9.16259118 14.8944361,8.38489356 L13.1588026,1.69030343 C13.0676424,1.31462759 12.7753867,1.06651746 12.4388335,1.0625 L3.83148496,1.0625 L3.83148496,9.44773126 Z M2.87505125,9.43212736 L2.87505125,1.0625 L1.74019375,1.0625 C1.33197333,1.06326125 1.0003488,1.42523522 1,1.87219751 L1.00000035,8.49768576 C1.00000035,8.98895935 1.38029277,9.43212736 1.74019375,9.43212736 L2.87505125,9.43212736 Z M10.5821278,10.4617398 C11.116041,12.7018875 11.116041,14.4625239 10.5821278,15.743649 C9.98160304,16.7050848 9.69808569,17 8.93793738,17 C8.00673571,17 7.19063536,16.1362587 7.19063536,15.1529895 L7.19063536,14.6644085 C7.19063536,12.2686169 5.56402988,10.4617398 3.4066794,10.4617398 L1.69854381,10.4617398 C0.795318162,10.4617398 0,9.53605337 0,8.48124198 L0,1.85486271 C0.000799314736,0.830587632 0.760947629,0.001744932 1.69854381,0 L12.4013681,0 C13.1711082,0.006107262 13.8417333,0.573210162 14.0383647,1.38547601 L15.9071626,8.49781884 C16.0558351,9.0631768 16.0416181,9.75583307 15.7491575,10.1595352 C15.456697,10.5632373 14.9012053,10.4605622 14.3752562,10.4605622 L10.5821278,10.4617398 Z" id="path-1"></path>
    </defs>
    <g id="Page-1" stroke="none" stroke-width="1" fill="none" fill-rule="evenodd">
        <g id="图标编码" transform="translate(-1390.000000, -774.000000)">
            <g id="Repeat-Group" transform="translate(-1.000000, 537.000000)"></g>
            <g id="Repeat-Group-Copy" transform="translate(1750.000000, 2288.000000) rotate(90.000000) translate(-1750.000000, -2288.000000) translate(-1.000000, 537.000000)"></g>
            <g id="icon/16*16/16pt图12pt文/as_c" transform="translate(1390.000000, 774.000000)">
                <g id="外围组件/20灰">
                    <g>
                        <mask id="mask-2" fill="white">
                            <use xlink:href="#path-1"></use>
                        </mask>
                        <use id="Mask" fill="#333333" fill-rule="nonzero" xlink:href="#path-1"></use>
                        <g id="外围组件/颜色/主色" mask="url(#mask-2)" fill="#E72427">
                            <g transform="translate(-170.000000, -335.750000)" id="Rectangle-15">
                                <rect x="0" y="0" width="375" height="709"></rect>
                            </g>
                        </g>
                    </g>
                </g>
            </g>
        </g>
    </g>
</svg>