<?xml version="1.0" encoding="UTF-8"?>
<svg width="16px" height="16px" viewBox="0 0 16 16" version="1.1" xmlns="http://www.w3.org/2000/svg" xmlns:xlink="http://www.w3.org/1999/xlink">
    <!-- Generator: Sketch 49.3 (51167) - http://www.bohemiancoding.com/sketch -->
    <title>as_cu</title>
    <desc>Created with Sketch.</desc>
    <defs>
        <path d="M3.83148496,8.89198236 C6.33106919,9.0848977 8.19063571,11.1566516 8.19063571,13.8172728 L8.19063571,14.2771137 C8.19063571,14.6520482 8.57133849,15.030953 8.97958731,15.030953 L9.02514825,15.030953 C9.32714735,15.030953 9.61885242,14.8150662 9.7151445,14.5200422 L9.83112495,14.1819516 C10.1094949,13.33922 10.1467974,12.4195085 9.9350117,11.5424305 L9.87418866,11.2824756 L9.85528716,11.1763534 C9.84293567,11.076307 9.78322198,10.8712587 9.70346965,10.7018433 L9.02514825,8.87729633 L14.4169062,8.98499721 C15.0926201,8.98499721 15.2065207,8.62361523 14.8944361,7.89166452 L13.1588026,1.59087382 C13.0676424,1.23729656 12.7753867,1.00378114 12.4388335,1 L3.83148496,1 L3.83148496,8.89198236 Z M2.87505125,8.87729633 L2.87505125,1 L1.74019375,1 C1.33197333,1.00071647 1.0003488,1.34139786 1,1.76206825 L1.00000035,7.99782189 C1.00000035,8.46019703 1.38029277,8.87729633 1.74019375,8.87729633 L2.87505125,8.87729633 Z M10.5821278,9.84634334 C11.116041,11.9547176 11.116041,13.6117872 10.5821278,14.817552 C9.98160304,15.7224327 9.69808569,16 8.93793738,16 C8.00673571,16 7.19063536,15.187067 7.19063536,14.2616372 L7.19063536,13.8017963 C7.19063536,11.5469335 5.56402988,9.84634334 3.4066794,9.84634334 L1.69854381,9.84634334 C0.795318162,9.84634334 0,8.97510906 0,7.98234539 L0,1.74575314 C0.000799314736,0.781729536 0.760947629,0.00164228894 1.69854381,0 L12.4013681,0 C13.1711082,0.00574801129 13.8417333,0.539491917 14.0383647,1.30397742 L15.9071626,7.99794714 C16.0558351,8.53004876 16.0416181,9.18196054 15.7491575,9.56191549 C15.456697,9.94187043 14.9012053,9.84523503 14.3752562,9.84523503 L10.5821278,9.84634334 Z" id="path-1"></path>
    </defs>
    <g id="Page-1" stroke="none" stroke-width="1" fill="none" fill-rule="evenodd">
        <g id="图标编码" transform="translate(-1365.000000, -803.000000)">
            <g id="Repeat-Group" transform="translate(-1.000000, 537.000000)"></g>
            <g id="Repeat-Group-Copy" transform="translate(1750.000000, 2288.000000) rotate(90.000000) translate(-1750.000000, -2288.000000) translate(-1.000000, 537.000000)"></g>
            <g id="icon/16*16/16pt图12pt文/as_c" transform="translate(1365.000000, 803.000000)">
                <g id="外围组件/20灰">
                    <g>
                        <mask id="mask-2" fill="white">
                            <use xlink:href="#path-1"></use>
                        </mask>
                        <use id="Mask" fill="#333333" fill-rule="nonzero" xlink:href="#path-1"></use>
                        <g id="外围组件/颜色/20灰" mask="url(#mask-2)" fill="#333333">
                            <g transform="translate(-170.000000, -316.000000)" id="Rectangle-15">
                                <rect x="0" y="0" width="375" height="667"></rect>
                            </g>
                        </g>
                    </g>
                </g>
            </g>
        </g>
    </g>
</svg>